%TF.GenerationSoftware,KiCad,Pcbnew,7.0.1*%
%TF.CreationDate,2023-05-16T20:26:06-05:00*%
%TF.ProjectId,SeneCurrent,53656e65-4375-4727-9265-6e742e6b6963,rev?*%
%TF.SameCoordinates,Original*%
%TF.FileFunction,Paste,Top*%
%TF.FilePolarity,Positive*%
%FSLAX46Y46*%
G04 Gerber Fmt 4.6, Leading zero omitted, Abs format (unit mm)*
G04 Created by KiCad (PCBNEW 7.0.1) date 2023-05-16 20:26:06*
%MOMM*%
%LPD*%
G01*
G04 APERTURE LIST*
G04 Aperture macros list*
%AMRoundRect*
0 Rectangle with rounded corners*
0 $1 Rounding radius*
0 $2 $3 $4 $5 $6 $7 $8 $9 X,Y pos of 4 corners*
0 Add a 4 corners polygon primitive as box body*
4,1,4,$2,$3,$4,$5,$6,$7,$8,$9,$2,$3,0*
0 Add four circle primitives for the rounded corners*
1,1,$1+$1,$2,$3*
1,1,$1+$1,$4,$5*
1,1,$1+$1,$6,$7*
1,1,$1+$1,$8,$9*
0 Add four rect primitives between the rounded corners*
20,1,$1+$1,$2,$3,$4,$5,0*
20,1,$1+$1,$4,$5,$6,$7,0*
20,1,$1+$1,$6,$7,$8,$9,0*
20,1,$1+$1,$8,$9,$2,$3,0*%
G04 Aperture macros list end*
%ADD10RoundRect,0.250000X-0.625000X0.400000X-0.625000X-0.400000X0.625000X-0.400000X0.625000X0.400000X0*%
%ADD11RoundRect,0.250000X-0.400000X-0.625000X0.400000X-0.625000X0.400000X0.625000X-0.400000X0.625000X0*%
%ADD12RoundRect,0.042000X0.258000X-0.943000X0.258000X0.943000X-0.258000X0.943000X-0.258000X-0.943000X0*%
%ADD13RoundRect,0.250000X0.400000X0.625000X-0.400000X0.625000X-0.400000X-0.625000X0.400000X-0.625000X0*%
%ADD14RoundRect,0.250000X0.625000X-0.400000X0.625000X0.400000X-0.625000X0.400000X-0.625000X-0.400000X0*%
%ADD15RoundRect,0.250000X-0.337500X-0.475000X0.337500X-0.475000X0.337500X0.475000X-0.337500X0.475000X0*%
%ADD16RoundRect,0.250000X-1.250000X-0.550000X1.250000X-0.550000X1.250000X0.550000X-1.250000X0.550000X0*%
%ADD17RoundRect,0.250001X-0.624999X0.462499X-0.624999X-0.462499X0.624999X-0.462499X0.624999X0.462499X0*%
%ADD18R,7.340000X6.350000*%
%ADD19RoundRect,0.250000X0.337500X0.475000X-0.337500X0.475000X-0.337500X-0.475000X0.337500X-0.475000X0*%
G04 APERTURE END LIST*
D10*
%TO.C,Rs3*%
X124460000Y-107035000D03*
X124460000Y-110135000D03*
%TD*%
D11*
%TO.C,Ru1*%
X70560000Y-100330000D03*
X73660000Y-100330000D03*
%TD*%
D10*
%TO.C,R2B3*%
X137795000Y-97510000D03*
X137795000Y-100610000D03*
%TD*%
D12*
%TO.C,U1*%
X102108000Y-88651200D03*
X103378000Y-88651200D03*
X104648000Y-88651200D03*
X105918000Y-88651200D03*
X105918000Y-83711200D03*
X104648000Y-83711200D03*
X103378000Y-83711200D03*
X102108000Y-83711200D03*
%TD*%
D13*
%TO.C,R3*%
X132360000Y-97155000D03*
X129260000Y-97155000D03*
%TD*%
D14*
%TO.C,R1*%
X121920000Y-96165000D03*
X121920000Y-93065000D03*
%TD*%
D15*
%TO.C,Cxa2*%
X124057500Y-101600000D03*
X126132500Y-101600000D03*
%TD*%
D16*
%TO.C,C1*%
X120990000Y-74930000D03*
X125390000Y-74930000D03*
%TD*%
D14*
%TO.C,R2B2*%
X132715000Y-103785000D03*
X132715000Y-100685000D03*
%TD*%
D11*
%TO.C,Ru2*%
X84175000Y-100330000D03*
X87275000Y-100330000D03*
%TD*%
%TO.C,RB2*%
X111556200Y-84353400D03*
X114656200Y-84353400D03*
%TD*%
D17*
%TO.C,D2*%
X126365000Y-79792500D03*
X126365000Y-82767500D03*
%TD*%
D11*
%TO.C,R2B1*%
X129564800Y-107238800D03*
X132664800Y-107238800D03*
%TD*%
D18*
%TO.C,J1*%
X59730000Y-54610000D03*
X138390000Y-54610000D03*
%TD*%
D14*
%TO.C,RP1*%
X113030000Y-98705000D03*
X113030000Y-95605000D03*
%TD*%
D13*
%TO.C,RB1*%
X114580000Y-75565000D03*
X111480000Y-75565000D03*
%TD*%
D14*
%TO.C,RP2*%
X96520000Y-94895000D03*
X96520000Y-91795000D03*
%TD*%
D11*
%TO.C,Rn1*%
X70840000Y-104140000D03*
X73940000Y-104140000D03*
%TD*%
%TO.C,Rs2*%
X59410000Y-112395000D03*
X62510000Y-112395000D03*
%TD*%
D10*
%TO.C,Rs1*%
X102870000Y-91795000D03*
X102870000Y-94895000D03*
%TD*%
D17*
%TO.C,D1*%
X117678200Y-89647700D03*
X117678200Y-92622700D03*
%TD*%
D14*
%TO.C,R2*%
X126365000Y-88545000D03*
X126365000Y-85445000D03*
%TD*%
D19*
%TO.C,Cxa1*%
X109622500Y-101600000D03*
X107547500Y-101600000D03*
%TD*%
M02*
