%TF.GenerationSoftware,KiCad,Pcbnew,7.0.1*%
%TF.CreationDate,2023-05-16T20:26:10-05:00*%
%TF.ProjectId,SeneCurrent,53656e65-4375-4727-9265-6e742e6b6963,rev?*%
%TF.SameCoordinates,Original*%
%TF.FileFunction,Drillmap*%
%TF.FilePolarity,Positive*%
%FSLAX45Y45*%
G04 Gerber Fmt 4.5, Leading zero omitted, Abs format (unit mm)*
G04 Created by KiCad (PCBNEW 7.0.1) date 2023-05-16 20:26:10*
%MOMM*%
%LPD*%
G01*
G04 APERTURE LIST*
%ADD10C,0.500000*%
%ADD11C,0.200000*%
%ADD12C,0.239000*%
%ADD13C,0.345000*%
G04 APERTURE END LIST*
D10*
X5191760Y-4033520D02*
X14574520Y-4033520D01*
X14574520Y-12964160D01*
X5191760Y-12964160D01*
X5191760Y-4033520D01*
D11*
D12*
X6193500Y-4541500D02*
X6432500Y-4780500D01*
X6432500Y-4541500D02*
X6193500Y-4780500D01*
D13*
X7318500Y-6261000D02*
G75*
G03*
X7318500Y-6261000I-172500J0D01*
G01*
X12838500Y-4661000D02*
G75*
G03*
X12838500Y-4661000I-172500J0D01*
G01*
D11*
X5414379Y-13301684D02*
X5414379Y-13101684D01*
X5414379Y-13101684D02*
X5461998Y-13101684D01*
X5461998Y-13101684D02*
X5490570Y-13111208D01*
X5490570Y-13111208D02*
X5509617Y-13130255D01*
X5509617Y-13130255D02*
X5519141Y-13149303D01*
X5519141Y-13149303D02*
X5528665Y-13187398D01*
X5528665Y-13187398D02*
X5528665Y-13215969D01*
X5528665Y-13215969D02*
X5519141Y-13254065D01*
X5519141Y-13254065D02*
X5509617Y-13273112D01*
X5509617Y-13273112D02*
X5490570Y-13292160D01*
X5490570Y-13292160D02*
X5461998Y-13301684D01*
X5461998Y-13301684D02*
X5414379Y-13301684D01*
X5614379Y-13301684D02*
X5614379Y-13168350D01*
X5614379Y-13206446D02*
X5623903Y-13187398D01*
X5623903Y-13187398D02*
X5633427Y-13177874D01*
X5633427Y-13177874D02*
X5652474Y-13168350D01*
X5652474Y-13168350D02*
X5671522Y-13168350D01*
X5738188Y-13301684D02*
X5738188Y-13168350D01*
X5738188Y-13101684D02*
X5728665Y-13111208D01*
X5728665Y-13111208D02*
X5738188Y-13120731D01*
X5738188Y-13120731D02*
X5747712Y-13111208D01*
X5747712Y-13111208D02*
X5738188Y-13101684D01*
X5738188Y-13101684D02*
X5738188Y-13120731D01*
X5861998Y-13301684D02*
X5842950Y-13292160D01*
X5842950Y-13292160D02*
X5833427Y-13273112D01*
X5833427Y-13273112D02*
X5833427Y-13101684D01*
X5966760Y-13301684D02*
X5947712Y-13292160D01*
X5947712Y-13292160D02*
X5938188Y-13273112D01*
X5938188Y-13273112D02*
X5938188Y-13101684D01*
X6195331Y-13301684D02*
X6195331Y-13101684D01*
X6195331Y-13101684D02*
X6261998Y-13244541D01*
X6261998Y-13244541D02*
X6328665Y-13101684D01*
X6328665Y-13101684D02*
X6328665Y-13301684D01*
X6509617Y-13301684D02*
X6509617Y-13196922D01*
X6509617Y-13196922D02*
X6500093Y-13177874D01*
X6500093Y-13177874D02*
X6481046Y-13168350D01*
X6481046Y-13168350D02*
X6442950Y-13168350D01*
X6442950Y-13168350D02*
X6423903Y-13177874D01*
X6509617Y-13292160D02*
X6490569Y-13301684D01*
X6490569Y-13301684D02*
X6442950Y-13301684D01*
X6442950Y-13301684D02*
X6423903Y-13292160D01*
X6423903Y-13292160D02*
X6414379Y-13273112D01*
X6414379Y-13273112D02*
X6414379Y-13254065D01*
X6414379Y-13254065D02*
X6423903Y-13235017D01*
X6423903Y-13235017D02*
X6442950Y-13225493D01*
X6442950Y-13225493D02*
X6490569Y-13225493D01*
X6490569Y-13225493D02*
X6509617Y-13215969D01*
X6604855Y-13168350D02*
X6604855Y-13368350D01*
X6604855Y-13177874D02*
X6623903Y-13168350D01*
X6623903Y-13168350D02*
X6661998Y-13168350D01*
X6661998Y-13168350D02*
X6681046Y-13177874D01*
X6681046Y-13177874D02*
X6690569Y-13187398D01*
X6690569Y-13187398D02*
X6700093Y-13206446D01*
X6700093Y-13206446D02*
X6700093Y-13263588D01*
X6700093Y-13263588D02*
X6690569Y-13282636D01*
X6690569Y-13282636D02*
X6681046Y-13292160D01*
X6681046Y-13292160D02*
X6661998Y-13301684D01*
X6661998Y-13301684D02*
X6623903Y-13301684D01*
X6623903Y-13301684D02*
X6604855Y-13292160D01*
X6785808Y-13282636D02*
X6795331Y-13292160D01*
X6795331Y-13292160D02*
X6785808Y-13301684D01*
X6785808Y-13301684D02*
X6776284Y-13292160D01*
X6776284Y-13292160D02*
X6785808Y-13282636D01*
X6785808Y-13282636D02*
X6785808Y-13301684D01*
X6785808Y-13177874D02*
X6795331Y-13187398D01*
X6795331Y-13187398D02*
X6785808Y-13196922D01*
X6785808Y-13196922D02*
X6776284Y-13187398D01*
X6776284Y-13187398D02*
X6785808Y-13177874D01*
X6785808Y-13177874D02*
X6785808Y-13196922D01*
X4966760Y-13529160D02*
X5166760Y-13729160D01*
X5166760Y-13529160D02*
X4966760Y-13729160D01*
X5404855Y-13540731D02*
X5414379Y-13531208D01*
X5414379Y-13531208D02*
X5433427Y-13521684D01*
X5433427Y-13521684D02*
X5481046Y-13521684D01*
X5481046Y-13521684D02*
X5500093Y-13531208D01*
X5500093Y-13531208D02*
X5509617Y-13540731D01*
X5509617Y-13540731D02*
X5519141Y-13559779D01*
X5519141Y-13559779D02*
X5519141Y-13578827D01*
X5519141Y-13578827D02*
X5509617Y-13607398D01*
X5509617Y-13607398D02*
X5395331Y-13721684D01*
X5395331Y-13721684D02*
X5519141Y-13721684D01*
X5604855Y-13702636D02*
X5614379Y-13712160D01*
X5614379Y-13712160D02*
X5604855Y-13721684D01*
X5604855Y-13721684D02*
X5595331Y-13712160D01*
X5595331Y-13712160D02*
X5604855Y-13702636D01*
X5604855Y-13702636D02*
X5604855Y-13721684D01*
X5681046Y-13521684D02*
X5804855Y-13521684D01*
X5804855Y-13521684D02*
X5738188Y-13597874D01*
X5738188Y-13597874D02*
X5766760Y-13597874D01*
X5766760Y-13597874D02*
X5785808Y-13607398D01*
X5785808Y-13607398D02*
X5795331Y-13616922D01*
X5795331Y-13616922D02*
X5804855Y-13635969D01*
X5804855Y-13635969D02*
X5804855Y-13683588D01*
X5804855Y-13683588D02*
X5795331Y-13702636D01*
X5795331Y-13702636D02*
X5785808Y-13712160D01*
X5785808Y-13712160D02*
X5766760Y-13721684D01*
X5766760Y-13721684D02*
X5709617Y-13721684D01*
X5709617Y-13721684D02*
X5690569Y-13712160D01*
X5690569Y-13712160D02*
X5681046Y-13702636D01*
X5900093Y-13721684D02*
X5938188Y-13721684D01*
X5938188Y-13721684D02*
X5957236Y-13712160D01*
X5957236Y-13712160D02*
X5966760Y-13702636D01*
X5966760Y-13702636D02*
X5985808Y-13674065D01*
X5985808Y-13674065D02*
X5995331Y-13635969D01*
X5995331Y-13635969D02*
X5995331Y-13559779D01*
X5995331Y-13559779D02*
X5985808Y-13540731D01*
X5985808Y-13540731D02*
X5976284Y-13531208D01*
X5976284Y-13531208D02*
X5957236Y-13521684D01*
X5957236Y-13521684D02*
X5919141Y-13521684D01*
X5919141Y-13521684D02*
X5900093Y-13531208D01*
X5900093Y-13531208D02*
X5890569Y-13540731D01*
X5890569Y-13540731D02*
X5881046Y-13559779D01*
X5881046Y-13559779D02*
X5881046Y-13607398D01*
X5881046Y-13607398D02*
X5890569Y-13626446D01*
X5890569Y-13626446D02*
X5900093Y-13635969D01*
X5900093Y-13635969D02*
X5919141Y-13645493D01*
X5919141Y-13645493D02*
X5957236Y-13645493D01*
X5957236Y-13645493D02*
X5976284Y-13635969D01*
X5976284Y-13635969D02*
X5985808Y-13626446D01*
X5985808Y-13626446D02*
X5995331Y-13607398D01*
X6119141Y-13521684D02*
X6138189Y-13521684D01*
X6138189Y-13521684D02*
X6157236Y-13531208D01*
X6157236Y-13531208D02*
X6166760Y-13540731D01*
X6166760Y-13540731D02*
X6176284Y-13559779D01*
X6176284Y-13559779D02*
X6185808Y-13597874D01*
X6185808Y-13597874D02*
X6185808Y-13645493D01*
X6185808Y-13645493D02*
X6176284Y-13683588D01*
X6176284Y-13683588D02*
X6166760Y-13702636D01*
X6166760Y-13702636D02*
X6157236Y-13712160D01*
X6157236Y-13712160D02*
X6138189Y-13721684D01*
X6138189Y-13721684D02*
X6119141Y-13721684D01*
X6119141Y-13721684D02*
X6100093Y-13712160D01*
X6100093Y-13712160D02*
X6090569Y-13702636D01*
X6090569Y-13702636D02*
X6081046Y-13683588D01*
X6081046Y-13683588D02*
X6071522Y-13645493D01*
X6071522Y-13645493D02*
X6071522Y-13597874D01*
X6071522Y-13597874D02*
X6081046Y-13559779D01*
X6081046Y-13559779D02*
X6090569Y-13540731D01*
X6090569Y-13540731D02*
X6100093Y-13531208D01*
X6100093Y-13531208D02*
X6119141Y-13521684D01*
X6271522Y-13721684D02*
X6271522Y-13588350D01*
X6271522Y-13607398D02*
X6281046Y-13597874D01*
X6281046Y-13597874D02*
X6300093Y-13588350D01*
X6300093Y-13588350D02*
X6328665Y-13588350D01*
X6328665Y-13588350D02*
X6347712Y-13597874D01*
X6347712Y-13597874D02*
X6357236Y-13616922D01*
X6357236Y-13616922D02*
X6357236Y-13721684D01*
X6357236Y-13616922D02*
X6366760Y-13597874D01*
X6366760Y-13597874D02*
X6385808Y-13588350D01*
X6385808Y-13588350D02*
X6414379Y-13588350D01*
X6414379Y-13588350D02*
X6433427Y-13597874D01*
X6433427Y-13597874D02*
X6442950Y-13616922D01*
X6442950Y-13616922D02*
X6442950Y-13721684D01*
X6538189Y-13721684D02*
X6538189Y-13588350D01*
X6538189Y-13607398D02*
X6547712Y-13597874D01*
X6547712Y-13597874D02*
X6566760Y-13588350D01*
X6566760Y-13588350D02*
X6595331Y-13588350D01*
X6595331Y-13588350D02*
X6614379Y-13597874D01*
X6614379Y-13597874D02*
X6623903Y-13616922D01*
X6623903Y-13616922D02*
X6623903Y-13721684D01*
X6623903Y-13616922D02*
X6633427Y-13597874D01*
X6633427Y-13597874D02*
X6652474Y-13588350D01*
X6652474Y-13588350D02*
X6681046Y-13588350D01*
X6681046Y-13588350D02*
X6700093Y-13597874D01*
X6700093Y-13597874D02*
X6709617Y-13616922D01*
X6709617Y-13616922D02*
X6709617Y-13721684D01*
X7100093Y-13512160D02*
X6928665Y-13769303D01*
X7357236Y-13521684D02*
X7376284Y-13521684D01*
X7376284Y-13521684D02*
X7395332Y-13531208D01*
X7395332Y-13531208D02*
X7404855Y-13540731D01*
X7404855Y-13540731D02*
X7414379Y-13559779D01*
X7414379Y-13559779D02*
X7423903Y-13597874D01*
X7423903Y-13597874D02*
X7423903Y-13645493D01*
X7423903Y-13645493D02*
X7414379Y-13683588D01*
X7414379Y-13683588D02*
X7404855Y-13702636D01*
X7404855Y-13702636D02*
X7395332Y-13712160D01*
X7395332Y-13712160D02*
X7376284Y-13721684D01*
X7376284Y-13721684D02*
X7357236Y-13721684D01*
X7357236Y-13721684D02*
X7338189Y-13712160D01*
X7338189Y-13712160D02*
X7328665Y-13702636D01*
X7328665Y-13702636D02*
X7319141Y-13683588D01*
X7319141Y-13683588D02*
X7309617Y-13645493D01*
X7309617Y-13645493D02*
X7309617Y-13597874D01*
X7309617Y-13597874D02*
X7319141Y-13559779D01*
X7319141Y-13559779D02*
X7328665Y-13540731D01*
X7328665Y-13540731D02*
X7338189Y-13531208D01*
X7338189Y-13531208D02*
X7357236Y-13521684D01*
X7509617Y-13702636D02*
X7519141Y-13712160D01*
X7519141Y-13712160D02*
X7509617Y-13721684D01*
X7509617Y-13721684D02*
X7500093Y-13712160D01*
X7500093Y-13712160D02*
X7509617Y-13702636D01*
X7509617Y-13702636D02*
X7509617Y-13721684D01*
X7642951Y-13521684D02*
X7661998Y-13521684D01*
X7661998Y-13521684D02*
X7681046Y-13531208D01*
X7681046Y-13531208D02*
X7690570Y-13540731D01*
X7690570Y-13540731D02*
X7700093Y-13559779D01*
X7700093Y-13559779D02*
X7709617Y-13597874D01*
X7709617Y-13597874D02*
X7709617Y-13645493D01*
X7709617Y-13645493D02*
X7700093Y-13683588D01*
X7700093Y-13683588D02*
X7690570Y-13702636D01*
X7690570Y-13702636D02*
X7681046Y-13712160D01*
X7681046Y-13712160D02*
X7661998Y-13721684D01*
X7661998Y-13721684D02*
X7642951Y-13721684D01*
X7642951Y-13721684D02*
X7623903Y-13712160D01*
X7623903Y-13712160D02*
X7614379Y-13702636D01*
X7614379Y-13702636D02*
X7604855Y-13683588D01*
X7604855Y-13683588D02*
X7595332Y-13645493D01*
X7595332Y-13645493D02*
X7595332Y-13597874D01*
X7595332Y-13597874D02*
X7604855Y-13559779D01*
X7604855Y-13559779D02*
X7614379Y-13540731D01*
X7614379Y-13540731D02*
X7623903Y-13531208D01*
X7623903Y-13531208D02*
X7642951Y-13521684D01*
X7804855Y-13721684D02*
X7842951Y-13721684D01*
X7842951Y-13721684D02*
X7861998Y-13712160D01*
X7861998Y-13712160D02*
X7871522Y-13702636D01*
X7871522Y-13702636D02*
X7890570Y-13674065D01*
X7890570Y-13674065D02*
X7900093Y-13635969D01*
X7900093Y-13635969D02*
X7900093Y-13559779D01*
X7900093Y-13559779D02*
X7890570Y-13540731D01*
X7890570Y-13540731D02*
X7881046Y-13531208D01*
X7881046Y-13531208D02*
X7861998Y-13521684D01*
X7861998Y-13521684D02*
X7823903Y-13521684D01*
X7823903Y-13521684D02*
X7804855Y-13531208D01*
X7804855Y-13531208D02*
X7795332Y-13540731D01*
X7795332Y-13540731D02*
X7785808Y-13559779D01*
X7785808Y-13559779D02*
X7785808Y-13607398D01*
X7785808Y-13607398D02*
X7795332Y-13626446D01*
X7795332Y-13626446D02*
X7804855Y-13635969D01*
X7804855Y-13635969D02*
X7823903Y-13645493D01*
X7823903Y-13645493D02*
X7861998Y-13645493D01*
X7861998Y-13645493D02*
X7881046Y-13635969D01*
X7881046Y-13635969D02*
X7890570Y-13626446D01*
X7890570Y-13626446D02*
X7900093Y-13607398D01*
X8071522Y-13588350D02*
X8071522Y-13721684D01*
X8023903Y-13512160D02*
X7976284Y-13655017D01*
X7976284Y-13655017D02*
X8100093Y-13655017D01*
X8281046Y-13721684D02*
X8166760Y-13721684D01*
X8223903Y-13721684D02*
X8223903Y-13521684D01*
X8223903Y-13521684D02*
X8204855Y-13550255D01*
X8204855Y-13550255D02*
X8185808Y-13569303D01*
X8185808Y-13569303D02*
X8166760Y-13578827D01*
X8357236Y-13521684D02*
X8357236Y-13559779D01*
X8433427Y-13521684D02*
X8433427Y-13559779D01*
X8728665Y-13797874D02*
X8719141Y-13788350D01*
X8719141Y-13788350D02*
X8700094Y-13759779D01*
X8700094Y-13759779D02*
X8690570Y-13740731D01*
X8690570Y-13740731D02*
X8681046Y-13712160D01*
X8681046Y-13712160D02*
X8671522Y-13664541D01*
X8671522Y-13664541D02*
X8671522Y-13626446D01*
X8671522Y-13626446D02*
X8681046Y-13578827D01*
X8681046Y-13578827D02*
X8690570Y-13550255D01*
X8690570Y-13550255D02*
X8700094Y-13531208D01*
X8700094Y-13531208D02*
X8719141Y-13502636D01*
X8719141Y-13502636D02*
X8728665Y-13493112D01*
X8909617Y-13721684D02*
X8795332Y-13721684D01*
X8852475Y-13721684D02*
X8852475Y-13521684D01*
X8852475Y-13521684D02*
X8833427Y-13550255D01*
X8833427Y-13550255D02*
X8814379Y-13569303D01*
X8814379Y-13569303D02*
X8795332Y-13578827D01*
X9147713Y-13721684D02*
X9147713Y-13521684D01*
X9233427Y-13721684D02*
X9233427Y-13616922D01*
X9233427Y-13616922D02*
X9223903Y-13597874D01*
X9223903Y-13597874D02*
X9204856Y-13588350D01*
X9204856Y-13588350D02*
X9176284Y-13588350D01*
X9176284Y-13588350D02*
X9157237Y-13597874D01*
X9157237Y-13597874D02*
X9147713Y-13607398D01*
X9357237Y-13721684D02*
X9338189Y-13712160D01*
X9338189Y-13712160D02*
X9328665Y-13702636D01*
X9328665Y-13702636D02*
X9319141Y-13683588D01*
X9319141Y-13683588D02*
X9319141Y-13626446D01*
X9319141Y-13626446D02*
X9328665Y-13607398D01*
X9328665Y-13607398D02*
X9338189Y-13597874D01*
X9338189Y-13597874D02*
X9357237Y-13588350D01*
X9357237Y-13588350D02*
X9385808Y-13588350D01*
X9385808Y-13588350D02*
X9404856Y-13597874D01*
X9404856Y-13597874D02*
X9414379Y-13607398D01*
X9414379Y-13607398D02*
X9423903Y-13626446D01*
X9423903Y-13626446D02*
X9423903Y-13683588D01*
X9423903Y-13683588D02*
X9414379Y-13702636D01*
X9414379Y-13702636D02*
X9404856Y-13712160D01*
X9404856Y-13712160D02*
X9385808Y-13721684D01*
X9385808Y-13721684D02*
X9357237Y-13721684D01*
X9538189Y-13721684D02*
X9519141Y-13712160D01*
X9519141Y-13712160D02*
X9509618Y-13693112D01*
X9509618Y-13693112D02*
X9509618Y-13521684D01*
X9690570Y-13712160D02*
X9671522Y-13721684D01*
X9671522Y-13721684D02*
X9633427Y-13721684D01*
X9633427Y-13721684D02*
X9614379Y-13712160D01*
X9614379Y-13712160D02*
X9604856Y-13693112D01*
X9604856Y-13693112D02*
X9604856Y-13616922D01*
X9604856Y-13616922D02*
X9614379Y-13597874D01*
X9614379Y-13597874D02*
X9633427Y-13588350D01*
X9633427Y-13588350D02*
X9671522Y-13588350D01*
X9671522Y-13588350D02*
X9690570Y-13597874D01*
X9690570Y-13597874D02*
X9700094Y-13616922D01*
X9700094Y-13616922D02*
X9700094Y-13635969D01*
X9700094Y-13635969D02*
X9604856Y-13655017D01*
X9766760Y-13797874D02*
X9776284Y-13788350D01*
X9776284Y-13788350D02*
X9795332Y-13759779D01*
X9795332Y-13759779D02*
X9804856Y-13740731D01*
X9804856Y-13740731D02*
X9814379Y-13712160D01*
X9814379Y-13712160D02*
X9823903Y-13664541D01*
X9823903Y-13664541D02*
X9823903Y-13626446D01*
X9823903Y-13626446D02*
X9814379Y-13578827D01*
X9814379Y-13578827D02*
X9804856Y-13550255D01*
X9804856Y-13550255D02*
X9795332Y-13531208D01*
X9795332Y-13531208D02*
X9776284Y-13502636D01*
X9776284Y-13502636D02*
X9766760Y-13493112D01*
X10128665Y-13797874D02*
X10119141Y-13788350D01*
X10119141Y-13788350D02*
X10100094Y-13759779D01*
X10100094Y-13759779D02*
X10090570Y-13740731D01*
X10090570Y-13740731D02*
X10081046Y-13712160D01*
X10081046Y-13712160D02*
X10071522Y-13664541D01*
X10071522Y-13664541D02*
X10071522Y-13626446D01*
X10071522Y-13626446D02*
X10081046Y-13578827D01*
X10081046Y-13578827D02*
X10090570Y-13550255D01*
X10090570Y-13550255D02*
X10100094Y-13531208D01*
X10100094Y-13531208D02*
X10119141Y-13502636D01*
X10119141Y-13502636D02*
X10128665Y-13493112D01*
X10204856Y-13588350D02*
X10204856Y-13721684D01*
X10204856Y-13607398D02*
X10214379Y-13597874D01*
X10214379Y-13597874D02*
X10233427Y-13588350D01*
X10233427Y-13588350D02*
X10261999Y-13588350D01*
X10261999Y-13588350D02*
X10281046Y-13597874D01*
X10281046Y-13597874D02*
X10290570Y-13616922D01*
X10290570Y-13616922D02*
X10290570Y-13721684D01*
X10414379Y-13721684D02*
X10395332Y-13712160D01*
X10395332Y-13712160D02*
X10385808Y-13702636D01*
X10385808Y-13702636D02*
X10376284Y-13683588D01*
X10376284Y-13683588D02*
X10376284Y-13626446D01*
X10376284Y-13626446D02*
X10385808Y-13607398D01*
X10385808Y-13607398D02*
X10395332Y-13597874D01*
X10395332Y-13597874D02*
X10414379Y-13588350D01*
X10414379Y-13588350D02*
X10442951Y-13588350D01*
X10442951Y-13588350D02*
X10461999Y-13597874D01*
X10461999Y-13597874D02*
X10471522Y-13607398D01*
X10471522Y-13607398D02*
X10481046Y-13626446D01*
X10481046Y-13626446D02*
X10481046Y-13683588D01*
X10481046Y-13683588D02*
X10471522Y-13702636D01*
X10471522Y-13702636D02*
X10461999Y-13712160D01*
X10461999Y-13712160D02*
X10442951Y-13721684D01*
X10442951Y-13721684D02*
X10414379Y-13721684D01*
X10538189Y-13588350D02*
X10614379Y-13588350D01*
X10566760Y-13521684D02*
X10566760Y-13693112D01*
X10566760Y-13693112D02*
X10576284Y-13712160D01*
X10576284Y-13712160D02*
X10595332Y-13721684D01*
X10595332Y-13721684D02*
X10614379Y-13721684D01*
X10833427Y-13588350D02*
X10833427Y-13788350D01*
X10833427Y-13597874D02*
X10852475Y-13588350D01*
X10852475Y-13588350D02*
X10890570Y-13588350D01*
X10890570Y-13588350D02*
X10909618Y-13597874D01*
X10909618Y-13597874D02*
X10919141Y-13607398D01*
X10919141Y-13607398D02*
X10928665Y-13626446D01*
X10928665Y-13626446D02*
X10928665Y-13683588D01*
X10928665Y-13683588D02*
X10919141Y-13702636D01*
X10919141Y-13702636D02*
X10909618Y-13712160D01*
X10909618Y-13712160D02*
X10890570Y-13721684D01*
X10890570Y-13721684D02*
X10852475Y-13721684D01*
X10852475Y-13721684D02*
X10833427Y-13712160D01*
X11042951Y-13721684D02*
X11023903Y-13712160D01*
X11023903Y-13712160D02*
X11014380Y-13693112D01*
X11014380Y-13693112D02*
X11014380Y-13521684D01*
X11204856Y-13721684D02*
X11204856Y-13616922D01*
X11204856Y-13616922D02*
X11195332Y-13597874D01*
X11195332Y-13597874D02*
X11176284Y-13588350D01*
X11176284Y-13588350D02*
X11138189Y-13588350D01*
X11138189Y-13588350D02*
X11119141Y-13597874D01*
X11204856Y-13712160D02*
X11185808Y-13721684D01*
X11185808Y-13721684D02*
X11138189Y-13721684D01*
X11138189Y-13721684D02*
X11119141Y-13712160D01*
X11119141Y-13712160D02*
X11109618Y-13693112D01*
X11109618Y-13693112D02*
X11109618Y-13674065D01*
X11109618Y-13674065D02*
X11119141Y-13655017D01*
X11119141Y-13655017D02*
X11138189Y-13645493D01*
X11138189Y-13645493D02*
X11185808Y-13645493D01*
X11185808Y-13645493D02*
X11204856Y-13635969D01*
X11271522Y-13588350D02*
X11347713Y-13588350D01*
X11300094Y-13521684D02*
X11300094Y-13693112D01*
X11300094Y-13693112D02*
X11309618Y-13712160D01*
X11309618Y-13712160D02*
X11328665Y-13721684D01*
X11328665Y-13721684D02*
X11347713Y-13721684D01*
X11490570Y-13712160D02*
X11471522Y-13721684D01*
X11471522Y-13721684D02*
X11433427Y-13721684D01*
X11433427Y-13721684D02*
X11414379Y-13712160D01*
X11414379Y-13712160D02*
X11404856Y-13693112D01*
X11404856Y-13693112D02*
X11404856Y-13616922D01*
X11404856Y-13616922D02*
X11414379Y-13597874D01*
X11414379Y-13597874D02*
X11433427Y-13588350D01*
X11433427Y-13588350D02*
X11471522Y-13588350D01*
X11471522Y-13588350D02*
X11490570Y-13597874D01*
X11490570Y-13597874D02*
X11500094Y-13616922D01*
X11500094Y-13616922D02*
X11500094Y-13635969D01*
X11500094Y-13635969D02*
X11404856Y-13655017D01*
X11671522Y-13721684D02*
X11671522Y-13521684D01*
X11671522Y-13712160D02*
X11652475Y-13721684D01*
X11652475Y-13721684D02*
X11614379Y-13721684D01*
X11614379Y-13721684D02*
X11595332Y-13712160D01*
X11595332Y-13712160D02*
X11585808Y-13702636D01*
X11585808Y-13702636D02*
X11576284Y-13683588D01*
X11576284Y-13683588D02*
X11576284Y-13626446D01*
X11576284Y-13626446D02*
X11585808Y-13607398D01*
X11585808Y-13607398D02*
X11595332Y-13597874D01*
X11595332Y-13597874D02*
X11614379Y-13588350D01*
X11614379Y-13588350D02*
X11652475Y-13588350D01*
X11652475Y-13588350D02*
X11671522Y-13597874D01*
X11747713Y-13797874D02*
X11757237Y-13788350D01*
X11757237Y-13788350D02*
X11776284Y-13759779D01*
X11776284Y-13759779D02*
X11785808Y-13740731D01*
X11785808Y-13740731D02*
X11795332Y-13712160D01*
X11795332Y-13712160D02*
X11804856Y-13664541D01*
X11804856Y-13664541D02*
X11804856Y-13626446D01*
X11804856Y-13626446D02*
X11795332Y-13578827D01*
X11795332Y-13578827D02*
X11785808Y-13550255D01*
X11785808Y-13550255D02*
X11776284Y-13531208D01*
X11776284Y-13531208D02*
X11757237Y-13502636D01*
X11757237Y-13502636D02*
X11747713Y-13493112D01*
X5166760Y-13949160D02*
G75*
G03*
X5166760Y-13949160I-100000J0D01*
G01*
X5395331Y-13841684D02*
X5519141Y-13841684D01*
X5519141Y-13841684D02*
X5452474Y-13917874D01*
X5452474Y-13917874D02*
X5481046Y-13917874D01*
X5481046Y-13917874D02*
X5500093Y-13927398D01*
X5500093Y-13927398D02*
X5509617Y-13936922D01*
X5509617Y-13936922D02*
X5519141Y-13955969D01*
X5519141Y-13955969D02*
X5519141Y-14003588D01*
X5519141Y-14003588D02*
X5509617Y-14022636D01*
X5509617Y-14022636D02*
X5500093Y-14032160D01*
X5500093Y-14032160D02*
X5481046Y-14041684D01*
X5481046Y-14041684D02*
X5423903Y-14041684D01*
X5423903Y-14041684D02*
X5404855Y-14032160D01*
X5404855Y-14032160D02*
X5395331Y-14022636D01*
X5604855Y-14022636D02*
X5614379Y-14032160D01*
X5614379Y-14032160D02*
X5604855Y-14041684D01*
X5604855Y-14041684D02*
X5595331Y-14032160D01*
X5595331Y-14032160D02*
X5604855Y-14022636D01*
X5604855Y-14022636D02*
X5604855Y-14041684D01*
X5785808Y-13908350D02*
X5785808Y-14041684D01*
X5738188Y-13832160D02*
X5690569Y-13975017D01*
X5690569Y-13975017D02*
X5814379Y-13975017D01*
X5985808Y-13841684D02*
X5890569Y-13841684D01*
X5890569Y-13841684D02*
X5881046Y-13936922D01*
X5881046Y-13936922D02*
X5890569Y-13927398D01*
X5890569Y-13927398D02*
X5909617Y-13917874D01*
X5909617Y-13917874D02*
X5957236Y-13917874D01*
X5957236Y-13917874D02*
X5976284Y-13927398D01*
X5976284Y-13927398D02*
X5985808Y-13936922D01*
X5985808Y-13936922D02*
X5995331Y-13955969D01*
X5995331Y-13955969D02*
X5995331Y-14003588D01*
X5995331Y-14003588D02*
X5985808Y-14022636D01*
X5985808Y-14022636D02*
X5976284Y-14032160D01*
X5976284Y-14032160D02*
X5957236Y-14041684D01*
X5957236Y-14041684D02*
X5909617Y-14041684D01*
X5909617Y-14041684D02*
X5890569Y-14032160D01*
X5890569Y-14032160D02*
X5881046Y-14022636D01*
X6119141Y-13841684D02*
X6138189Y-13841684D01*
X6138189Y-13841684D02*
X6157236Y-13851208D01*
X6157236Y-13851208D02*
X6166760Y-13860731D01*
X6166760Y-13860731D02*
X6176284Y-13879779D01*
X6176284Y-13879779D02*
X6185808Y-13917874D01*
X6185808Y-13917874D02*
X6185808Y-13965493D01*
X6185808Y-13965493D02*
X6176284Y-14003588D01*
X6176284Y-14003588D02*
X6166760Y-14022636D01*
X6166760Y-14022636D02*
X6157236Y-14032160D01*
X6157236Y-14032160D02*
X6138189Y-14041684D01*
X6138189Y-14041684D02*
X6119141Y-14041684D01*
X6119141Y-14041684D02*
X6100093Y-14032160D01*
X6100093Y-14032160D02*
X6090569Y-14022636D01*
X6090569Y-14022636D02*
X6081046Y-14003588D01*
X6081046Y-14003588D02*
X6071522Y-13965493D01*
X6071522Y-13965493D02*
X6071522Y-13917874D01*
X6071522Y-13917874D02*
X6081046Y-13879779D01*
X6081046Y-13879779D02*
X6090569Y-13860731D01*
X6090569Y-13860731D02*
X6100093Y-13851208D01*
X6100093Y-13851208D02*
X6119141Y-13841684D01*
X6271522Y-14041684D02*
X6271522Y-13908350D01*
X6271522Y-13927398D02*
X6281046Y-13917874D01*
X6281046Y-13917874D02*
X6300093Y-13908350D01*
X6300093Y-13908350D02*
X6328665Y-13908350D01*
X6328665Y-13908350D02*
X6347712Y-13917874D01*
X6347712Y-13917874D02*
X6357236Y-13936922D01*
X6357236Y-13936922D02*
X6357236Y-14041684D01*
X6357236Y-13936922D02*
X6366760Y-13917874D01*
X6366760Y-13917874D02*
X6385808Y-13908350D01*
X6385808Y-13908350D02*
X6414379Y-13908350D01*
X6414379Y-13908350D02*
X6433427Y-13917874D01*
X6433427Y-13917874D02*
X6442950Y-13936922D01*
X6442950Y-13936922D02*
X6442950Y-14041684D01*
X6538189Y-14041684D02*
X6538189Y-13908350D01*
X6538189Y-13927398D02*
X6547712Y-13917874D01*
X6547712Y-13917874D02*
X6566760Y-13908350D01*
X6566760Y-13908350D02*
X6595331Y-13908350D01*
X6595331Y-13908350D02*
X6614379Y-13917874D01*
X6614379Y-13917874D02*
X6623903Y-13936922D01*
X6623903Y-13936922D02*
X6623903Y-14041684D01*
X6623903Y-13936922D02*
X6633427Y-13917874D01*
X6633427Y-13917874D02*
X6652474Y-13908350D01*
X6652474Y-13908350D02*
X6681046Y-13908350D01*
X6681046Y-13908350D02*
X6700093Y-13917874D01*
X6700093Y-13917874D02*
X6709617Y-13936922D01*
X6709617Y-13936922D02*
X6709617Y-14041684D01*
X7100093Y-13832160D02*
X6928665Y-14089303D01*
X7357236Y-13841684D02*
X7376284Y-13841684D01*
X7376284Y-13841684D02*
X7395332Y-13851208D01*
X7395332Y-13851208D02*
X7404855Y-13860731D01*
X7404855Y-13860731D02*
X7414379Y-13879779D01*
X7414379Y-13879779D02*
X7423903Y-13917874D01*
X7423903Y-13917874D02*
X7423903Y-13965493D01*
X7423903Y-13965493D02*
X7414379Y-14003588D01*
X7414379Y-14003588D02*
X7404855Y-14022636D01*
X7404855Y-14022636D02*
X7395332Y-14032160D01*
X7395332Y-14032160D02*
X7376284Y-14041684D01*
X7376284Y-14041684D02*
X7357236Y-14041684D01*
X7357236Y-14041684D02*
X7338189Y-14032160D01*
X7338189Y-14032160D02*
X7328665Y-14022636D01*
X7328665Y-14022636D02*
X7319141Y-14003588D01*
X7319141Y-14003588D02*
X7309617Y-13965493D01*
X7309617Y-13965493D02*
X7309617Y-13917874D01*
X7309617Y-13917874D02*
X7319141Y-13879779D01*
X7319141Y-13879779D02*
X7328665Y-13860731D01*
X7328665Y-13860731D02*
X7338189Y-13851208D01*
X7338189Y-13851208D02*
X7357236Y-13841684D01*
X7509617Y-14022636D02*
X7519141Y-14032160D01*
X7519141Y-14032160D02*
X7509617Y-14041684D01*
X7509617Y-14041684D02*
X7500093Y-14032160D01*
X7500093Y-14032160D02*
X7509617Y-14022636D01*
X7509617Y-14022636D02*
X7509617Y-14041684D01*
X7709617Y-14041684D02*
X7595332Y-14041684D01*
X7652474Y-14041684D02*
X7652474Y-13841684D01*
X7652474Y-13841684D02*
X7633427Y-13870255D01*
X7633427Y-13870255D02*
X7614379Y-13889303D01*
X7614379Y-13889303D02*
X7595332Y-13898827D01*
X7776284Y-13841684D02*
X7900093Y-13841684D01*
X7900093Y-13841684D02*
X7833427Y-13917874D01*
X7833427Y-13917874D02*
X7861998Y-13917874D01*
X7861998Y-13917874D02*
X7881046Y-13927398D01*
X7881046Y-13927398D02*
X7890570Y-13936922D01*
X7890570Y-13936922D02*
X7900093Y-13955969D01*
X7900093Y-13955969D02*
X7900093Y-14003588D01*
X7900093Y-14003588D02*
X7890570Y-14022636D01*
X7890570Y-14022636D02*
X7881046Y-14032160D01*
X7881046Y-14032160D02*
X7861998Y-14041684D01*
X7861998Y-14041684D02*
X7804855Y-14041684D01*
X7804855Y-14041684D02*
X7785808Y-14032160D01*
X7785808Y-14032160D02*
X7776284Y-14022636D01*
X8081046Y-13841684D02*
X7985808Y-13841684D01*
X7985808Y-13841684D02*
X7976284Y-13936922D01*
X7976284Y-13936922D02*
X7985808Y-13927398D01*
X7985808Y-13927398D02*
X8004855Y-13917874D01*
X8004855Y-13917874D02*
X8052474Y-13917874D01*
X8052474Y-13917874D02*
X8071522Y-13927398D01*
X8071522Y-13927398D02*
X8081046Y-13936922D01*
X8081046Y-13936922D02*
X8090570Y-13955969D01*
X8090570Y-13955969D02*
X8090570Y-14003588D01*
X8090570Y-14003588D02*
X8081046Y-14022636D01*
X8081046Y-14022636D02*
X8071522Y-14032160D01*
X8071522Y-14032160D02*
X8052474Y-14041684D01*
X8052474Y-14041684D02*
X8004855Y-14041684D01*
X8004855Y-14041684D02*
X7985808Y-14032160D01*
X7985808Y-14032160D02*
X7976284Y-14022636D01*
X8204855Y-13927398D02*
X8185808Y-13917874D01*
X8185808Y-13917874D02*
X8176284Y-13908350D01*
X8176284Y-13908350D02*
X8166760Y-13889303D01*
X8166760Y-13889303D02*
X8166760Y-13879779D01*
X8166760Y-13879779D02*
X8176284Y-13860731D01*
X8176284Y-13860731D02*
X8185808Y-13851208D01*
X8185808Y-13851208D02*
X8204855Y-13841684D01*
X8204855Y-13841684D02*
X8242951Y-13841684D01*
X8242951Y-13841684D02*
X8261998Y-13851208D01*
X8261998Y-13851208D02*
X8271522Y-13860731D01*
X8271522Y-13860731D02*
X8281046Y-13879779D01*
X8281046Y-13879779D02*
X8281046Y-13889303D01*
X8281046Y-13889303D02*
X8271522Y-13908350D01*
X8271522Y-13908350D02*
X8261998Y-13917874D01*
X8261998Y-13917874D02*
X8242951Y-13927398D01*
X8242951Y-13927398D02*
X8204855Y-13927398D01*
X8204855Y-13927398D02*
X8185808Y-13936922D01*
X8185808Y-13936922D02*
X8176284Y-13946446D01*
X8176284Y-13946446D02*
X8166760Y-13965493D01*
X8166760Y-13965493D02*
X8166760Y-14003588D01*
X8166760Y-14003588D02*
X8176284Y-14022636D01*
X8176284Y-14022636D02*
X8185808Y-14032160D01*
X8185808Y-14032160D02*
X8204855Y-14041684D01*
X8204855Y-14041684D02*
X8242951Y-14041684D01*
X8242951Y-14041684D02*
X8261998Y-14032160D01*
X8261998Y-14032160D02*
X8271522Y-14022636D01*
X8271522Y-14022636D02*
X8281046Y-14003588D01*
X8281046Y-14003588D02*
X8281046Y-13965493D01*
X8281046Y-13965493D02*
X8271522Y-13946446D01*
X8271522Y-13946446D02*
X8261998Y-13936922D01*
X8261998Y-13936922D02*
X8242951Y-13927398D01*
X8357236Y-13841684D02*
X8357236Y-13879779D01*
X8433427Y-13841684D02*
X8433427Y-13879779D01*
X8728665Y-14117874D02*
X8719141Y-14108350D01*
X8719141Y-14108350D02*
X8700094Y-14079779D01*
X8700094Y-14079779D02*
X8690570Y-14060731D01*
X8690570Y-14060731D02*
X8681046Y-14032160D01*
X8681046Y-14032160D02*
X8671522Y-13984541D01*
X8671522Y-13984541D02*
X8671522Y-13946446D01*
X8671522Y-13946446D02*
X8681046Y-13898827D01*
X8681046Y-13898827D02*
X8690570Y-13870255D01*
X8690570Y-13870255D02*
X8700094Y-13851208D01*
X8700094Y-13851208D02*
X8719141Y-13822636D01*
X8719141Y-13822636D02*
X8728665Y-13813112D01*
X8795332Y-13860731D02*
X8804856Y-13851208D01*
X8804856Y-13851208D02*
X8823903Y-13841684D01*
X8823903Y-13841684D02*
X8871522Y-13841684D01*
X8871522Y-13841684D02*
X8890570Y-13851208D01*
X8890570Y-13851208D02*
X8900094Y-13860731D01*
X8900094Y-13860731D02*
X8909617Y-13879779D01*
X8909617Y-13879779D02*
X8909617Y-13898827D01*
X8909617Y-13898827D02*
X8900094Y-13927398D01*
X8900094Y-13927398D02*
X8785808Y-14041684D01*
X8785808Y-14041684D02*
X8909617Y-14041684D01*
X9147713Y-14041684D02*
X9147713Y-13841684D01*
X9233427Y-14041684D02*
X9233427Y-13936922D01*
X9233427Y-13936922D02*
X9223903Y-13917874D01*
X9223903Y-13917874D02*
X9204856Y-13908350D01*
X9204856Y-13908350D02*
X9176284Y-13908350D01*
X9176284Y-13908350D02*
X9157237Y-13917874D01*
X9157237Y-13917874D02*
X9147713Y-13927398D01*
X9357237Y-14041684D02*
X9338189Y-14032160D01*
X9338189Y-14032160D02*
X9328665Y-14022636D01*
X9328665Y-14022636D02*
X9319141Y-14003588D01*
X9319141Y-14003588D02*
X9319141Y-13946446D01*
X9319141Y-13946446D02*
X9328665Y-13927398D01*
X9328665Y-13927398D02*
X9338189Y-13917874D01*
X9338189Y-13917874D02*
X9357237Y-13908350D01*
X9357237Y-13908350D02*
X9385808Y-13908350D01*
X9385808Y-13908350D02*
X9404856Y-13917874D01*
X9404856Y-13917874D02*
X9414379Y-13927398D01*
X9414379Y-13927398D02*
X9423903Y-13946446D01*
X9423903Y-13946446D02*
X9423903Y-14003588D01*
X9423903Y-14003588D02*
X9414379Y-14022636D01*
X9414379Y-14022636D02*
X9404856Y-14032160D01*
X9404856Y-14032160D02*
X9385808Y-14041684D01*
X9385808Y-14041684D02*
X9357237Y-14041684D01*
X9538189Y-14041684D02*
X9519141Y-14032160D01*
X9519141Y-14032160D02*
X9509618Y-14013112D01*
X9509618Y-14013112D02*
X9509618Y-13841684D01*
X9690570Y-14032160D02*
X9671522Y-14041684D01*
X9671522Y-14041684D02*
X9633427Y-14041684D01*
X9633427Y-14041684D02*
X9614379Y-14032160D01*
X9614379Y-14032160D02*
X9604856Y-14013112D01*
X9604856Y-14013112D02*
X9604856Y-13936922D01*
X9604856Y-13936922D02*
X9614379Y-13917874D01*
X9614379Y-13917874D02*
X9633427Y-13908350D01*
X9633427Y-13908350D02*
X9671522Y-13908350D01*
X9671522Y-13908350D02*
X9690570Y-13917874D01*
X9690570Y-13917874D02*
X9700094Y-13936922D01*
X9700094Y-13936922D02*
X9700094Y-13955969D01*
X9700094Y-13955969D02*
X9604856Y-13975017D01*
X9776284Y-14032160D02*
X9795332Y-14041684D01*
X9795332Y-14041684D02*
X9833427Y-14041684D01*
X9833427Y-14041684D02*
X9852475Y-14032160D01*
X9852475Y-14032160D02*
X9861999Y-14013112D01*
X9861999Y-14013112D02*
X9861999Y-14003588D01*
X9861999Y-14003588D02*
X9852475Y-13984541D01*
X9852475Y-13984541D02*
X9833427Y-13975017D01*
X9833427Y-13975017D02*
X9804856Y-13975017D01*
X9804856Y-13975017D02*
X9785808Y-13965493D01*
X9785808Y-13965493D02*
X9776284Y-13946446D01*
X9776284Y-13946446D02*
X9776284Y-13936922D01*
X9776284Y-13936922D02*
X9785808Y-13917874D01*
X9785808Y-13917874D02*
X9804856Y-13908350D01*
X9804856Y-13908350D02*
X9833427Y-13908350D01*
X9833427Y-13908350D02*
X9852475Y-13917874D01*
X9928665Y-14117874D02*
X9938189Y-14108350D01*
X9938189Y-14108350D02*
X9957237Y-14079779D01*
X9957237Y-14079779D02*
X9966760Y-14060731D01*
X9966760Y-14060731D02*
X9976284Y-14032160D01*
X9976284Y-14032160D02*
X9985808Y-13984541D01*
X9985808Y-13984541D02*
X9985808Y-13946446D01*
X9985808Y-13946446D02*
X9976284Y-13898827D01*
X9976284Y-13898827D02*
X9966760Y-13870255D01*
X9966760Y-13870255D02*
X9957237Y-13851208D01*
X9957237Y-13851208D02*
X9938189Y-13822636D01*
X9938189Y-13822636D02*
X9928665Y-13813112D01*
X10290570Y-14117874D02*
X10281046Y-14108350D01*
X10281046Y-14108350D02*
X10261999Y-14079779D01*
X10261999Y-14079779D02*
X10252475Y-14060731D01*
X10252475Y-14060731D02*
X10242951Y-14032160D01*
X10242951Y-14032160D02*
X10233427Y-13984541D01*
X10233427Y-13984541D02*
X10233427Y-13946446D01*
X10233427Y-13946446D02*
X10242951Y-13898827D01*
X10242951Y-13898827D02*
X10252475Y-13870255D01*
X10252475Y-13870255D02*
X10261999Y-13851208D01*
X10261999Y-13851208D02*
X10281046Y-13822636D01*
X10281046Y-13822636D02*
X10290570Y-13813112D01*
X10366760Y-13908350D02*
X10366760Y-14041684D01*
X10366760Y-13927398D02*
X10376284Y-13917874D01*
X10376284Y-13917874D02*
X10395332Y-13908350D01*
X10395332Y-13908350D02*
X10423903Y-13908350D01*
X10423903Y-13908350D02*
X10442951Y-13917874D01*
X10442951Y-13917874D02*
X10452475Y-13936922D01*
X10452475Y-13936922D02*
X10452475Y-14041684D01*
X10576284Y-14041684D02*
X10557237Y-14032160D01*
X10557237Y-14032160D02*
X10547713Y-14022636D01*
X10547713Y-14022636D02*
X10538189Y-14003588D01*
X10538189Y-14003588D02*
X10538189Y-13946446D01*
X10538189Y-13946446D02*
X10547713Y-13927398D01*
X10547713Y-13927398D02*
X10557237Y-13917874D01*
X10557237Y-13917874D02*
X10576284Y-13908350D01*
X10576284Y-13908350D02*
X10604856Y-13908350D01*
X10604856Y-13908350D02*
X10623903Y-13917874D01*
X10623903Y-13917874D02*
X10633427Y-13927398D01*
X10633427Y-13927398D02*
X10642951Y-13946446D01*
X10642951Y-13946446D02*
X10642951Y-14003588D01*
X10642951Y-14003588D02*
X10633427Y-14022636D01*
X10633427Y-14022636D02*
X10623903Y-14032160D01*
X10623903Y-14032160D02*
X10604856Y-14041684D01*
X10604856Y-14041684D02*
X10576284Y-14041684D01*
X10700094Y-13908350D02*
X10776284Y-13908350D01*
X10728665Y-13841684D02*
X10728665Y-14013112D01*
X10728665Y-14013112D02*
X10738189Y-14032160D01*
X10738189Y-14032160D02*
X10757237Y-14041684D01*
X10757237Y-14041684D02*
X10776284Y-14041684D01*
X10995332Y-13908350D02*
X10995332Y-14108350D01*
X10995332Y-13917874D02*
X11014380Y-13908350D01*
X11014380Y-13908350D02*
X11052475Y-13908350D01*
X11052475Y-13908350D02*
X11071522Y-13917874D01*
X11071522Y-13917874D02*
X11081046Y-13927398D01*
X11081046Y-13927398D02*
X11090570Y-13946446D01*
X11090570Y-13946446D02*
X11090570Y-14003588D01*
X11090570Y-14003588D02*
X11081046Y-14022636D01*
X11081046Y-14022636D02*
X11071522Y-14032160D01*
X11071522Y-14032160D02*
X11052475Y-14041684D01*
X11052475Y-14041684D02*
X11014380Y-14041684D01*
X11014380Y-14041684D02*
X10995332Y-14032160D01*
X11204856Y-14041684D02*
X11185808Y-14032160D01*
X11185808Y-14032160D02*
X11176284Y-14013112D01*
X11176284Y-14013112D02*
X11176284Y-13841684D01*
X11366760Y-14041684D02*
X11366760Y-13936922D01*
X11366760Y-13936922D02*
X11357237Y-13917874D01*
X11357237Y-13917874D02*
X11338189Y-13908350D01*
X11338189Y-13908350D02*
X11300094Y-13908350D01*
X11300094Y-13908350D02*
X11281046Y-13917874D01*
X11366760Y-14032160D02*
X11347713Y-14041684D01*
X11347713Y-14041684D02*
X11300094Y-14041684D01*
X11300094Y-14041684D02*
X11281046Y-14032160D01*
X11281046Y-14032160D02*
X11271522Y-14013112D01*
X11271522Y-14013112D02*
X11271522Y-13994065D01*
X11271522Y-13994065D02*
X11281046Y-13975017D01*
X11281046Y-13975017D02*
X11300094Y-13965493D01*
X11300094Y-13965493D02*
X11347713Y-13965493D01*
X11347713Y-13965493D02*
X11366760Y-13955969D01*
X11433427Y-13908350D02*
X11509618Y-13908350D01*
X11461999Y-13841684D02*
X11461999Y-14013112D01*
X11461999Y-14013112D02*
X11471522Y-14032160D01*
X11471522Y-14032160D02*
X11490570Y-14041684D01*
X11490570Y-14041684D02*
X11509618Y-14041684D01*
X11652475Y-14032160D02*
X11633427Y-14041684D01*
X11633427Y-14041684D02*
X11595332Y-14041684D01*
X11595332Y-14041684D02*
X11576284Y-14032160D01*
X11576284Y-14032160D02*
X11566760Y-14013112D01*
X11566760Y-14013112D02*
X11566760Y-13936922D01*
X11566760Y-13936922D02*
X11576284Y-13917874D01*
X11576284Y-13917874D02*
X11595332Y-13908350D01*
X11595332Y-13908350D02*
X11633427Y-13908350D01*
X11633427Y-13908350D02*
X11652475Y-13917874D01*
X11652475Y-13917874D02*
X11661999Y-13936922D01*
X11661999Y-13936922D02*
X11661999Y-13955969D01*
X11661999Y-13955969D02*
X11566760Y-13975017D01*
X11833427Y-14041684D02*
X11833427Y-13841684D01*
X11833427Y-14032160D02*
X11814380Y-14041684D01*
X11814380Y-14041684D02*
X11776284Y-14041684D01*
X11776284Y-14041684D02*
X11757237Y-14032160D01*
X11757237Y-14032160D02*
X11747713Y-14022636D01*
X11747713Y-14022636D02*
X11738189Y-14003588D01*
X11738189Y-14003588D02*
X11738189Y-13946446D01*
X11738189Y-13946446D02*
X11747713Y-13927398D01*
X11747713Y-13927398D02*
X11757237Y-13917874D01*
X11757237Y-13917874D02*
X11776284Y-13908350D01*
X11776284Y-13908350D02*
X11814380Y-13908350D01*
X11814380Y-13908350D02*
X11833427Y-13917874D01*
X11909618Y-14117874D02*
X11919141Y-14108350D01*
X11919141Y-14108350D02*
X11938189Y-14079779D01*
X11938189Y-14079779D02*
X11947713Y-14060731D01*
X11947713Y-14060731D02*
X11957237Y-14032160D01*
X11957237Y-14032160D02*
X11966760Y-13984541D01*
X11966760Y-13984541D02*
X11966760Y-13946446D01*
X11966760Y-13946446D02*
X11957237Y-13898827D01*
X11957237Y-13898827D02*
X11947713Y-13870255D01*
X11947713Y-13870255D02*
X11938189Y-13851208D01*
X11938189Y-13851208D02*
X11919141Y-13822636D01*
X11919141Y-13822636D02*
X11909618Y-13813112D01*
M02*
