%TF.GenerationSoftware,KiCad,Pcbnew,7.0.1*%
%TF.CreationDate,2023-05-16T20:26:06-05:00*%
%TF.ProjectId,SeneCurrent,53656e65-4375-4727-9265-6e742e6b6963,rev?*%
%TF.SameCoordinates,Original*%
%TF.FileFunction,Copper,L1,Top*%
%TF.FilePolarity,Positive*%
%FSLAX46Y46*%
G04 Gerber Fmt 4.6, Leading zero omitted, Abs format (unit mm)*
G04 Created by KiCad (PCBNEW 7.0.1) date 2023-05-16 20:26:06*
%MOMM*%
%LPD*%
G01*
G04 APERTURE LIST*
G04 Aperture macros list*
%AMRoundRect*
0 Rectangle with rounded corners*
0 $1 Rounding radius*
0 $2 $3 $4 $5 $6 $7 $8 $9 X,Y pos of 4 corners*
0 Add a 4 corners polygon primitive as box body*
4,1,4,$2,$3,$4,$5,$6,$7,$8,$9,$2,$3,0*
0 Add four circle primitives for the rounded corners*
1,1,$1+$1,$2,$3*
1,1,$1+$1,$4,$5*
1,1,$1+$1,$6,$7*
1,1,$1+$1,$8,$9*
0 Add four rect primitives between the rounded corners*
20,1,$1+$1,$2,$3,$4,$5,0*
20,1,$1+$1,$4,$5,$6,$7,0*
20,1,$1+$1,$6,$7,$8,$9,0*
20,1,$1+$1,$8,$9,$2,$3,0*%
G04 Aperture macros list end*
%TA.AperFunction,NonConductor*%
%ADD10C,0.500000*%
%TD*%
%ADD11C,0.300000*%
%TA.AperFunction,NonConductor*%
%ADD12C,0.300000*%
%TD*%
%TA.AperFunction,SMDPad,CuDef*%
%ADD13RoundRect,0.250000X-0.625000X0.400000X-0.625000X-0.400000X0.625000X-0.400000X0.625000X0.400000X0*%
%TD*%
%TA.AperFunction,ComponentPad*%
%ADD14C,2.200000*%
%TD*%
%TA.AperFunction,SMDPad,CuDef*%
%ADD15RoundRect,0.250000X-0.400000X-0.625000X0.400000X-0.625000X0.400000X0.625000X-0.400000X0.625000X0*%
%TD*%
%TA.AperFunction,ComponentPad*%
%ADD16C,10.160000*%
%TD*%
%TA.AperFunction,SMDPad,CuDef*%
%ADD17RoundRect,0.042000X0.258000X-0.943000X0.258000X0.943000X-0.258000X0.943000X-0.258000X-0.943000X0*%
%TD*%
%TA.AperFunction,SMDPad,CuDef*%
%ADD18RoundRect,0.250000X0.400000X0.625000X-0.400000X0.625000X-0.400000X-0.625000X0.400000X-0.625000X0*%
%TD*%
%TA.AperFunction,SMDPad,CuDef*%
%ADD19RoundRect,0.250000X0.625000X-0.400000X0.625000X0.400000X-0.625000X0.400000X-0.625000X-0.400000X0*%
%TD*%
%TA.AperFunction,SMDPad,CuDef*%
%ADD20RoundRect,0.250000X-0.337500X-0.475000X0.337500X-0.475000X0.337500X0.475000X-0.337500X0.475000X0*%
%TD*%
%TA.AperFunction,SMDPad,CuDef*%
%ADD21RoundRect,0.250000X-1.250000X-0.550000X1.250000X-0.550000X1.250000X0.550000X-1.250000X0.550000X0*%
%TD*%
%TA.AperFunction,ComponentPad*%
%ADD22O,1.800000X2.200000*%
%TD*%
%TA.AperFunction,ComponentPad*%
%ADD23R,1.600000X1.600000*%
%TD*%
%TA.AperFunction,ComponentPad*%
%ADD24O,1.600000X1.600000*%
%TD*%
%TA.AperFunction,SMDPad,CuDef*%
%ADD25RoundRect,0.250001X-0.624999X0.462499X-0.624999X-0.462499X0.624999X-0.462499X0.624999X0.462499X0*%
%TD*%
%TA.AperFunction,ComponentPad*%
%ADD26C,2.000000*%
%TD*%
%TA.AperFunction,SMDPad,CuDef*%
%ADD27R,7.340000X6.350000*%
%TD*%
%TA.AperFunction,SMDPad,CuDef*%
%ADD28RoundRect,0.250000X0.337500X0.475000X-0.337500X0.475000X-0.337500X-0.475000X0.337500X-0.475000X0*%
%TD*%
%TA.AperFunction,ViaPad*%
%ADD29C,1.500000*%
%TD*%
%TA.AperFunction,ViaPad*%
%ADD30C,2.000000*%
%TD*%
%TA.AperFunction,ViaPad*%
%ADD31C,1.800000*%
%TD*%
%TA.AperFunction,Conductor*%
%ADD32C,0.500000*%
%TD*%
%TA.AperFunction,Conductor*%
%ADD33C,1.000000*%
%TD*%
G04 APERTURE END LIST*
D10*
X51917600Y-40335200D02*
X145745200Y-40335200D01*
X145745200Y-129641600D01*
X51917600Y-129641600D01*
X51917600Y-40335200D01*
D11*
D12*
X75850714Y-112140000D02*
X76065000Y-112211428D01*
X76065000Y-112211428D02*
X76422142Y-112211428D01*
X76422142Y-112211428D02*
X76565000Y-112140000D01*
X76565000Y-112140000D02*
X76636428Y-112068571D01*
X76636428Y-112068571D02*
X76707857Y-111925714D01*
X76707857Y-111925714D02*
X76707857Y-111782857D01*
X76707857Y-111782857D02*
X76636428Y-111640000D01*
X76636428Y-111640000D02*
X76565000Y-111568571D01*
X76565000Y-111568571D02*
X76422142Y-111497142D01*
X76422142Y-111497142D02*
X76136428Y-111425714D01*
X76136428Y-111425714D02*
X75993571Y-111354285D01*
X75993571Y-111354285D02*
X75922142Y-111282857D01*
X75922142Y-111282857D02*
X75850714Y-111140000D01*
X75850714Y-111140000D02*
X75850714Y-110997142D01*
X75850714Y-110997142D02*
X75922142Y-110854285D01*
X75922142Y-110854285D02*
X75993571Y-110782857D01*
X75993571Y-110782857D02*
X76136428Y-110711428D01*
X76136428Y-110711428D02*
X76493571Y-110711428D01*
X76493571Y-110711428D02*
X76707857Y-110782857D01*
X77922142Y-112140000D02*
X77779285Y-112211428D01*
X77779285Y-112211428D02*
X77493571Y-112211428D01*
X77493571Y-112211428D02*
X77350713Y-112140000D01*
X77350713Y-112140000D02*
X77279285Y-111997142D01*
X77279285Y-111997142D02*
X77279285Y-111425714D01*
X77279285Y-111425714D02*
X77350713Y-111282857D01*
X77350713Y-111282857D02*
X77493571Y-111211428D01*
X77493571Y-111211428D02*
X77779285Y-111211428D01*
X77779285Y-111211428D02*
X77922142Y-111282857D01*
X77922142Y-111282857D02*
X77993571Y-111425714D01*
X77993571Y-111425714D02*
X77993571Y-111568571D01*
X77993571Y-111568571D02*
X77279285Y-111711428D01*
X78636427Y-111211428D02*
X78636427Y-112211428D01*
X78636427Y-111354285D02*
X78707856Y-111282857D01*
X78707856Y-111282857D02*
X78850713Y-111211428D01*
X78850713Y-111211428D02*
X79064999Y-111211428D01*
X79064999Y-111211428D02*
X79207856Y-111282857D01*
X79207856Y-111282857D02*
X79279285Y-111425714D01*
X79279285Y-111425714D02*
X79279285Y-112211428D01*
X80564999Y-112140000D02*
X80422142Y-112211428D01*
X80422142Y-112211428D02*
X80136428Y-112211428D01*
X80136428Y-112211428D02*
X79993570Y-112140000D01*
X79993570Y-112140000D02*
X79922142Y-111997142D01*
X79922142Y-111997142D02*
X79922142Y-111425714D01*
X79922142Y-111425714D02*
X79993570Y-111282857D01*
X79993570Y-111282857D02*
X80136428Y-111211428D01*
X80136428Y-111211428D02*
X80422142Y-111211428D01*
X80422142Y-111211428D02*
X80564999Y-111282857D01*
X80564999Y-111282857D02*
X80636428Y-111425714D01*
X80636428Y-111425714D02*
X80636428Y-111568571D01*
X80636428Y-111568571D02*
X79922142Y-111711428D01*
X82136427Y-112068571D02*
X82064999Y-112140000D01*
X82064999Y-112140000D02*
X81850713Y-112211428D01*
X81850713Y-112211428D02*
X81707856Y-112211428D01*
X81707856Y-112211428D02*
X81493570Y-112140000D01*
X81493570Y-112140000D02*
X81350713Y-111997142D01*
X81350713Y-111997142D02*
X81279284Y-111854285D01*
X81279284Y-111854285D02*
X81207856Y-111568571D01*
X81207856Y-111568571D02*
X81207856Y-111354285D01*
X81207856Y-111354285D02*
X81279284Y-111068571D01*
X81279284Y-111068571D02*
X81350713Y-110925714D01*
X81350713Y-110925714D02*
X81493570Y-110782857D01*
X81493570Y-110782857D02*
X81707856Y-110711428D01*
X81707856Y-110711428D02*
X81850713Y-110711428D01*
X81850713Y-110711428D02*
X82064999Y-110782857D01*
X82064999Y-110782857D02*
X82136427Y-110854285D01*
X83422142Y-111211428D02*
X83422142Y-112211428D01*
X82779284Y-111211428D02*
X82779284Y-111997142D01*
X82779284Y-111997142D02*
X82850713Y-112140000D01*
X82850713Y-112140000D02*
X82993570Y-112211428D01*
X82993570Y-112211428D02*
X83207856Y-112211428D01*
X83207856Y-112211428D02*
X83350713Y-112140000D01*
X83350713Y-112140000D02*
X83422142Y-112068571D01*
X84136427Y-112211428D02*
X84136427Y-111211428D01*
X84136427Y-111497142D02*
X84207856Y-111354285D01*
X84207856Y-111354285D02*
X84279285Y-111282857D01*
X84279285Y-111282857D02*
X84422142Y-111211428D01*
X84422142Y-111211428D02*
X84564999Y-111211428D01*
X85064998Y-112211428D02*
X85064998Y-111211428D01*
X85064998Y-111497142D02*
X85136427Y-111354285D01*
X85136427Y-111354285D02*
X85207856Y-111282857D01*
X85207856Y-111282857D02*
X85350713Y-111211428D01*
X85350713Y-111211428D02*
X85493570Y-111211428D01*
X86564998Y-112140000D02*
X86422141Y-112211428D01*
X86422141Y-112211428D02*
X86136427Y-112211428D01*
X86136427Y-112211428D02*
X85993569Y-112140000D01*
X85993569Y-112140000D02*
X85922141Y-111997142D01*
X85922141Y-111997142D02*
X85922141Y-111425714D01*
X85922141Y-111425714D02*
X85993569Y-111282857D01*
X85993569Y-111282857D02*
X86136427Y-111211428D01*
X86136427Y-111211428D02*
X86422141Y-111211428D01*
X86422141Y-111211428D02*
X86564998Y-111282857D01*
X86564998Y-111282857D02*
X86636427Y-111425714D01*
X86636427Y-111425714D02*
X86636427Y-111568571D01*
X86636427Y-111568571D02*
X85922141Y-111711428D01*
X87279283Y-111211428D02*
X87279283Y-112211428D01*
X87279283Y-111354285D02*
X87350712Y-111282857D01*
X87350712Y-111282857D02*
X87493569Y-111211428D01*
X87493569Y-111211428D02*
X87707855Y-111211428D01*
X87707855Y-111211428D02*
X87850712Y-111282857D01*
X87850712Y-111282857D02*
X87922141Y-111425714D01*
X87922141Y-111425714D02*
X87922141Y-112211428D01*
X88422141Y-111211428D02*
X88993569Y-111211428D01*
X88636426Y-110711428D02*
X88636426Y-111997142D01*
X88636426Y-111997142D02*
X88707855Y-112140000D01*
X88707855Y-112140000D02*
X88850712Y-112211428D01*
X88850712Y-112211428D02*
X88993569Y-112211428D01*
D11*
D12*
X135147428Y-91616257D02*
X133647428Y-91616257D01*
X133647428Y-91616257D02*
X134718857Y-91116257D01*
X134718857Y-91116257D02*
X133647428Y-90616257D01*
X133647428Y-90616257D02*
X135147428Y-90616257D01*
X133647428Y-89473399D02*
X134718857Y-89473399D01*
X134718857Y-89473399D02*
X134933142Y-89544828D01*
X134933142Y-89544828D02*
X135076000Y-89687685D01*
X135076000Y-89687685D02*
X135147428Y-89901971D01*
X135147428Y-89901971D02*
X135147428Y-90044828D01*
X135004571Y-87901971D02*
X135076000Y-87973399D01*
X135076000Y-87973399D02*
X135147428Y-88187685D01*
X135147428Y-88187685D02*
X135147428Y-88330542D01*
X135147428Y-88330542D02*
X135076000Y-88544828D01*
X135076000Y-88544828D02*
X134933142Y-88687685D01*
X134933142Y-88687685D02*
X134790285Y-88759114D01*
X134790285Y-88759114D02*
X134504571Y-88830542D01*
X134504571Y-88830542D02*
X134290285Y-88830542D01*
X134290285Y-88830542D02*
X134004571Y-88759114D01*
X134004571Y-88759114D02*
X133861714Y-88687685D01*
X133861714Y-88687685D02*
X133718857Y-88544828D01*
X133718857Y-88544828D02*
X133647428Y-88330542D01*
X133647428Y-88330542D02*
X133647428Y-88187685D01*
X133647428Y-88187685D02*
X133718857Y-87973399D01*
X133718857Y-87973399D02*
X133790285Y-87901971D01*
X135147428Y-87259114D02*
X133647428Y-87259114D01*
X133647428Y-87259114D02*
X134718857Y-86759114D01*
X134718857Y-86759114D02*
X133647428Y-86259114D01*
X133647428Y-86259114D02*
X135147428Y-86259114D01*
X136077428Y-91187685D02*
X137148857Y-91187685D01*
X137148857Y-91187685D02*
X137363142Y-91259114D01*
X137363142Y-91259114D02*
X137506000Y-91401971D01*
X137506000Y-91401971D02*
X137577428Y-91616257D01*
X137577428Y-91616257D02*
X137577428Y-91759114D01*
X137506000Y-90544828D02*
X137577428Y-90330543D01*
X137577428Y-90330543D02*
X137577428Y-89973400D01*
X137577428Y-89973400D02*
X137506000Y-89830543D01*
X137506000Y-89830543D02*
X137434571Y-89759114D01*
X137434571Y-89759114D02*
X137291714Y-89687685D01*
X137291714Y-89687685D02*
X137148857Y-89687685D01*
X137148857Y-89687685D02*
X137006000Y-89759114D01*
X137006000Y-89759114D02*
X136934571Y-89830543D01*
X136934571Y-89830543D02*
X136863142Y-89973400D01*
X136863142Y-89973400D02*
X136791714Y-90259114D01*
X136791714Y-90259114D02*
X136720285Y-90401971D01*
X136720285Y-90401971D02*
X136648857Y-90473400D01*
X136648857Y-90473400D02*
X136506000Y-90544828D01*
X136506000Y-90544828D02*
X136363142Y-90544828D01*
X136363142Y-90544828D02*
X136220285Y-90473400D01*
X136220285Y-90473400D02*
X136148857Y-90401971D01*
X136148857Y-90401971D02*
X136077428Y-90259114D01*
X136077428Y-90259114D02*
X136077428Y-89901971D01*
X136077428Y-89901971D02*
X136148857Y-89687685D01*
X136077428Y-88759114D02*
X136077428Y-88473400D01*
X136077428Y-88473400D02*
X136148857Y-88330543D01*
X136148857Y-88330543D02*
X136291714Y-88187686D01*
X136291714Y-88187686D02*
X136577428Y-88116257D01*
X136577428Y-88116257D02*
X137077428Y-88116257D01*
X137077428Y-88116257D02*
X137363142Y-88187686D01*
X137363142Y-88187686D02*
X137506000Y-88330543D01*
X137506000Y-88330543D02*
X137577428Y-88473400D01*
X137577428Y-88473400D02*
X137577428Y-88759114D01*
X137577428Y-88759114D02*
X137506000Y-88901972D01*
X137506000Y-88901972D02*
X137363142Y-89044829D01*
X137363142Y-89044829D02*
X137077428Y-89116257D01*
X137077428Y-89116257D02*
X136577428Y-89116257D01*
X136577428Y-89116257D02*
X136291714Y-89044829D01*
X136291714Y-89044829D02*
X136148857Y-88901972D01*
X136148857Y-88901972D02*
X136077428Y-88759114D01*
X137577428Y-86616257D02*
X136863142Y-87116257D01*
X137577428Y-87473400D02*
X136077428Y-87473400D01*
X136077428Y-87473400D02*
X136077428Y-86901971D01*
X136077428Y-86901971D02*
X136148857Y-86759114D01*
X136148857Y-86759114D02*
X136220285Y-86687685D01*
X136220285Y-86687685D02*
X136363142Y-86616257D01*
X136363142Y-86616257D02*
X136577428Y-86616257D01*
X136577428Y-86616257D02*
X136720285Y-86687685D01*
X136720285Y-86687685D02*
X136791714Y-86759114D01*
X136791714Y-86759114D02*
X136863142Y-86901971D01*
X136863142Y-86901971D02*
X136863142Y-87473400D01*
X138650285Y-91687685D02*
X138578857Y-91616257D01*
X138578857Y-91616257D02*
X138507428Y-91473400D01*
X138507428Y-91473400D02*
X138507428Y-91116257D01*
X138507428Y-91116257D02*
X138578857Y-90973400D01*
X138578857Y-90973400D02*
X138650285Y-90901971D01*
X138650285Y-90901971D02*
X138793142Y-90830542D01*
X138793142Y-90830542D02*
X138936000Y-90830542D01*
X138936000Y-90830542D02*
X139150285Y-90901971D01*
X139150285Y-90901971D02*
X140007428Y-91759114D01*
X140007428Y-91759114D02*
X140007428Y-90830542D01*
X138507428Y-89901971D02*
X138507428Y-89759114D01*
X138507428Y-89759114D02*
X138578857Y-89616257D01*
X138578857Y-89616257D02*
X138650285Y-89544829D01*
X138650285Y-89544829D02*
X138793142Y-89473400D01*
X138793142Y-89473400D02*
X139078857Y-89401971D01*
X139078857Y-89401971D02*
X139436000Y-89401971D01*
X139436000Y-89401971D02*
X139721714Y-89473400D01*
X139721714Y-89473400D02*
X139864571Y-89544829D01*
X139864571Y-89544829D02*
X139936000Y-89616257D01*
X139936000Y-89616257D02*
X140007428Y-89759114D01*
X140007428Y-89759114D02*
X140007428Y-89901971D01*
X140007428Y-89901971D02*
X139936000Y-90044829D01*
X139936000Y-90044829D02*
X139864571Y-90116257D01*
X139864571Y-90116257D02*
X139721714Y-90187686D01*
X139721714Y-90187686D02*
X139436000Y-90259114D01*
X139436000Y-90259114D02*
X139078857Y-90259114D01*
X139078857Y-90259114D02*
X138793142Y-90187686D01*
X138793142Y-90187686D02*
X138650285Y-90116257D01*
X138650285Y-90116257D02*
X138578857Y-90044829D01*
X138578857Y-90044829D02*
X138507428Y-89901971D01*
X138650285Y-88830543D02*
X138578857Y-88759115D01*
X138578857Y-88759115D02*
X138507428Y-88616258D01*
X138507428Y-88616258D02*
X138507428Y-88259115D01*
X138507428Y-88259115D02*
X138578857Y-88116258D01*
X138578857Y-88116258D02*
X138650285Y-88044829D01*
X138650285Y-88044829D02*
X138793142Y-87973400D01*
X138793142Y-87973400D02*
X138936000Y-87973400D01*
X138936000Y-87973400D02*
X139150285Y-88044829D01*
X139150285Y-88044829D02*
X140007428Y-88901972D01*
X140007428Y-88901972D02*
X140007428Y-87973400D01*
X138507428Y-87044829D02*
X138507428Y-86901972D01*
X138507428Y-86901972D02*
X138578857Y-86759115D01*
X138578857Y-86759115D02*
X138650285Y-86687687D01*
X138650285Y-86687687D02*
X138793142Y-86616258D01*
X138793142Y-86616258D02*
X139078857Y-86544829D01*
X139078857Y-86544829D02*
X139436000Y-86544829D01*
X139436000Y-86544829D02*
X139721714Y-86616258D01*
X139721714Y-86616258D02*
X139864571Y-86687687D01*
X139864571Y-86687687D02*
X139936000Y-86759115D01*
X139936000Y-86759115D02*
X140007428Y-86901972D01*
X140007428Y-86901972D02*
X140007428Y-87044829D01*
X140007428Y-87044829D02*
X139936000Y-87187687D01*
X139936000Y-87187687D02*
X139864571Y-87259115D01*
X139864571Y-87259115D02*
X139721714Y-87330544D01*
X139721714Y-87330544D02*
X139436000Y-87401972D01*
X139436000Y-87401972D02*
X139078857Y-87401972D01*
X139078857Y-87401972D02*
X138793142Y-87330544D01*
X138793142Y-87330544D02*
X138650285Y-87259115D01*
X138650285Y-87259115D02*
X138578857Y-87187687D01*
X138578857Y-87187687D02*
X138507428Y-87044829D01*
X138650285Y-85973401D02*
X138578857Y-85901973D01*
X138578857Y-85901973D02*
X138507428Y-85759116D01*
X138507428Y-85759116D02*
X138507428Y-85401973D01*
X138507428Y-85401973D02*
X138578857Y-85259116D01*
X138578857Y-85259116D02*
X138650285Y-85187687D01*
X138650285Y-85187687D02*
X138793142Y-85116258D01*
X138793142Y-85116258D02*
X138936000Y-85116258D01*
X138936000Y-85116258D02*
X139150285Y-85187687D01*
X139150285Y-85187687D02*
X140007428Y-86044830D01*
X140007428Y-86044830D02*
X140007428Y-85116258D01*
X140007428Y-83687687D02*
X140007428Y-84544830D01*
X140007428Y-84116259D02*
X138507428Y-84116259D01*
X138507428Y-84116259D02*
X138721714Y-84259116D01*
X138721714Y-84259116D02*
X138864571Y-84401973D01*
X138864571Y-84401973D02*
X138936000Y-84544830D01*
X138507428Y-83187688D02*
X138507428Y-82187688D01*
X138507428Y-82187688D02*
X140007428Y-82830545D01*
X138507428Y-81330545D02*
X138507428Y-81187688D01*
X138507428Y-81187688D02*
X138578857Y-81044831D01*
X138578857Y-81044831D02*
X138650285Y-80973403D01*
X138650285Y-80973403D02*
X138793142Y-80901974D01*
X138793142Y-80901974D02*
X139078857Y-80830545D01*
X139078857Y-80830545D02*
X139436000Y-80830545D01*
X139436000Y-80830545D02*
X139721714Y-80901974D01*
X139721714Y-80901974D02*
X139864571Y-80973403D01*
X139864571Y-80973403D02*
X139936000Y-81044831D01*
X139936000Y-81044831D02*
X140007428Y-81187688D01*
X140007428Y-81187688D02*
X140007428Y-81330545D01*
X140007428Y-81330545D02*
X139936000Y-81473403D01*
X139936000Y-81473403D02*
X139864571Y-81544831D01*
X139864571Y-81544831D02*
X139721714Y-81616260D01*
X139721714Y-81616260D02*
X139436000Y-81687688D01*
X139436000Y-81687688D02*
X139078857Y-81687688D01*
X139078857Y-81687688D02*
X138793142Y-81616260D01*
X138793142Y-81616260D02*
X138650285Y-81544831D01*
X138650285Y-81544831D02*
X138578857Y-81473403D01*
X138578857Y-81473403D02*
X138507428Y-81330545D01*
X138507428Y-80330546D02*
X138507428Y-79401974D01*
X138507428Y-79401974D02*
X139078857Y-79901974D01*
X139078857Y-79901974D02*
X139078857Y-79687689D01*
X139078857Y-79687689D02*
X139150285Y-79544832D01*
X139150285Y-79544832D02*
X139221714Y-79473403D01*
X139221714Y-79473403D02*
X139364571Y-79401974D01*
X139364571Y-79401974D02*
X139721714Y-79401974D01*
X139721714Y-79401974D02*
X139864571Y-79473403D01*
X139864571Y-79473403D02*
X139936000Y-79544832D01*
X139936000Y-79544832D02*
X140007428Y-79687689D01*
X140007428Y-79687689D02*
X140007428Y-80116260D01*
X140007428Y-80116260D02*
X139936000Y-80259117D01*
X139936000Y-80259117D02*
X139864571Y-80330546D01*
X141080285Y-91687685D02*
X141008857Y-91616257D01*
X141008857Y-91616257D02*
X140937428Y-91473400D01*
X140937428Y-91473400D02*
X140937428Y-91116257D01*
X140937428Y-91116257D02*
X141008857Y-90973400D01*
X141008857Y-90973400D02*
X141080285Y-90901971D01*
X141080285Y-90901971D02*
X141223142Y-90830542D01*
X141223142Y-90830542D02*
X141366000Y-90830542D01*
X141366000Y-90830542D02*
X141580285Y-90901971D01*
X141580285Y-90901971D02*
X142437428Y-91759114D01*
X142437428Y-91759114D02*
X142437428Y-90830542D01*
X140937428Y-89901971D02*
X140937428Y-89759114D01*
X140937428Y-89759114D02*
X141008857Y-89616257D01*
X141008857Y-89616257D02*
X141080285Y-89544829D01*
X141080285Y-89544829D02*
X141223142Y-89473400D01*
X141223142Y-89473400D02*
X141508857Y-89401971D01*
X141508857Y-89401971D02*
X141866000Y-89401971D01*
X141866000Y-89401971D02*
X142151714Y-89473400D01*
X142151714Y-89473400D02*
X142294571Y-89544829D01*
X142294571Y-89544829D02*
X142366000Y-89616257D01*
X142366000Y-89616257D02*
X142437428Y-89759114D01*
X142437428Y-89759114D02*
X142437428Y-89901971D01*
X142437428Y-89901971D02*
X142366000Y-90044829D01*
X142366000Y-90044829D02*
X142294571Y-90116257D01*
X142294571Y-90116257D02*
X142151714Y-90187686D01*
X142151714Y-90187686D02*
X141866000Y-90259114D01*
X141866000Y-90259114D02*
X141508857Y-90259114D01*
X141508857Y-90259114D02*
X141223142Y-90187686D01*
X141223142Y-90187686D02*
X141080285Y-90116257D01*
X141080285Y-90116257D02*
X141008857Y-90044829D01*
X141008857Y-90044829D02*
X140937428Y-89901971D01*
X141080285Y-88830543D02*
X141008857Y-88759115D01*
X141008857Y-88759115D02*
X140937428Y-88616258D01*
X140937428Y-88616258D02*
X140937428Y-88259115D01*
X140937428Y-88259115D02*
X141008857Y-88116258D01*
X141008857Y-88116258D02*
X141080285Y-88044829D01*
X141080285Y-88044829D02*
X141223142Y-87973400D01*
X141223142Y-87973400D02*
X141366000Y-87973400D01*
X141366000Y-87973400D02*
X141580285Y-88044829D01*
X141580285Y-88044829D02*
X142437428Y-88901972D01*
X142437428Y-88901972D02*
X142437428Y-87973400D01*
X140937428Y-87044829D02*
X140937428Y-86901972D01*
X140937428Y-86901972D02*
X141008857Y-86759115D01*
X141008857Y-86759115D02*
X141080285Y-86687687D01*
X141080285Y-86687687D02*
X141223142Y-86616258D01*
X141223142Y-86616258D02*
X141508857Y-86544829D01*
X141508857Y-86544829D02*
X141866000Y-86544829D01*
X141866000Y-86544829D02*
X142151714Y-86616258D01*
X142151714Y-86616258D02*
X142294571Y-86687687D01*
X142294571Y-86687687D02*
X142366000Y-86759115D01*
X142366000Y-86759115D02*
X142437428Y-86901972D01*
X142437428Y-86901972D02*
X142437428Y-87044829D01*
X142437428Y-87044829D02*
X142366000Y-87187687D01*
X142366000Y-87187687D02*
X142294571Y-87259115D01*
X142294571Y-87259115D02*
X142151714Y-87330544D01*
X142151714Y-87330544D02*
X141866000Y-87401972D01*
X141866000Y-87401972D02*
X141508857Y-87401972D01*
X141508857Y-87401972D02*
X141223142Y-87330544D01*
X141223142Y-87330544D02*
X141080285Y-87259115D01*
X141080285Y-87259115D02*
X141008857Y-87187687D01*
X141008857Y-87187687D02*
X140937428Y-87044829D01*
X141080285Y-85973401D02*
X141008857Y-85901973D01*
X141008857Y-85901973D02*
X140937428Y-85759116D01*
X140937428Y-85759116D02*
X140937428Y-85401973D01*
X140937428Y-85401973D02*
X141008857Y-85259116D01*
X141008857Y-85259116D02*
X141080285Y-85187687D01*
X141080285Y-85187687D02*
X141223142Y-85116258D01*
X141223142Y-85116258D02*
X141366000Y-85116258D01*
X141366000Y-85116258D02*
X141580285Y-85187687D01*
X141580285Y-85187687D02*
X142437428Y-86044830D01*
X142437428Y-86044830D02*
X142437428Y-85116258D01*
X140937428Y-84187687D02*
X140937428Y-84044830D01*
X140937428Y-84044830D02*
X141008857Y-83901973D01*
X141008857Y-83901973D02*
X141080285Y-83830545D01*
X141080285Y-83830545D02*
X141223142Y-83759116D01*
X141223142Y-83759116D02*
X141508857Y-83687687D01*
X141508857Y-83687687D02*
X141866000Y-83687687D01*
X141866000Y-83687687D02*
X142151714Y-83759116D01*
X142151714Y-83759116D02*
X142294571Y-83830545D01*
X142294571Y-83830545D02*
X142366000Y-83901973D01*
X142366000Y-83901973D02*
X142437428Y-84044830D01*
X142437428Y-84044830D02*
X142437428Y-84187687D01*
X142437428Y-84187687D02*
X142366000Y-84330545D01*
X142366000Y-84330545D02*
X142294571Y-84401973D01*
X142294571Y-84401973D02*
X142151714Y-84473402D01*
X142151714Y-84473402D02*
X141866000Y-84544830D01*
X141866000Y-84544830D02*
X141508857Y-84544830D01*
X141508857Y-84544830D02*
X141223142Y-84473402D01*
X141223142Y-84473402D02*
X141080285Y-84401973D01*
X141080285Y-84401973D02*
X141008857Y-84330545D01*
X141008857Y-84330545D02*
X140937428Y-84187687D01*
X141580285Y-82830545D02*
X141508857Y-82973402D01*
X141508857Y-82973402D02*
X141437428Y-83044831D01*
X141437428Y-83044831D02*
X141294571Y-83116259D01*
X141294571Y-83116259D02*
X141223142Y-83116259D01*
X141223142Y-83116259D02*
X141080285Y-83044831D01*
X141080285Y-83044831D02*
X141008857Y-82973402D01*
X141008857Y-82973402D02*
X140937428Y-82830545D01*
X140937428Y-82830545D02*
X140937428Y-82544831D01*
X140937428Y-82544831D02*
X141008857Y-82401974D01*
X141008857Y-82401974D02*
X141080285Y-82330545D01*
X141080285Y-82330545D02*
X141223142Y-82259116D01*
X141223142Y-82259116D02*
X141294571Y-82259116D01*
X141294571Y-82259116D02*
X141437428Y-82330545D01*
X141437428Y-82330545D02*
X141508857Y-82401974D01*
X141508857Y-82401974D02*
X141580285Y-82544831D01*
X141580285Y-82544831D02*
X141580285Y-82830545D01*
X141580285Y-82830545D02*
X141651714Y-82973402D01*
X141651714Y-82973402D02*
X141723142Y-83044831D01*
X141723142Y-83044831D02*
X141866000Y-83116259D01*
X141866000Y-83116259D02*
X142151714Y-83116259D01*
X142151714Y-83116259D02*
X142294571Y-83044831D01*
X142294571Y-83044831D02*
X142366000Y-82973402D01*
X142366000Y-82973402D02*
X142437428Y-82830545D01*
X142437428Y-82830545D02*
X142437428Y-82544831D01*
X142437428Y-82544831D02*
X142366000Y-82401974D01*
X142366000Y-82401974D02*
X142294571Y-82330545D01*
X142294571Y-82330545D02*
X142151714Y-82259116D01*
X142151714Y-82259116D02*
X141866000Y-82259116D01*
X141866000Y-82259116D02*
X141723142Y-82330545D01*
X141723142Y-82330545D02*
X141651714Y-82401974D01*
X141651714Y-82401974D02*
X141580285Y-82544831D01*
X140937428Y-81759117D02*
X140937428Y-80759117D01*
X140937428Y-80759117D02*
X142437428Y-81401974D01*
X140937428Y-79544832D02*
X140937428Y-79830546D01*
X140937428Y-79830546D02*
X141008857Y-79973403D01*
X141008857Y-79973403D02*
X141080285Y-80044832D01*
X141080285Y-80044832D02*
X141294571Y-80187689D01*
X141294571Y-80187689D02*
X141580285Y-80259117D01*
X141580285Y-80259117D02*
X142151714Y-80259117D01*
X142151714Y-80259117D02*
X142294571Y-80187689D01*
X142294571Y-80187689D02*
X142366000Y-80116260D01*
X142366000Y-80116260D02*
X142437428Y-79973403D01*
X142437428Y-79973403D02*
X142437428Y-79687689D01*
X142437428Y-79687689D02*
X142366000Y-79544832D01*
X142366000Y-79544832D02*
X142294571Y-79473403D01*
X142294571Y-79473403D02*
X142151714Y-79401974D01*
X142151714Y-79401974D02*
X141794571Y-79401974D01*
X141794571Y-79401974D02*
X141651714Y-79473403D01*
X141651714Y-79473403D02*
X141580285Y-79544832D01*
X141580285Y-79544832D02*
X141508857Y-79687689D01*
X141508857Y-79687689D02*
X141508857Y-79973403D01*
X141508857Y-79973403D02*
X141580285Y-80116260D01*
X141580285Y-80116260D02*
X141651714Y-80187689D01*
X141651714Y-80187689D02*
X141794571Y-80259117D01*
D13*
%TO.P,Rs3,1*%
%TO.N,Net-(R2B1-Pad1)*%
X124460000Y-107035000D03*
%TO.P,Rs3,2*%
%TO.N,Net-(J3-Pin_1)*%
X124460000Y-110135000D03*
%TD*%
D14*
%TO.P,Rm1,1*%
%TO.N,Net-(Rm1-Pad1)*%
X71120000Y-95250000D03*
%TO.P,Rm1,2*%
%TO.N,GND*%
X81280000Y-95250000D03*
%TD*%
D15*
%TO.P,Ru1,1*%
%TO.N,Net-(Ru1-Pad1)*%
X70560000Y-100330000D03*
%TO.P,Ru1,2*%
%TO.N,Net-(Ru1-Pad2)*%
X73660000Y-100330000D03*
%TD*%
D16*
%TO.P,J3,1,Pin_1*%
%TO.N,Net-(J3-Pin_1)*%
X106920000Y-120650000D03*
%TO.P,J3,2,Pin_2*%
%TO.N,GND*%
X136890000Y-120650000D03*
%TD*%
%TO.P,J2,1,Pin_1*%
%TO.N,GND*%
X91200000Y-120650000D03*
%TO.P,J2,2,Pin_2*%
%TO.N,Net-(J2-Pin_2)*%
X61230000Y-120650000D03*
%TD*%
D13*
%TO.P,R2B3,1*%
%TO.N,Net-(R2B2-Pad2)*%
X137795000Y-97510000D03*
%TO.P,R2B3,2*%
%TO.N,Net-(U2A--)*%
X137795000Y-100610000D03*
%TD*%
D17*
%TO.P,U1,1*%
%TO.N,Net-(U1A--)*%
X102108000Y-88651200D03*
%TO.P,U1,2,-*%
X103378000Y-88651200D03*
%TO.P,U1,3,+*%
%TO.N,Net-(U1A-+)*%
X104648000Y-88651200D03*
%TO.P,U1,4,V-*%
%TO.N,VEE*%
X105918000Y-88651200D03*
%TO.P,U1,5,+*%
%TO.N,Net-(U1B-+)*%
X105918000Y-83711200D03*
%TO.P,U1,6,-*%
%TO.N,Net-(D1-K)*%
X104648000Y-83711200D03*
%TO.P,U1,7*%
%TO.N,Net-(R2-Pad1)*%
X103378000Y-83711200D03*
%TO.P,U1,8,V+*%
%TO.N,VCC*%
X102108000Y-83711200D03*
%TD*%
D18*
%TO.P,R3,1*%
%TO.N,Net-(U2A--)*%
X132360000Y-97155000D03*
%TO.P,R3,2*%
%TO.N,GND*%
X129260000Y-97155000D03*
%TD*%
D19*
%TO.P,R1,1*%
%TO.N,VCC*%
X121920000Y-96165000D03*
%TO.P,R1,2*%
%TO.N,Net-(D1-K)*%
X121920000Y-93065000D03*
%TD*%
D20*
%TO.P,Cxa2,1*%
%TO.N,Net-(U2B--)*%
X124057500Y-101600000D03*
%TO.P,Cxa2,2*%
%TO.N,GND*%
X126132500Y-101600000D03*
%TD*%
D21*
%TO.P,C1,1*%
%TO.N,VCC*%
X120990000Y-74930000D03*
%TO.P,C1,2*%
%TO.N,VEE*%
X125390000Y-74930000D03*
%TD*%
D19*
%TO.P,R2B2,1*%
%TO.N,Net-(R2B1-Pad2)*%
X132715000Y-103785000D03*
%TO.P,R2B2,2*%
%TO.N,Net-(R2B2-Pad2)*%
X132715000Y-100685000D03*
%TD*%
D22*
%TO.P,SW1,1,A*%
%TO.N,VCC*%
X60960000Y-101425000D03*
%TO.P,SW1,2,B*%
%TO.N,Net-(SW1-B)*%
X60960000Y-98425000D03*
%TO.P,SW1,3,C*%
%TO.N,unconnected-(SW1-C-Pad3)*%
X60960000Y-95425000D03*
%TD*%
D15*
%TO.P,Ru2,1*%
%TO.N,Net-(Ru1-Pad2)*%
X84175000Y-100330000D03*
%TO.P,Ru2,2*%
%TO.N,GND*%
X87275000Y-100330000D03*
%TD*%
D23*
%TO.P,SW2,1*%
%TO.N,Net-(J2-Pin_2)*%
X98410000Y-69892500D03*
D24*
%TO.P,SW2,2*%
X95870000Y-69892500D03*
%TO.P,SW2,3*%
X93330000Y-69892500D03*
%TO.P,SW2,4*%
%TO.N,Net-(Rn1-Pad1)*%
X93330000Y-77512500D03*
%TO.P,SW2,5*%
%TO.N,Net-(Ru1-Pad1)*%
X95870000Y-77512500D03*
%TO.P,SW2,6*%
%TO.N,Net-(Rm1-Pad1)*%
X98410000Y-77512500D03*
%TD*%
D15*
%TO.P,RB2,1*%
%TO.N,Net-(U1B-+)*%
X111556200Y-84353400D03*
%TO.P,RB2,2*%
%TO.N,VEE*%
X114656200Y-84353400D03*
%TD*%
D25*
%TO.P,D2,1,K*%
%TO.N,VEE*%
X126365000Y-79792500D03*
%TO.P,D2,2,A*%
%TO.N,Net-(D2-A)*%
X126365000Y-82767500D03*
%TD*%
D15*
%TO.P,R2B1,1*%
%TO.N,Net-(R2B1-Pad1)*%
X129564800Y-107238800D03*
%TO.P,R2B1,2*%
%TO.N,Net-(R2B1-Pad2)*%
X132664800Y-107238800D03*
%TD*%
D26*
%TO.P,TP1,1,B+*%
%TO.N,+BATT*%
X81845000Y-72915000D03*
%TO.P,TP1,2,B-*%
%TO.N,-BATT*%
X81845000Y-81835000D03*
%TO.P,TP1,3,OUT+*%
%TO.N,Net-(SW1-B)*%
X81845000Y-70375000D03*
%TO.P,TP1,4,OUT-*%
%TO.N,VEE*%
X81845000Y-84375000D03*
%TO.P,TP1,5*%
%TO.N,N/C*%
X58845000Y-70375000D03*
%TO.P,TP1,6*%
X58845000Y-84375000D03*
%TD*%
D27*
%TO.P,J1,1,Pin_1*%
%TO.N,+BATT*%
X59730000Y-54610000D03*
%TO.P,J1,2,Pin_2*%
%TO.N,-BATT*%
X138390000Y-54610000D03*
%TD*%
D19*
%TO.P,RP1,1*%
%TO.N,VCC*%
X113030000Y-98705000D03*
%TO.P,RP1,2*%
%TO.N,Net-(U1A-+)*%
X113030000Y-95605000D03*
%TD*%
D18*
%TO.P,RB1,1*%
%TO.N,VCC*%
X114580000Y-75565000D03*
%TO.P,RB1,2*%
%TO.N,Net-(U1B-+)*%
X111480000Y-75565000D03*
%TD*%
D19*
%TO.P,RP2,1*%
%TO.N,Net-(U1A-+)*%
X96520000Y-94895000D03*
%TO.P,RP2,2*%
%TO.N,VEE*%
X96520000Y-91795000D03*
%TD*%
D15*
%TO.P,Rn1,1*%
%TO.N,Net-(Rn1-Pad1)*%
X70840000Y-104140000D03*
%TO.P,Rn1,2*%
%TO.N,GND*%
X73940000Y-104140000D03*
%TD*%
%TO.P,Rs2,1*%
%TO.N,Net-(J2-Pin_2)*%
X59410000Y-112395000D03*
%TO.P,Rs2,2*%
%TO.N,Net-(U2A-+)*%
X62510000Y-112395000D03*
%TD*%
D23*
%TO.P,U2,1,+*%
%TO.N,Net-(U2B-+)*%
X113030000Y-101600000D03*
D24*
%TO.P,U2,2,-*%
%TO.N,Net-(U2A--)*%
X113030000Y-104140000D03*
%TO.P,U2,3,+*%
%TO.N,Net-(U2A-+)*%
X113030000Y-106680000D03*
%TO.P,U2,4,V-*%
%TO.N,VEE*%
X113030000Y-109220000D03*
%TO.P,U2,5*%
%TO.N,unconnected-(U2-Pad5)*%
X120650000Y-109220000D03*
%TO.P,U2,6*%
%TO.N,Net-(R2B1-Pad1)*%
X120650000Y-106680000D03*
%TO.P,U2,7,V+*%
%TO.N,VCC*%
X120650000Y-104140000D03*
%TO.P,U2,8,-*%
%TO.N,Net-(U2B--)*%
X120650000Y-101600000D03*
%TD*%
D13*
%TO.P,Rs1,1*%
%TO.N,Net-(U1A--)*%
X102870000Y-91795000D03*
%TO.P,Rs1,2*%
%TO.N,GND*%
X102870000Y-94895000D03*
%TD*%
D25*
%TO.P,D1,1,A*%
%TO.N,VEE*%
X117678200Y-89647700D03*
%TO.P,D1,2,K*%
%TO.N,Net-(D1-K)*%
X117678200Y-92622700D03*
%TD*%
D19*
%TO.P,R2,1*%
%TO.N,Net-(R2-Pad1)*%
X126365000Y-88545000D03*
%TO.P,R2,2*%
%TO.N,Net-(D2-A)*%
X126365000Y-85445000D03*
%TD*%
D28*
%TO.P,Cxa1,1*%
%TO.N,Net-(U2B-+)*%
X109622500Y-101600000D03*
%TO.P,Cxa1,2*%
%TO.N,GND*%
X107547500Y-101600000D03*
%TD*%
D29*
%TO.N,VCC*%
X114554000Y-73279000D03*
D30*
X73660000Y-75565000D03*
D29*
X118541800Y-81229200D03*
X121920000Y-88265000D03*
D30*
X103505000Y-77470000D03*
D31*
%TO.N,VEE*%
X93980000Y-108585000D03*
X91440000Y-95885000D03*
D29*
X113792000Y-89636600D03*
X109220000Y-89636600D03*
D30*
%TO.N,Net-(Rn1-Pad1)*%
X80010000Y-86995000D03*
X85725000Y-83185000D03*
%TO.N,Net-(Ru1-Pad1)*%
X93345000Y-82550000D03*
X86995000Y-88900000D03*
%TD*%
D32*
%TO.N,VEE*%
X105689400Y-86106000D02*
X109220000Y-89636600D01*
X104521000Y-86106000D02*
X105689400Y-86106000D01*
X105918000Y-87503000D02*
X105918000Y-88651200D01*
X104521000Y-86106000D02*
X105918000Y-87503000D01*
D33*
X104521000Y-86106000D02*
X98628200Y-86106000D01*
X98628200Y-86106000D02*
X87884000Y-86106000D01*
D32*
%TO.N,Net-(U2A--)*%
X114376200Y-104140000D02*
X113030000Y-104140000D01*
X115925600Y-105689400D02*
X114376200Y-104140000D01*
X111429800Y-113665000D02*
X115925600Y-109169200D01*
X99060000Y-116205000D02*
X101600000Y-113665000D01*
X99060000Y-123825000D02*
X99060000Y-116205000D01*
X101600000Y-113665000D02*
X111429800Y-113665000D01*
X116484400Y-127000000D02*
X102235000Y-127000000D01*
X102235000Y-127000000D02*
X99060000Y-123825000D01*
X137541000Y-105943400D02*
X116484400Y-127000000D01*
X115925600Y-109169200D02*
X115925600Y-105689400D01*
%TO.N,Net-(R2B1-Pad1)*%
X124740000Y-107162600D02*
X124663800Y-107238800D01*
X129488600Y-107162600D02*
X124740000Y-107162600D01*
X129564800Y-107238800D02*
X129488600Y-107162600D01*
%TO.N,VCC*%
X102880000Y-78095000D02*
X103505000Y-77470000D01*
D33*
X119227900Y-98857100D02*
X123088100Y-98857100D01*
X114580000Y-75565000D02*
X114580000Y-73305000D01*
X125933200Y-96012000D02*
X125933200Y-92278200D01*
X123088100Y-98857100D02*
X125933200Y-96012000D01*
X63500000Y-88442800D02*
X63500000Y-98885000D01*
X118541800Y-81229200D02*
X120990000Y-78781000D01*
X120990000Y-78781000D02*
X120990000Y-74930000D01*
X73660000Y-75565000D02*
X73660000Y-78282800D01*
D32*
X102880000Y-81270000D02*
X102880000Y-78095000D01*
X102108000Y-83711200D02*
X102108000Y-82042000D01*
D33*
X115316000Y-99822000D02*
X119634000Y-104140000D01*
X125933200Y-92278200D02*
X121920000Y-88265000D01*
X114580000Y-73305000D02*
X114554000Y-73279000D01*
X114199000Y-98705000D02*
X115316000Y-99822000D01*
X119227900Y-98857100D02*
X121920000Y-96165000D01*
X114554000Y-73279000D02*
X114554000Y-73304400D01*
X73660000Y-78282800D02*
X63500000Y-88442800D01*
X118263000Y-99822000D02*
X119227900Y-98857100D01*
X115316000Y-99822000D02*
X118263000Y-99822000D01*
X113030000Y-98705000D02*
X114199000Y-98705000D01*
X119634000Y-104140000D02*
X120650000Y-104140000D01*
X63500000Y-98885000D02*
X60960000Y-101425000D01*
D32*
X102108000Y-82042000D02*
X102880000Y-81270000D01*
D33*
%TO.N,VEE*%
X125390000Y-78064000D02*
X125390000Y-74930000D01*
X94615000Y-109220000D02*
X93980000Y-108585000D01*
D32*
X117297200Y-87299800D02*
X117297200Y-86156800D01*
D33*
X91440000Y-89662000D02*
X91440000Y-95885000D01*
X81845000Y-84375000D02*
X83576000Y-86106000D01*
X96520000Y-88773000D02*
X98907600Y-86385400D01*
D32*
X113792000Y-89636600D02*
X114960400Y-89636600D01*
D33*
X123661500Y-79792500D02*
X126365000Y-79792500D01*
X123661500Y-79792500D02*
X125390000Y-78064000D01*
X83576000Y-86106000D02*
X87884000Y-86106000D01*
D32*
X114960400Y-89636600D02*
X117667100Y-89636600D01*
X114960400Y-89636600D02*
X117297200Y-87299800D01*
D33*
X96520000Y-91795000D02*
X96520000Y-88773000D01*
X119100600Y-84353400D02*
X123661500Y-79792500D01*
X87884000Y-86106000D02*
X91440000Y-89662000D01*
X113030000Y-109220000D02*
X94615000Y-109220000D01*
X114656200Y-84353400D02*
X119100600Y-84353400D01*
D32*
X117297200Y-86156800D02*
X119100600Y-84353400D01*
%TO.N,Net-(U2B-+)*%
X113030000Y-101600000D02*
X109622500Y-101600000D01*
%TO.N,Net-(U2B--)*%
X120650000Y-101600000D02*
X124057500Y-101600000D01*
%TO.N,Net-(D1-K)*%
X121920000Y-93065000D02*
X120549000Y-93065000D01*
X111958600Y-90419400D02*
X111958600Y-91791000D01*
X105414786Y-85246200D02*
X106785400Y-85246200D01*
X117678200Y-92622700D02*
X117678200Y-93243400D01*
X106785400Y-85246200D02*
X111958600Y-90419400D01*
X104648000Y-83711200D02*
X104648000Y-84479414D01*
X120549000Y-93065000D02*
X119176800Y-94437200D01*
X111958600Y-91791000D02*
X114604800Y-94437200D01*
X116484400Y-94437200D02*
X114604800Y-94437200D01*
X117678200Y-93243400D02*
X116484400Y-94437200D01*
X104648000Y-84479414D02*
X105414786Y-85246200D01*
X119176800Y-94437200D02*
X116484400Y-94437200D01*
%TO.N,Net-(D2-A)*%
X126365000Y-82767500D02*
X126365000Y-85445000D01*
D33*
%TO.N,+BATT*%
X85725000Y-70449213D02*
X83259213Y-72915000D01*
X73025000Y-54610000D02*
X85725000Y-67310000D01*
X59730000Y-54610000D02*
X73025000Y-54610000D01*
X85725000Y-67310000D02*
X85725000Y-70449213D01*
X83259213Y-72915000D02*
X81845000Y-72915000D01*
%TO.N,-BATT*%
X88900000Y-74780000D02*
X81845000Y-81835000D01*
X138390000Y-54610000D02*
X95064415Y-54610000D01*
X88900000Y-60774415D02*
X88900000Y-74780000D01*
X95064415Y-54610000D02*
X88900000Y-60774415D01*
%TO.N,Net-(J2-Pin_2)*%
X93330000Y-69892500D02*
X98410000Y-69892500D01*
X59410000Y-111760000D02*
X59410000Y-118830000D01*
%TO.N,Net-(J3-Pin_1)*%
X106920000Y-120650000D02*
X116128800Y-120650000D01*
X124460000Y-112318800D02*
X124460000Y-110135000D01*
X116128800Y-120650000D02*
X124460000Y-112318800D01*
D32*
%TO.N,Net-(R2-Pad1)*%
X123190000Y-67945000D02*
X111125000Y-67945000D01*
X128218600Y-88545000D02*
X130911600Y-85852000D01*
X105420000Y-73650000D02*
X105420000Y-80214924D01*
X130911600Y-75666600D02*
X123190000Y-67945000D01*
X111125000Y-67945000D02*
X105420000Y-73650000D01*
X126365000Y-88545000D02*
X128218600Y-88545000D01*
X130911600Y-85852000D02*
X130911600Y-75666600D01*
X105420000Y-80214924D02*
X103378000Y-82256924D01*
X103378000Y-82256924D02*
X103378000Y-83711200D01*
%TO.N,Net-(R2B1-Pad1)*%
X122224800Y-106680000D02*
X122732800Y-107188000D01*
X120650000Y-106680000D02*
X122224800Y-106680000D01*
X122732800Y-107188000D02*
X124307000Y-107188000D01*
%TO.N,Net-(R2B1-Pad2)*%
X132664800Y-107238800D02*
X132664800Y-103835200D01*
%TO.N,Net-(U2A--)*%
X132360000Y-96087600D02*
X134010400Y-94437200D01*
X142138400Y-97536000D02*
X142138400Y-101346000D01*
X134010400Y-94437200D02*
X139039600Y-94437200D01*
X137795000Y-105689400D02*
X137541000Y-105943400D01*
X132360000Y-97155000D02*
X132360000Y-96087600D01*
X137795000Y-100610000D02*
X137795000Y-105689400D01*
X142138400Y-101346000D02*
X137541000Y-105943400D01*
X139039600Y-94437200D02*
X142138400Y-97536000D01*
%TO.N,Net-(U1B-+)*%
X107322200Y-83711200D02*
X111480000Y-79553400D01*
X111556200Y-84353400D02*
X110914000Y-83711200D01*
X110914000Y-83711200D02*
X107322200Y-83711200D01*
X111480000Y-79553400D02*
X111480000Y-75565000D01*
X105918000Y-83711200D02*
X107322200Y-83711200D01*
%TO.N,Net-(Rn1-Pad1)*%
X91397500Y-77512500D02*
X85725000Y-83185000D01*
X66802000Y-102235000D02*
X66802000Y-94742000D01*
X66802000Y-94742000D02*
X74549000Y-86995000D01*
X70840000Y-104140000D02*
X68707000Y-104140000D01*
X74549000Y-86995000D02*
X80010000Y-86995000D01*
X68707000Y-104140000D02*
X66802000Y-102235000D01*
X93330000Y-77512500D02*
X91397500Y-77512500D01*
%TO.N,Net-(U1A-+)*%
X106045000Y-97155000D02*
X107423593Y-95776407D01*
X107423593Y-95776407D02*
X107423593Y-92195007D01*
X107423593Y-92195007D02*
X110833586Y-95605000D01*
X98780000Y-97155000D02*
X106045000Y-97155000D01*
X96520000Y-94895000D02*
X98780000Y-97155000D01*
X110833586Y-95605000D02*
X113030000Y-95605000D01*
X104648000Y-89419414D02*
X107423593Y-92195007D01*
X104648000Y-88651200D02*
X104648000Y-89419414D01*
%TO.N,Net-(U1A--)*%
X103378000Y-91287000D02*
X102870000Y-91795000D01*
X103378000Y-88651200D02*
X103378000Y-91287000D01*
X102108000Y-88651200D02*
X103378000Y-88651200D01*
%TO.N,Net-(U2A-+)*%
X67590000Y-106680000D02*
X113030000Y-106680000D01*
X62510000Y-111760000D02*
X67590000Y-106680000D01*
%TO.N,Net-(Ru1-Pad1)*%
X70560000Y-98604000D02*
X80264000Y-88900000D01*
X70560000Y-100330000D02*
X70560000Y-98604000D01*
X93345000Y-82550000D02*
X95870000Y-80025000D01*
X95870000Y-80025000D02*
X95870000Y-77512500D01*
X80264000Y-88900000D02*
X86995000Y-88900000D01*
%TO.N,Net-(Ru1-Pad2)*%
X73660000Y-100330000D02*
X84175000Y-100330000D01*
%TO.N,Net-(SW1-B)*%
X56692800Y-89458800D02*
X75776600Y-70375000D01*
X56692800Y-96977200D02*
X56692800Y-89458800D01*
X60960000Y-98425000D02*
X58140600Y-98425000D01*
X75776600Y-70375000D02*
X81845000Y-70375000D01*
X58140600Y-98425000D02*
X56692800Y-96977200D01*
%TO.N,Net-(R2B2-Pad2)*%
X132715000Y-100685000D02*
X132715000Y-99796600D01*
X132715000Y-99796600D02*
X135001600Y-97510000D01*
X135001600Y-97510000D02*
X137795000Y-97510000D01*
%TD*%
%TA.AperFunction,Conductor*%
%TO.N,GND*%
G36*
X144718000Y-41102313D02*
G01*
X144763387Y-41147700D01*
X144780000Y-41209700D01*
X144780000Y-128146000D01*
X144763387Y-128208000D01*
X144718000Y-128253387D01*
X144656000Y-128270000D01*
X53464000Y-128270000D01*
X53402000Y-128253387D01*
X53356613Y-128208000D01*
X53340000Y-128146000D01*
X53340000Y-120650000D01*
X55644466Y-120650000D01*
X55664588Y-121123678D01*
X55724810Y-121593962D01*
X55824695Y-122057429D01*
X55963529Y-122510770D01*
X56140301Y-122950684D01*
X56140303Y-122950688D01*
X56353751Y-123374036D01*
X56602332Y-123777758D01*
X56884256Y-124158944D01*
X56884259Y-124158948D01*
X56884261Y-124158950D01*
X57197489Y-124514846D01*
X57539784Y-124842909D01*
X57908652Y-125140750D01*
X58300829Y-125405815D01*
X58301464Y-125406244D01*
X58508417Y-125521855D01*
X58715375Y-125637469D01*
X59048209Y-125787918D01*
X59147398Y-125832755D01*
X59593076Y-125990223D01*
X59594429Y-125990701D01*
X60053248Y-126110168D01*
X60520537Y-126190293D01*
X60992940Y-126230500D01*
X60992943Y-126230500D01*
X61467057Y-126230500D01*
X61467060Y-126230500D01*
X61939462Y-126190293D01*
X62406751Y-126110168D01*
X62406752Y-126110167D01*
X62406756Y-126110167D01*
X62865571Y-125990701D01*
X63312602Y-125832755D01*
X63744628Y-125637467D01*
X64158536Y-125406244D01*
X64551343Y-125140753D01*
X64920220Y-124842905D01*
X64996739Y-124769568D01*
X87433984Y-124769568D01*
X87433985Y-124769569D01*
X87510108Y-124842527D01*
X87878950Y-125140347D01*
X88271724Y-125405815D01*
X88685601Y-125637021D01*
X89117578Y-125832287D01*
X89564578Y-125990223D01*
X90023354Y-126109678D01*
X90490600Y-126189796D01*
X90962962Y-126230000D01*
X91437038Y-126230000D01*
X91909399Y-126189796D01*
X92376645Y-126109678D01*
X92835421Y-125990223D01*
X93282421Y-125832287D01*
X93714398Y-125637021D01*
X94128275Y-125405815D01*
X94521049Y-125140347D01*
X94889884Y-124842533D01*
X94966014Y-124769568D01*
X91200000Y-121003553D01*
X87433984Y-124769568D01*
X64996739Y-124769568D01*
X65262510Y-124514847D01*
X65575744Y-124158944D01*
X65857668Y-123777758D01*
X66106249Y-123374036D01*
X66319697Y-122950688D01*
X66496473Y-122510763D01*
X66635304Y-122057432D01*
X66735190Y-121593960D01*
X66795411Y-121123686D01*
X66815533Y-120650000D01*
X66815533Y-120649999D01*
X85614967Y-120649999D01*
X85635087Y-121123636D01*
X85695304Y-121593877D01*
X85795180Y-122057303D01*
X85934001Y-122510603D01*
X86110758Y-122950478D01*
X86324187Y-123373789D01*
X86572748Y-123777479D01*
X86854644Y-124158628D01*
X87080825Y-124415619D01*
X90846446Y-120650000D01*
X90846446Y-120649999D01*
X91553553Y-120649999D01*
X95319174Y-124415620D01*
X95545354Y-124158629D01*
X95827251Y-123777479D01*
X96075812Y-123373789D01*
X96289241Y-122950478D01*
X96465998Y-122510603D01*
X96604819Y-122057303D01*
X96704695Y-121593877D01*
X96764912Y-121123636D01*
X96785032Y-120649999D01*
X96764912Y-120176363D01*
X96704695Y-119706122D01*
X96604819Y-119242696D01*
X96465998Y-118789396D01*
X96289241Y-118349521D01*
X96075812Y-117926210D01*
X95827251Y-117522520D01*
X95545355Y-117141371D01*
X95319173Y-116884379D01*
X91553553Y-120649999D01*
X90846446Y-120649999D01*
X90846446Y-120649998D01*
X87080825Y-116884379D01*
X86854644Y-117141371D01*
X86572748Y-117522520D01*
X86324187Y-117926210D01*
X86110758Y-118349521D01*
X85934001Y-118789396D01*
X85795180Y-119242696D01*
X85695304Y-119706122D01*
X85635087Y-120176363D01*
X85614967Y-120649999D01*
X66815533Y-120649999D01*
X66795411Y-120176314D01*
X66735190Y-119706040D01*
X66635304Y-119242568D01*
X66496473Y-118789237D01*
X66319697Y-118349312D01*
X66106249Y-117925964D01*
X65857668Y-117522242D01*
X65575744Y-117141056D01*
X65262510Y-116785153D01*
X65035133Y-116567230D01*
X64996737Y-116530430D01*
X87433984Y-116530430D01*
X91199999Y-120296445D01*
X94966014Y-116530430D01*
X94966013Y-116530429D01*
X94889891Y-116457472D01*
X94521049Y-116159652D01*
X94128275Y-115894184D01*
X93714398Y-115662978D01*
X93282421Y-115467712D01*
X92835421Y-115309776D01*
X92376645Y-115190321D01*
X91909399Y-115110203D01*
X91437038Y-115070000D01*
X90962962Y-115070000D01*
X90490600Y-115110203D01*
X90023354Y-115190321D01*
X89564578Y-115309776D01*
X89117578Y-115467712D01*
X88685601Y-115662978D01*
X88271724Y-115894184D01*
X87878950Y-116159652D01*
X87510115Y-116457466D01*
X87433984Y-116530430D01*
X64996737Y-116530430D01*
X64920215Y-116457090D01*
X64551347Y-116159249D01*
X64158538Y-115893757D01*
X63744624Y-115662530D01*
X63312605Y-115467246D01*
X62865570Y-115309298D01*
X62406751Y-115189831D01*
X61939462Y-115109706D01*
X61467060Y-115069500D01*
X61467057Y-115069500D01*
X60992943Y-115069500D01*
X60992940Y-115069500D01*
X60545016Y-115107623D01*
X60478675Y-115094793D01*
X60428910Y-115049084D01*
X60410500Y-114984070D01*
X60410500Y-113511196D01*
X60428961Y-113446100D01*
X60439767Y-113428579D01*
X60494814Y-113339334D01*
X60549999Y-113172797D01*
X60560500Y-113070009D01*
X60560500Y-113070008D01*
X61359500Y-113070008D01*
X61370000Y-113172796D01*
X61425186Y-113339334D01*
X61517288Y-113488657D01*
X61641342Y-113612711D01*
X61641344Y-113612712D01*
X61790666Y-113704814D01*
X61902016Y-113741712D01*
X61957202Y-113759999D01*
X61967702Y-113761071D01*
X62059991Y-113770500D01*
X62960008Y-113770499D01*
X63062797Y-113759999D01*
X63229334Y-113704814D01*
X63378656Y-113612712D01*
X63502712Y-113488656D01*
X63594814Y-113339334D01*
X63649999Y-113172797D01*
X63660500Y-113070009D01*
X63660499Y-111722229D01*
X63669938Y-111674777D01*
X63696818Y-111634549D01*
X65901154Y-109430214D01*
X74850214Y-109430214D01*
X74850214Y-113109786D01*
X90301213Y-113109786D01*
X90301213Y-109430214D01*
X74850214Y-109430214D01*
X65901154Y-109430214D01*
X67864549Y-107466819D01*
X67904777Y-107439939D01*
X67952230Y-107430500D01*
X92856533Y-107430500D01*
X92911912Y-107443554D01*
X92955632Y-107479966D01*
X92978488Y-107532071D01*
X92975667Y-107588898D01*
X92947763Y-107638482D01*
X92902854Y-107687267D01*
X92871020Y-107721848D01*
X92744076Y-107916150D01*
X92650844Y-108128696D01*
X92650842Y-108128700D01*
X92650843Y-108128700D01*
X92599245Y-108332456D01*
X92593865Y-108353700D01*
X92574699Y-108585000D01*
X92593865Y-108816299D01*
X92593865Y-108816301D01*
X92593866Y-108816305D01*
X92650843Y-109041300D01*
X92650844Y-109041303D01*
X92744075Y-109253848D01*
X92744076Y-109253849D01*
X92871021Y-109448153D01*
X93028216Y-109618913D01*
X93211374Y-109761470D01*
X93415497Y-109871936D01*
X93525258Y-109909617D01*
X93635015Y-109947297D01*
X93635017Y-109947297D01*
X93635019Y-109947298D01*
X93863951Y-109985500D01*
X93924551Y-109985500D01*
X93961673Y-109991187D01*
X93995388Y-110007725D01*
X94008349Y-110016746D01*
X94015869Y-110022416D01*
X94061593Y-110059698D01*
X94088556Y-110073782D01*
X94101980Y-110081915D01*
X94126951Y-110099295D01*
X94181163Y-110122559D01*
X94189663Y-110126595D01*
X94241950Y-110153908D01*
X94241951Y-110153909D01*
X94271196Y-110162277D01*
X94285986Y-110167543D01*
X94293464Y-110170752D01*
X94313942Y-110179540D01*
X94371737Y-110191416D01*
X94380854Y-110193654D01*
X94437582Y-110209887D01*
X94467916Y-110212196D01*
X94483453Y-110214374D01*
X94513259Y-110220500D01*
X94572243Y-110220500D01*
X94581657Y-110220858D01*
X94640477Y-110225337D01*
X94670652Y-110221493D01*
X94686318Y-110220500D01*
X112152412Y-110220500D01*
X112189699Y-110226239D01*
X112223533Y-110242924D01*
X112377266Y-110350568D01*
X112583504Y-110446739D01*
X112803308Y-110505635D01*
X112952870Y-110518720D01*
X113029999Y-110525468D01*
X113029999Y-110525467D01*
X113030000Y-110525468D01*
X113214398Y-110509335D01*
X113273655Y-110518720D01*
X113321571Y-110554827D01*
X113346927Y-110609202D01*
X113343787Y-110669117D01*
X113312886Y-110720544D01*
X111155251Y-112878181D01*
X111115023Y-112905061D01*
X111067570Y-112914500D01*
X101663706Y-112914500D01*
X101645736Y-112913191D01*
X101631853Y-112911157D01*
X101621977Y-112909711D01*
X101621976Y-112909711D01*
X101572634Y-112914028D01*
X101561827Y-112914500D01*
X101556291Y-112914500D01*
X101525483Y-112918100D01*
X101521900Y-112918466D01*
X101445950Y-112925111D01*
X101426922Y-112929329D01*
X101355270Y-112955407D01*
X101351869Y-112956589D01*
X101279480Y-112980578D01*
X101261927Y-112989076D01*
X101198236Y-113030965D01*
X101195198Y-113032901D01*
X101130277Y-113072947D01*
X101115163Y-113085258D01*
X101062831Y-113140726D01*
X101060319Y-113143312D01*
X98574358Y-115629272D01*
X98560727Y-115641053D01*
X98541467Y-115655392D01*
X98509633Y-115693329D01*
X98502341Y-115701289D01*
X98498408Y-115705222D01*
X98479176Y-115729545D01*
X98476902Y-115732337D01*
X98427894Y-115790744D01*
X98417418Y-115807187D01*
X98385192Y-115876294D01*
X98383622Y-115879536D01*
X98349393Y-115947692D01*
X98342996Y-115966098D01*
X98327573Y-116040788D01*
X98326793Y-116044305D01*
X98309208Y-116118505D01*
X98307229Y-116137878D01*
X98309448Y-116214131D01*
X98309500Y-116217737D01*
X98309500Y-123761294D01*
X98308191Y-123779264D01*
X98304711Y-123803023D01*
X98309028Y-123852369D01*
X98309500Y-123863176D01*
X98309500Y-123868708D01*
X98313098Y-123899496D01*
X98313464Y-123903081D01*
X98320110Y-123979041D01*
X98324329Y-123998071D01*
X98324758Y-123999251D01*
X98324759Y-123999255D01*
X98350413Y-124069742D01*
X98351582Y-124073107D01*
X98375580Y-124145524D01*
X98384075Y-124163072D01*
X98425979Y-124226784D01*
X98427889Y-124229782D01*
X98467288Y-124293656D01*
X98467952Y-124294732D01*
X98480253Y-124309830D01*
X98481168Y-124310693D01*
X98481170Y-124310696D01*
X98535708Y-124362150D01*
X98538295Y-124364663D01*
X101659269Y-127485637D01*
X101671051Y-127499270D01*
X101685389Y-127518529D01*
X101723337Y-127550372D01*
X101731311Y-127557680D01*
X101735221Y-127561590D01*
X101759537Y-127580816D01*
X101762336Y-127583096D01*
X101820752Y-127632113D01*
X101837179Y-127642578D01*
X101906320Y-127674819D01*
X101909567Y-127676391D01*
X101977699Y-127710609D01*
X101996087Y-127717000D01*
X101997323Y-127717255D01*
X101997327Y-127717257D01*
X102070895Y-127732447D01*
X102074242Y-127733189D01*
X102147279Y-127750500D01*
X102147281Y-127750500D01*
X102148509Y-127750791D01*
X102167878Y-127752770D01*
X102169140Y-127752733D01*
X102169144Y-127752734D01*
X102241533Y-127750627D01*
X102244131Y-127750552D01*
X102247737Y-127750500D01*
X116420694Y-127750500D01*
X116438664Y-127751809D01*
X116442720Y-127752402D01*
X116462423Y-127755289D01*
X116511768Y-127750972D01*
X116522576Y-127750500D01*
X116528106Y-127750500D01*
X116528109Y-127750500D01*
X116558950Y-127746894D01*
X116562431Y-127746539D01*
X116637197Y-127739999D01*
X116637197Y-127739998D01*
X116638452Y-127739889D01*
X116657462Y-127735674D01*
X116658650Y-127735241D01*
X116658655Y-127735241D01*
X116729220Y-127709557D01*
X116732495Y-127708419D01*
X116803734Y-127684814D01*
X116803736Y-127684812D01*
X116804936Y-127684415D01*
X116822463Y-127675929D01*
X116823512Y-127675238D01*
X116823517Y-127675237D01*
X116886206Y-127634005D01*
X116889198Y-127632099D01*
X116953056Y-127592712D01*
X116953056Y-127592711D01*
X116954129Y-127592050D01*
X116969224Y-127579753D01*
X116970092Y-127578832D01*
X116970096Y-127578830D01*
X117021584Y-127524254D01*
X117024030Y-127521736D01*
X119776198Y-124769568D01*
X133123984Y-124769568D01*
X133123985Y-124769569D01*
X133200108Y-124842527D01*
X133568950Y-125140347D01*
X133961724Y-125405815D01*
X134375601Y-125637021D01*
X134807578Y-125832287D01*
X135254578Y-125990223D01*
X135713354Y-126109678D01*
X136180600Y-126189796D01*
X136652962Y-126230000D01*
X137127038Y-126230000D01*
X137599399Y-126189796D01*
X138066645Y-126109678D01*
X138525421Y-125990223D01*
X138972421Y-125832287D01*
X139404398Y-125637021D01*
X139818275Y-125405815D01*
X140211049Y-125140347D01*
X140579884Y-124842533D01*
X140656014Y-124769568D01*
X136890000Y-121003553D01*
X133123984Y-124769568D01*
X119776198Y-124769568D01*
X123895767Y-120649999D01*
X131304967Y-120649999D01*
X131325087Y-121123636D01*
X131385304Y-121593877D01*
X131485180Y-122057303D01*
X131624001Y-122510603D01*
X131800758Y-122950478D01*
X132014187Y-123373789D01*
X132262748Y-123777479D01*
X132544644Y-124158628D01*
X132770825Y-124415619D01*
X136536446Y-120650000D01*
X137243553Y-120650000D01*
X141009174Y-124415620D01*
X141235354Y-124158629D01*
X141517251Y-123777479D01*
X141765812Y-123373789D01*
X141979241Y-122950478D01*
X142155998Y-122510603D01*
X142294819Y-122057303D01*
X142394695Y-121593877D01*
X142454912Y-121123636D01*
X142475032Y-120649999D01*
X142454912Y-120176363D01*
X142394695Y-119706122D01*
X142294819Y-119242696D01*
X142155998Y-118789396D01*
X141979241Y-118349521D01*
X141765812Y-117926210D01*
X141517251Y-117522520D01*
X141235355Y-117141371D01*
X141009173Y-116884379D01*
X137243553Y-120649998D01*
X137243553Y-120650000D01*
X136536446Y-120650000D01*
X136536446Y-120649998D01*
X132770825Y-116884379D01*
X132544644Y-117141371D01*
X132262748Y-117522520D01*
X132014187Y-117926210D01*
X131800758Y-118349521D01*
X131624001Y-118789396D01*
X131485180Y-119242696D01*
X131385304Y-119706122D01*
X131325087Y-120176363D01*
X131304967Y-120649999D01*
X123895767Y-120649999D01*
X128015336Y-116530430D01*
X133123984Y-116530430D01*
X136889999Y-120296445D01*
X140656014Y-116530430D01*
X140656013Y-116530429D01*
X140579891Y-116457472D01*
X140211049Y-116159652D01*
X139818275Y-115894184D01*
X139404398Y-115662978D01*
X138972421Y-115467712D01*
X138525421Y-115309776D01*
X138066645Y-115190321D01*
X137599399Y-115110203D01*
X137127038Y-115070000D01*
X136652962Y-115070000D01*
X136180600Y-115110203D01*
X135713354Y-115190321D01*
X135254578Y-115309776D01*
X134807578Y-115467712D01*
X134375601Y-115662978D01*
X133961724Y-115894184D01*
X133568950Y-116159652D01*
X133200115Y-116457466D01*
X133123984Y-116530430D01*
X128015336Y-116530430D01*
X137999446Y-106546319D01*
X137999451Y-106546316D01*
X138009654Y-106536112D01*
X138009656Y-106536112D01*
X138168968Y-106376800D01*
X138280638Y-106265128D01*
X138294271Y-106253346D01*
X138313530Y-106239010D01*
X138345379Y-106201052D01*
X138352667Y-106193099D01*
X142624038Y-101921727D01*
X142637656Y-101909957D01*
X142656930Y-101895610D01*
X142688782Y-101857649D01*
X142696068Y-101849697D01*
X142699990Y-101845777D01*
X142719259Y-101821405D01*
X142721454Y-101818711D01*
X142769702Y-101761214D01*
X142769702Y-101761212D01*
X142770517Y-101760242D01*
X142780966Y-101743840D01*
X142781505Y-101742682D01*
X142781510Y-101742677D01*
X142813232Y-101674647D01*
X142814748Y-101671516D01*
X142848440Y-101604433D01*
X142848440Y-101604429D01*
X142849010Y-101603296D01*
X142855399Y-101584917D01*
X142861853Y-101553657D01*
X142870831Y-101510171D01*
X142871586Y-101506767D01*
X142888900Y-101433721D01*
X142888900Y-101433719D01*
X142889190Y-101432495D01*
X142891169Y-101413123D01*
X142891132Y-101411859D01*
X142891133Y-101411856D01*
X142888952Y-101336889D01*
X142888900Y-101333284D01*
X142888900Y-97599706D01*
X142890209Y-97581736D01*
X142890738Y-97578118D01*
X142893689Y-97557977D01*
X142889372Y-97508631D01*
X142888900Y-97497824D01*
X142888900Y-97492289D01*
X142885303Y-97461521D01*
X142884936Y-97457929D01*
X142878289Y-97381949D01*
X142874072Y-97362930D01*
X142860244Y-97324938D01*
X142847991Y-97291273D01*
X142846808Y-97287868D01*
X142822817Y-97215468D01*
X142814329Y-97197936D01*
X142813637Y-97196884D01*
X142813637Y-97196883D01*
X142772399Y-97134184D01*
X142770487Y-97131181D01*
X142730450Y-97066270D01*
X142718150Y-97051172D01*
X142662690Y-96998848D01*
X142660103Y-96996335D01*
X139615328Y-93951560D01*
X139603546Y-93937927D01*
X139600366Y-93933656D01*
X139589210Y-93918670D01*
X139551267Y-93886831D01*
X139543291Y-93879523D01*
X139539382Y-93875614D01*
X139539377Y-93875609D01*
X139515023Y-93856352D01*
X139512247Y-93854090D01*
X139453851Y-93805090D01*
X139437421Y-93794622D01*
X139368291Y-93762386D01*
X139365047Y-93760815D01*
X139296906Y-93726594D01*
X139278503Y-93720197D01*
X139203811Y-93704774D01*
X139200292Y-93703994D01*
X139126090Y-93686408D01*
X139106721Y-93684429D01*
X139030469Y-93686648D01*
X139026863Y-93686700D01*
X134074106Y-93686700D01*
X134056136Y-93685391D01*
X134042253Y-93683357D01*
X134032377Y-93681911D01*
X134032376Y-93681911D01*
X133983031Y-93686228D01*
X133972224Y-93686700D01*
X133966691Y-93686700D01*
X133935901Y-93690298D01*
X133932317Y-93690664D01*
X133856361Y-93697309D01*
X133837321Y-93701530D01*
X133765632Y-93727621D01*
X133762231Y-93728803D01*
X133689879Y-93752779D01*
X133672325Y-93761277D01*
X133608628Y-93803170D01*
X133605590Y-93805105D01*
X133540681Y-93845143D01*
X133525564Y-93857456D01*
X133473248Y-93912908D01*
X133470736Y-93915494D01*
X131874358Y-95511872D01*
X131860727Y-95523653D01*
X131841467Y-95537992D01*
X131809633Y-95575929D01*
X131802341Y-95583889D01*
X131798408Y-95587822D01*
X131779176Y-95612145D01*
X131776902Y-95614937D01*
X131727894Y-95673344D01*
X131717418Y-95689787D01*
X131685192Y-95758894D01*
X131683622Y-95762137D01*
X131658258Y-95812642D01*
X131612544Y-95862531D01*
X131491341Y-95937289D01*
X131367288Y-96061342D01*
X131275186Y-96210665D01*
X131220000Y-96377202D01*
X131209500Y-96479990D01*
X131209500Y-97830008D01*
X131220000Y-97932796D01*
X131275186Y-98099334D01*
X131367288Y-98248657D01*
X131491342Y-98372711D01*
X131491344Y-98372712D01*
X131640666Y-98464814D01*
X131752016Y-98501712D01*
X131807202Y-98519999D01*
X131817702Y-98521071D01*
X131909991Y-98530500D01*
X132620369Y-98530499D01*
X132676664Y-98544014D01*
X132720687Y-98581614D01*
X132742842Y-98635101D01*
X132738300Y-98692817D01*
X132708050Y-98742180D01*
X132229358Y-99220872D01*
X132215727Y-99232653D01*
X132196467Y-99246992D01*
X132164633Y-99284929D01*
X132157341Y-99292889D01*
X132153408Y-99296822D01*
X132134176Y-99321145D01*
X132131902Y-99323937D01*
X132082894Y-99382344D01*
X132072418Y-99398787D01*
X132040186Y-99467907D01*
X132038616Y-99471150D01*
X132035538Y-99477279D01*
X131995114Y-99523716D01*
X131949964Y-99540337D01*
X131950094Y-99540729D01*
X131938144Y-99544688D01*
X131937337Y-99544986D01*
X131937207Y-99544999D01*
X131770665Y-99600186D01*
X131621342Y-99692288D01*
X131497288Y-99816342D01*
X131405186Y-99965665D01*
X131350000Y-100132202D01*
X131339500Y-100234990D01*
X131339500Y-101135008D01*
X131350000Y-101237796D01*
X131405186Y-101404334D01*
X131497288Y-101553657D01*
X131621342Y-101677711D01*
X131665585Y-101705000D01*
X131770666Y-101769814D01*
X131882016Y-101806712D01*
X131937202Y-101824999D01*
X131947703Y-101826071D01*
X132039991Y-101835500D01*
X133390008Y-101835499D01*
X133492797Y-101824999D01*
X133659334Y-101769814D01*
X133808656Y-101677712D01*
X133932712Y-101553656D01*
X134024814Y-101404334D01*
X134079999Y-101237797D01*
X134090500Y-101135009D01*
X134090499Y-100234992D01*
X134079999Y-100132203D01*
X134024814Y-99965666D01*
X133958159Y-99857600D01*
X133932711Y-99816342D01*
X133932349Y-99815980D01*
X133930315Y-99812457D01*
X133925103Y-99804007D01*
X133925348Y-99803855D01*
X133900255Y-99760393D01*
X133900255Y-99696205D01*
X133932347Y-99640620D01*
X135276148Y-98296819D01*
X135316377Y-98269939D01*
X135363830Y-98260500D01*
X136435202Y-98260500D01*
X136495634Y-98276223D01*
X136540741Y-98319404D01*
X136577288Y-98378657D01*
X136701342Y-98502711D01*
X136745585Y-98530000D01*
X136850666Y-98594814D01*
X136962016Y-98631712D01*
X137017202Y-98649999D01*
X137027702Y-98651071D01*
X137119991Y-98660500D01*
X138470008Y-98660499D01*
X138572797Y-98649999D01*
X138739334Y-98594814D01*
X138888656Y-98502712D01*
X139012712Y-98378656D01*
X139104814Y-98229334D01*
X139159999Y-98062797D01*
X139170500Y-97960009D01*
X139170499Y-97059992D01*
X139166308Y-97018969D01*
X139159999Y-96957203D01*
X139151470Y-96931464D01*
X139104814Y-96790666D01*
X139042608Y-96689813D01*
X139012711Y-96641342D01*
X138888657Y-96517288D01*
X138739334Y-96425186D01*
X138572797Y-96370000D01*
X138470009Y-96359500D01*
X137119991Y-96359500D01*
X137017203Y-96370000D01*
X136850665Y-96425186D01*
X136701342Y-96517288D01*
X136577288Y-96641342D01*
X136540741Y-96700596D01*
X136495634Y-96743777D01*
X136435202Y-96759500D01*
X135065306Y-96759500D01*
X135047336Y-96758191D01*
X135028963Y-96755500D01*
X135023577Y-96754711D01*
X135023576Y-96754711D01*
X134974231Y-96759028D01*
X134963424Y-96759500D01*
X134957891Y-96759500D01*
X134927101Y-96763098D01*
X134923517Y-96763464D01*
X134847561Y-96770109D01*
X134828521Y-96774330D01*
X134756832Y-96800421D01*
X134753431Y-96801603D01*
X134681074Y-96825580D01*
X134663527Y-96834075D01*
X134599821Y-96875975D01*
X134596781Y-96877912D01*
X134531880Y-96917944D01*
X134516764Y-96930257D01*
X134464431Y-96985726D01*
X134461919Y-96988312D01*
X133722180Y-97728050D01*
X133672817Y-97758300D01*
X133615101Y-97762842D01*
X133561614Y-97740687D01*
X133524014Y-97696664D01*
X133510499Y-97640372D01*
X133510499Y-96479992D01*
X133499999Y-96377203D01*
X133444814Y-96210666D01*
X133440391Y-96203495D01*
X133422634Y-96151601D01*
X133429001Y-96097121D01*
X133458246Y-96050720D01*
X134284948Y-95224019D01*
X134325177Y-95197139D01*
X134372630Y-95187700D01*
X138677370Y-95187700D01*
X138724823Y-95197139D01*
X138765051Y-95224019D01*
X141351581Y-97810549D01*
X141378461Y-97850777D01*
X141387900Y-97898230D01*
X141387900Y-100983771D01*
X141378461Y-101031224D01*
X141351581Y-101071452D01*
X138757181Y-103665851D01*
X138707818Y-103696101D01*
X138650102Y-103700643D01*
X138596615Y-103678488D01*
X138559015Y-103634465D01*
X138545500Y-103578170D01*
X138545500Y-101848585D01*
X138556123Y-101798370D01*
X138586171Y-101756758D01*
X138630494Y-101730879D01*
X138739334Y-101694814D01*
X138888656Y-101602712D01*
X139012712Y-101478656D01*
X139104814Y-101329334D01*
X139159999Y-101162797D01*
X139170500Y-101060009D01*
X139170499Y-100159992D01*
X139159999Y-100057203D01*
X139104814Y-99890666D01*
X139025871Y-99762678D01*
X139012711Y-99741342D01*
X138888657Y-99617288D01*
X138739334Y-99525186D01*
X138572797Y-99470000D01*
X138470009Y-99459500D01*
X137119991Y-99459500D01*
X137017203Y-99470000D01*
X136850665Y-99525186D01*
X136701342Y-99617288D01*
X136577288Y-99741342D01*
X136485186Y-99890665D01*
X136430000Y-100057202D01*
X136419500Y-100159990D01*
X136419500Y-101060008D01*
X136430000Y-101162796D01*
X136485186Y-101329334D01*
X136577288Y-101478657D01*
X136701342Y-101602711D01*
X136704134Y-101604433D01*
X136850666Y-101694814D01*
X136959505Y-101730879D01*
X137003829Y-101756758D01*
X137033877Y-101798370D01*
X137044500Y-101848585D01*
X137044500Y-105327170D01*
X137035061Y-105374623D01*
X137008181Y-105414851D01*
X116209851Y-126213181D01*
X116169623Y-126240061D01*
X116122170Y-126249500D01*
X108529977Y-126249500D01*
X108472590Y-126235422D01*
X108428235Y-126196384D01*
X108406981Y-126141250D01*
X108413657Y-126082540D01*
X108446744Y-126033585D01*
X108498732Y-126005501D01*
X108528783Y-125997675D01*
X108555571Y-125990701D01*
X109002602Y-125832755D01*
X109434628Y-125637467D01*
X109848536Y-125406244D01*
X110241343Y-125140753D01*
X110610220Y-124842905D01*
X110952510Y-124514847D01*
X111265744Y-124158944D01*
X111547668Y-123777758D01*
X111796249Y-123374036D01*
X112009697Y-122950688D01*
X112186473Y-122510763D01*
X112325304Y-122057432D01*
X112391911Y-121748375D01*
X112415559Y-121697974D01*
X112458875Y-121662998D01*
X112513128Y-121650500D01*
X116114521Y-121650500D01*
X116117662Y-121650539D01*
X116205163Y-121652757D01*
X116263232Y-121642348D01*
X116272536Y-121641043D01*
X116331238Y-121635074D01*
X116360267Y-121625965D01*
X116375500Y-121622226D01*
X116405453Y-121616858D01*
X116460226Y-121594978D01*
X116469101Y-121591819D01*
X116486475Y-121586367D01*
X116525388Y-121574159D01*
X116551994Y-121559390D01*
X116566162Y-121552662D01*
X116594417Y-121541377D01*
X116643679Y-121508909D01*
X116651710Y-121504043D01*
X116703302Y-121475409D01*
X116726387Y-121455589D01*
X116738914Y-121446144D01*
X116764319Y-121429402D01*
X116806051Y-121387668D01*
X116812923Y-121381300D01*
X116857695Y-121342866D01*
X116876324Y-121318798D01*
X116886683Y-121307036D01*
X125157389Y-113036329D01*
X125159559Y-113034213D01*
X125223053Y-112973859D01*
X125256759Y-112925430D01*
X125262428Y-112917913D01*
X125265596Y-112914028D01*
X125299698Y-112872207D01*
X125313783Y-112845239D01*
X125321918Y-112831815D01*
X125328373Y-112822540D01*
X125339295Y-112806849D01*
X125362568Y-112752615D01*
X125366598Y-112744131D01*
X125393908Y-112691851D01*
X125393909Y-112691849D01*
X125402278Y-112662597D01*
X125407534Y-112647832D01*
X125419540Y-112619858D01*
X125431418Y-112562056D01*
X125433651Y-112552956D01*
X125449887Y-112496218D01*
X125452197Y-112465877D01*
X125454376Y-112450335D01*
X125460500Y-112420541D01*
X125460500Y-112361558D01*
X125460858Y-112352144D01*
X125460964Y-112350746D01*
X125465337Y-112293324D01*
X125461493Y-112263148D01*
X125460500Y-112247483D01*
X125460500Y-111254378D01*
X125476223Y-111193946D01*
X125519404Y-111148839D01*
X125532145Y-111140979D01*
X125553656Y-111127712D01*
X125677712Y-111003656D01*
X125769814Y-110854334D01*
X125824999Y-110687797D01*
X125835500Y-110585009D01*
X125835499Y-109684992D01*
X125824999Y-109582203D01*
X125769814Y-109415666D01*
X125677712Y-109266344D01*
X125677711Y-109266342D01*
X125553657Y-109142288D01*
X125404334Y-109050186D01*
X125237797Y-108995000D01*
X125135009Y-108984500D01*
X123784991Y-108984500D01*
X123682203Y-108995000D01*
X123515665Y-109050186D01*
X123366342Y-109142288D01*
X123242288Y-109266342D01*
X123150186Y-109415665D01*
X123095000Y-109582202D01*
X123084500Y-109684990D01*
X123084500Y-110585008D01*
X123095000Y-110687796D01*
X123150186Y-110854334D01*
X123242288Y-111003657D01*
X123366342Y-111127711D01*
X123400596Y-111148839D01*
X123443777Y-111193946D01*
X123459500Y-111254378D01*
X123459500Y-111853017D01*
X123450061Y-111900470D01*
X123423181Y-111940698D01*
X115750699Y-119613181D01*
X115710471Y-119640061D01*
X115663018Y-119649500D01*
X112513128Y-119649500D01*
X112458875Y-119637002D01*
X112415559Y-119602026D01*
X112391911Y-119551624D01*
X112325304Y-119242568D01*
X112186473Y-118789237D01*
X112009697Y-118349312D01*
X111796249Y-117925964D01*
X111547668Y-117522242D01*
X111265744Y-117141056D01*
X110952510Y-116785153D01*
X110725133Y-116567230D01*
X110610215Y-116457090D01*
X110241347Y-116159249D01*
X109848538Y-115893757D01*
X109434624Y-115662530D01*
X109002605Y-115467246D01*
X108555570Y-115309298D01*
X108096751Y-115189831D01*
X107629462Y-115109706D01*
X107157060Y-115069500D01*
X107157057Y-115069500D01*
X106682943Y-115069500D01*
X106682940Y-115069500D01*
X106210537Y-115109706D01*
X105743248Y-115189831D01*
X105284429Y-115309298D01*
X104837394Y-115467246D01*
X104405375Y-115662530D01*
X103991461Y-115893757D01*
X103598652Y-116159249D01*
X103229784Y-116457090D01*
X102887489Y-116785153D01*
X102574261Y-117141049D01*
X102292330Y-117522245D01*
X102043750Y-117925966D01*
X101830301Y-118349315D01*
X101653529Y-118789229D01*
X101514695Y-119242570D01*
X101414810Y-119706037D01*
X101354588Y-120176321D01*
X101334466Y-120650000D01*
X101354588Y-121123678D01*
X101414810Y-121593962D01*
X101514695Y-122057429D01*
X101653529Y-122510770D01*
X101830301Y-122950684D01*
X101830303Y-122950688D01*
X102043751Y-123374036D01*
X102292332Y-123777758D01*
X102574256Y-124158944D01*
X102574259Y-124158948D01*
X102574261Y-124158950D01*
X102887489Y-124514846D01*
X103229784Y-124842909D01*
X103598652Y-125140750D01*
X103990829Y-125405815D01*
X103991464Y-125406244D01*
X104198417Y-125521855D01*
X104405375Y-125637469D01*
X104738209Y-125787918D01*
X104837398Y-125832755D01*
X105283076Y-125990223D01*
X105284429Y-125990701D01*
X105341268Y-126005501D01*
X105393256Y-126033585D01*
X105426343Y-126082540D01*
X105433019Y-126141250D01*
X105411765Y-126196384D01*
X105367410Y-126235422D01*
X105310023Y-126249500D01*
X102597230Y-126249500D01*
X102549777Y-126240061D01*
X102509549Y-126213181D01*
X99846819Y-123550451D01*
X99819939Y-123510223D01*
X99810500Y-123462770D01*
X99810500Y-116567230D01*
X99819939Y-116519777D01*
X99846819Y-116479549D01*
X101874548Y-114451819D01*
X101914776Y-114424939D01*
X101962229Y-114415500D01*
X111366094Y-114415500D01*
X111384064Y-114416809D01*
X111388120Y-114417402D01*
X111407823Y-114420289D01*
X111457168Y-114415972D01*
X111467976Y-114415500D01*
X111473506Y-114415500D01*
X111473509Y-114415500D01*
X111504350Y-114411894D01*
X111507831Y-114411539D01*
X111582597Y-114404999D01*
X111582597Y-114404998D01*
X111583852Y-114404889D01*
X111602862Y-114400674D01*
X111604050Y-114400241D01*
X111604055Y-114400241D01*
X111674620Y-114374557D01*
X111677895Y-114373419D01*
X111749134Y-114349814D01*
X111749136Y-114349812D01*
X111750336Y-114349415D01*
X111767863Y-114340929D01*
X111768912Y-114340238D01*
X111768917Y-114340237D01*
X111831606Y-114299005D01*
X111834598Y-114297099D01*
X111898456Y-114257712D01*
X111898456Y-114257711D01*
X111899529Y-114257050D01*
X111914624Y-114244753D01*
X111915492Y-114243832D01*
X111915496Y-114243830D01*
X111966985Y-114189253D01*
X111969431Y-114186735D01*
X116411238Y-109744927D01*
X116424856Y-109733157D01*
X116444130Y-109718810D01*
X116475982Y-109680849D01*
X116483268Y-109672897D01*
X116487190Y-109668977D01*
X116506463Y-109644599D01*
X116508630Y-109641939D01*
X116556902Y-109584414D01*
X116556903Y-109584410D01*
X116557719Y-109583439D01*
X116568175Y-109567025D01*
X116568709Y-109565879D01*
X116568711Y-109565877D01*
X116600416Y-109497882D01*
X116601969Y-109494675D01*
X116635640Y-109427633D01*
X116635640Y-109427629D01*
X116636210Y-109426496D01*
X116642599Y-109408117D01*
X116643367Y-109404397D01*
X116658031Y-109333371D01*
X116658786Y-109329967D01*
X116676100Y-109256921D01*
X116676100Y-109256919D01*
X116676390Y-109255695D01*
X116678369Y-109236323D01*
X116678332Y-109235059D01*
X116678333Y-109235056D01*
X116676152Y-109160089D01*
X116676100Y-109156484D01*
X116676100Y-105753106D01*
X116677409Y-105735136D01*
X116677938Y-105731518D01*
X116680889Y-105711377D01*
X116676571Y-105662033D01*
X116676100Y-105651227D01*
X116676100Y-105645691D01*
X116676099Y-105645690D01*
X116672497Y-105614871D01*
X116672134Y-105611315D01*
X116665488Y-105535342D01*
X116661273Y-105516330D01*
X116635177Y-105444634D01*
X116634014Y-105441290D01*
X116610413Y-105370065D01*
X116610410Y-105370060D01*
X116610011Y-105368856D01*
X116601530Y-105351338D01*
X116600838Y-105350286D01*
X116600837Y-105350283D01*
X116559581Y-105287557D01*
X116557698Y-105284601D01*
X116518311Y-105220744D01*
X116518309Y-105220742D01*
X116517646Y-105219667D01*
X116505348Y-105204570D01*
X116449873Y-105152232D01*
X116447286Y-105149719D01*
X114951928Y-103654360D01*
X114940146Y-103640727D01*
X114925809Y-103621469D01*
X114887866Y-103589631D01*
X114879891Y-103582323D01*
X114875982Y-103578414D01*
X114875977Y-103578409D01*
X114851623Y-103559152D01*
X114848847Y-103556890D01*
X114790451Y-103507890D01*
X114774021Y-103497422D01*
X114704891Y-103465186D01*
X114701647Y-103463615D01*
X114633506Y-103429394D01*
X114615103Y-103422997D01*
X114540411Y-103407574D01*
X114536892Y-103406794D01*
X114462690Y-103389208D01*
X114443321Y-103387229D01*
X114367069Y-103389448D01*
X114363463Y-103389500D01*
X114156663Y-103389500D01*
X114099406Y-103375489D01*
X114055088Y-103336623D01*
X114030046Y-103300859D01*
X113869140Y-103139953D01*
X113844537Y-103122726D01*
X113805399Y-103077884D01*
X113791666Y-103019970D01*
X113806500Y-102962328D01*
X113846485Y-102918239D01*
X113902406Y-102897861D01*
X113937483Y-102894091D01*
X114072331Y-102843796D01*
X114187546Y-102757546D01*
X114273796Y-102642331D01*
X114324091Y-102507483D01*
X114330500Y-102447873D01*
X114330499Y-100752128D01*
X114324091Y-100692517D01*
X114273796Y-100557669D01*
X114232069Y-100501929D01*
X114208599Y-100445267D01*
X114211474Y-100418524D01*
X114184732Y-100421400D01*
X114128068Y-100397929D01*
X114097440Y-100375001D01*
X114072331Y-100356204D01*
X113937483Y-100305909D01*
X113877873Y-100299500D01*
X113877869Y-100299500D01*
X112182130Y-100299500D01*
X112122515Y-100305909D01*
X111987669Y-100356204D01*
X111872454Y-100442454D01*
X111786204Y-100557668D01*
X111735909Y-100692515D01*
X111735909Y-100692517D01*
X111732140Y-100727578D01*
X111730938Y-100738755D01*
X111710339Y-100795003D01*
X111665776Y-100835032D01*
X111607648Y-100849500D01*
X110741058Y-100849500D01*
X110680626Y-100833777D01*
X110635519Y-100790596D01*
X110552711Y-100656342D01*
X110428657Y-100532288D01*
X110279334Y-100440186D01*
X110112797Y-100385000D01*
X110010009Y-100374500D01*
X109234991Y-100374500D01*
X109132203Y-100385000D01*
X108965665Y-100440186D01*
X108816342Y-100532288D01*
X108692286Y-100656344D01*
X108690242Y-100659659D01*
X108645135Y-100702837D01*
X108584704Y-100718558D01*
X108524274Y-100702835D01*
X108479168Y-100659656D01*
X108477316Y-100656654D01*
X108353345Y-100532683D01*
X108204122Y-100440642D01*
X108037696Y-100385493D01*
X107934979Y-100375000D01*
X107797500Y-100375000D01*
X107797500Y-102824999D01*
X107934979Y-102824999D01*
X108037695Y-102814506D01*
X108204122Y-102759357D01*
X108353345Y-102667316D01*
X108477313Y-102543348D01*
X108479164Y-102540348D01*
X108524271Y-102497164D01*
X108584704Y-102481440D01*
X108645138Y-102497163D01*
X108690246Y-102540345D01*
X108692290Y-102543659D01*
X108816342Y-102667711D01*
X108816344Y-102667712D01*
X108965666Y-102759814D01*
X109063666Y-102792288D01*
X109132202Y-102814999D01*
X109142703Y-102816071D01*
X109234991Y-102825500D01*
X110010008Y-102825499D01*
X110112797Y-102814999D01*
X110279334Y-102759814D01*
X110428656Y-102667712D01*
X110552712Y-102543656D01*
X110635518Y-102409404D01*
X110680626Y-102366223D01*
X110741058Y-102350500D01*
X111607649Y-102350500D01*
X111665777Y-102364969D01*
X111710340Y-102404998D01*
X111730938Y-102461246D01*
X111733289Y-102483107D01*
X111735909Y-102507484D01*
X111749401Y-102543657D01*
X111786204Y-102642331D01*
X111872454Y-102757546D01*
X111987669Y-102843796D01*
X112122517Y-102894091D01*
X112157594Y-102897862D01*
X112213513Y-102918239D01*
X112253497Y-102962327D01*
X112268332Y-103019968D01*
X112254600Y-103077881D01*
X112215464Y-103122724D01*
X112190860Y-103139952D01*
X112029953Y-103300859D01*
X111899432Y-103487264D01*
X111803261Y-103693502D01*
X111744364Y-103913310D01*
X111724531Y-104140000D01*
X111744364Y-104366689D01*
X111803261Y-104586497D01*
X111899432Y-104792735D01*
X112029953Y-104979140D01*
X112190859Y-105140046D01*
X112324551Y-105233657D01*
X112377266Y-105270568D01*
X112435275Y-105297618D01*
X112487450Y-105343375D01*
X112506869Y-105410000D01*
X112487450Y-105476625D01*
X112435275Y-105522382D01*
X112377263Y-105549433D01*
X112190859Y-105679953D01*
X112029953Y-105840859D01*
X112004912Y-105876623D01*
X111960594Y-105915489D01*
X111903337Y-105929500D01*
X67653706Y-105929500D01*
X67635736Y-105928191D01*
X67621853Y-105926157D01*
X67611977Y-105924711D01*
X67611976Y-105924711D01*
X67562631Y-105929028D01*
X67551824Y-105929500D01*
X67546291Y-105929500D01*
X67515501Y-105933098D01*
X67511917Y-105933464D01*
X67435961Y-105940109D01*
X67416921Y-105944330D01*
X67345232Y-105970421D01*
X67341831Y-105971603D01*
X67269474Y-105995580D01*
X67251927Y-106004075D01*
X67188221Y-106045975D01*
X67185181Y-106047912D01*
X67120280Y-106087944D01*
X67105164Y-106100257D01*
X67052831Y-106155726D01*
X67050319Y-106158312D01*
X62225449Y-110983181D01*
X62185221Y-111010061D01*
X62137769Y-111019500D01*
X62059991Y-111019500D01*
X61957203Y-111030000D01*
X61790665Y-111085186D01*
X61641342Y-111177288D01*
X61517288Y-111301342D01*
X61425186Y-111450665D01*
X61370000Y-111617202D01*
X61359500Y-111719990D01*
X61359500Y-113070008D01*
X60560500Y-113070008D01*
X60560499Y-111719992D01*
X60549999Y-111617203D01*
X60494814Y-111450666D01*
X60402712Y-111301344D01*
X60402711Y-111301342D01*
X60278657Y-111177288D01*
X60188178Y-111121481D01*
X60159188Y-111096712D01*
X60102865Y-111031103D01*
X59941960Y-110906552D01*
X59759272Y-110816940D01*
X59693609Y-110799939D01*
X59562285Y-110765937D01*
X59541671Y-110764891D01*
X59359062Y-110755630D01*
X59157928Y-110786443D01*
X58967113Y-110857113D01*
X58794431Y-110964745D01*
X58753498Y-111003656D01*
X58646947Y-111104941D01*
X58646944Y-111104945D01*
X58637811Y-111113627D01*
X58636332Y-111112072D01*
X58616207Y-111131112D01*
X58541342Y-111177288D01*
X58417288Y-111301342D01*
X58325186Y-111450665D01*
X58270000Y-111617202D01*
X58259500Y-111719990D01*
X58259500Y-113070008D01*
X58270000Y-113172796D01*
X58325186Y-113339334D01*
X58391039Y-113446100D01*
X58409500Y-113511196D01*
X58409500Y-115760637D01*
X58392446Y-115823395D01*
X58345974Y-115868891D01*
X58301461Y-115893757D01*
X57908652Y-116159249D01*
X57539784Y-116457090D01*
X57197489Y-116785153D01*
X56884261Y-117141049D01*
X56602330Y-117522245D01*
X56353750Y-117925966D01*
X56140301Y-118349315D01*
X55963529Y-118789229D01*
X55824695Y-119242570D01*
X55724810Y-119706037D01*
X55664588Y-120176321D01*
X55644466Y-120650000D01*
X53340000Y-120650000D01*
X53340000Y-70375000D01*
X57339356Y-70375000D01*
X57359891Y-70622816D01*
X57359891Y-70622819D01*
X57359892Y-70622821D01*
X57420937Y-70863881D01*
X57464076Y-70962228D01*
X57520825Y-71091604D01*
X57520827Y-71091607D01*
X57656836Y-71299785D01*
X57825256Y-71482738D01*
X57825259Y-71482740D01*
X58021485Y-71635470D01*
X58021487Y-71635471D01*
X58021491Y-71635474D01*
X58240190Y-71753828D01*
X58475386Y-71834571D01*
X58720665Y-71875500D01*
X58969335Y-71875500D01*
X59214614Y-71834571D01*
X59449810Y-71753828D01*
X59668509Y-71635474D01*
X59864744Y-71482738D01*
X60033164Y-71299785D01*
X60169173Y-71091607D01*
X60269063Y-70863881D01*
X60330108Y-70622821D01*
X60350643Y-70375000D01*
X60330108Y-70127179D01*
X60269063Y-69886119D01*
X60169173Y-69658393D01*
X60033164Y-69450215D01*
X59864744Y-69267262D01*
X59829415Y-69239764D01*
X59668514Y-69114529D01*
X59668510Y-69114526D01*
X59668509Y-69114526D01*
X59449810Y-68996172D01*
X59449806Y-68996170D01*
X59449805Y-68996170D01*
X59214615Y-68915429D01*
X58969335Y-68874500D01*
X58720665Y-68874500D01*
X58475384Y-68915429D01*
X58240194Y-68996170D01*
X58021485Y-69114529D01*
X57825259Y-69267259D01*
X57825256Y-69267261D01*
X57825256Y-69267262D01*
X57656837Y-69450214D01*
X57520825Y-69658395D01*
X57430780Y-69863678D01*
X57420937Y-69886119D01*
X57361915Y-70119189D01*
X57359891Y-70127183D01*
X57339356Y-70375000D01*
X53340000Y-70375000D01*
X53340000Y-62538094D01*
X69400735Y-62538094D01*
X69410768Y-62825381D01*
X69460687Y-63108484D01*
X69549520Y-63381886D01*
X69675535Y-63640253D01*
X69675538Y-63640259D01*
X69836289Y-63878582D01*
X70028643Y-64092213D01*
X70248857Y-64276995D01*
X70492645Y-64429330D01*
X70755261Y-64546254D01*
X71031594Y-64625492D01*
X71269713Y-64658957D01*
X71316264Y-64665500D01*
X71316265Y-64665500D01*
X71531773Y-64665500D01*
X71531774Y-64665500D01*
X71746769Y-64650466D01*
X71887362Y-64620582D01*
X72027953Y-64590699D01*
X72027956Y-64590698D01*
X72298089Y-64492378D01*
X72551909Y-64357419D01*
X72784476Y-64188449D01*
X72991264Y-63988756D01*
X73168248Y-63762228D01*
X73311982Y-63513272D01*
X73419670Y-63246735D01*
X73489215Y-62967805D01*
X73519264Y-62681911D01*
X73509231Y-62394617D01*
X73459313Y-62111515D01*
X73370480Y-61838116D01*
X73244462Y-61579741D01*
X73083711Y-61341418D01*
X72891357Y-61127787D01*
X72776672Y-61031555D01*
X72671143Y-60943005D01*
X72427355Y-60790670D01*
X72427354Y-60790669D01*
X72164739Y-60673746D01*
X72164737Y-60673745D01*
X72164734Y-60673744D01*
X71888407Y-60594508D01*
X71603736Y-60554500D01*
X71603735Y-60554500D01*
X71388226Y-60554500D01*
X71345227Y-60557506D01*
X71173227Y-60569534D01*
X70892046Y-60629300D01*
X70621912Y-60727621D01*
X70368091Y-60862580D01*
X70257397Y-60943005D01*
X70135524Y-61031551D01*
X70135522Y-61031552D01*
X70135519Y-61031555D01*
X69928736Y-61231242D01*
X69751752Y-61457771D01*
X69608018Y-61706726D01*
X69500330Y-61973263D01*
X69430785Y-62252194D01*
X69400735Y-62538094D01*
X53340000Y-62538094D01*
X53340000Y-57832869D01*
X55559500Y-57832869D01*
X55565909Y-57892483D01*
X55616204Y-58027331D01*
X55702454Y-58142546D01*
X55817669Y-58228796D01*
X55952517Y-58279091D01*
X56012127Y-58285500D01*
X63447872Y-58285499D01*
X63507483Y-58279091D01*
X63642331Y-58228796D01*
X63757546Y-58142546D01*
X63843796Y-58027331D01*
X63894091Y-57892483D01*
X63900500Y-57832873D01*
X63900500Y-55734500D01*
X63917113Y-55672500D01*
X63962500Y-55627113D01*
X64024500Y-55610500D01*
X72559217Y-55610500D01*
X72606670Y-55619939D01*
X72646898Y-55646819D01*
X84688181Y-67688101D01*
X84715061Y-67728329D01*
X84724500Y-67775782D01*
X84724500Y-69983430D01*
X84715061Y-70030883D01*
X84688181Y-70071111D01*
X82991257Y-71768034D01*
X82940592Y-71798699D01*
X82881483Y-71802369D01*
X82827414Y-71778207D01*
X82796092Y-71753828D01*
X82781990Y-71742852D01*
X82746754Y-71699461D01*
X82734154Y-71645000D01*
X82746753Y-71590540D01*
X82781992Y-71547147D01*
X82806256Y-71528260D01*
X82864744Y-71482738D01*
X83033164Y-71299785D01*
X83169173Y-71091607D01*
X83269063Y-70863881D01*
X83330108Y-70622821D01*
X83350643Y-70375000D01*
X83330108Y-70127179D01*
X83269063Y-69886119D01*
X83169173Y-69658393D01*
X83033164Y-69450215D01*
X82864744Y-69267262D01*
X82829415Y-69239764D01*
X82668514Y-69114529D01*
X82668510Y-69114526D01*
X82668509Y-69114526D01*
X82449810Y-68996172D01*
X82449806Y-68996170D01*
X82449805Y-68996170D01*
X82214615Y-68915429D01*
X81969335Y-68874500D01*
X81720665Y-68874500D01*
X81475384Y-68915429D01*
X81240194Y-68996170D01*
X81021485Y-69114529D01*
X80825259Y-69267259D01*
X80656833Y-69450218D01*
X80579672Y-69568322D01*
X80534881Y-69609555D01*
X80475864Y-69624500D01*
X75840306Y-69624500D01*
X75822336Y-69623191D01*
X75808453Y-69621157D01*
X75798577Y-69619711D01*
X75798576Y-69619711D01*
X75749231Y-69624028D01*
X75738424Y-69624500D01*
X75732891Y-69624500D01*
X75702101Y-69628098D01*
X75698517Y-69628464D01*
X75622561Y-69635109D01*
X75603521Y-69639330D01*
X75531832Y-69665421D01*
X75528431Y-69666603D01*
X75456074Y-69690580D01*
X75438527Y-69699075D01*
X75374821Y-69740975D01*
X75371781Y-69742912D01*
X75306880Y-69782944D01*
X75291764Y-69795257D01*
X75239431Y-69850726D01*
X75236919Y-69853312D01*
X60556894Y-84533337D01*
X60505576Y-84564204D01*
X60445776Y-84567421D01*
X60391443Y-84542237D01*
X60355249Y-84494525D01*
X60345637Y-84435416D01*
X60350643Y-84374999D01*
X60343827Y-84292738D01*
X60330108Y-84127179D01*
X60269063Y-83886119D01*
X60169173Y-83658393D01*
X60033164Y-83450215D01*
X59864744Y-83267262D01*
X59842612Y-83250036D01*
X59668514Y-83114529D01*
X59668510Y-83114526D01*
X59668509Y-83114526D01*
X59449810Y-82996172D01*
X59449806Y-82996170D01*
X59449805Y-82996170D01*
X59214615Y-82915429D01*
X58969335Y-82874500D01*
X58720665Y-82874500D01*
X58475384Y-82915429D01*
X58240194Y-82996170D01*
X58021485Y-83114529D01*
X57825259Y-83267259D01*
X57825256Y-83267261D01*
X57825256Y-83267262D01*
X57800646Y-83293996D01*
X57656837Y-83450214D01*
X57520825Y-83658395D01*
X57454118Y-83810474D01*
X57420937Y-83886119D01*
X57397984Y-83976758D01*
X57359891Y-84127183D01*
X57339356Y-84375000D01*
X57359891Y-84622816D01*
X57359891Y-84622819D01*
X57359892Y-84622821D01*
X57420937Y-84863881D01*
X57446687Y-84922584D01*
X57520825Y-85091604D01*
X57520827Y-85091607D01*
X57656836Y-85299785D01*
X57825256Y-85482738D01*
X57840368Y-85494500D01*
X58021485Y-85635470D01*
X58021487Y-85635471D01*
X58021491Y-85635474D01*
X58240190Y-85753828D01*
X58475386Y-85834571D01*
X58720665Y-85875500D01*
X58915369Y-85875500D01*
X58971664Y-85889015D01*
X59015687Y-85926615D01*
X59037842Y-85980102D01*
X59033300Y-86037818D01*
X59003050Y-86087181D01*
X56207158Y-88883072D01*
X56193527Y-88894853D01*
X56174267Y-88909192D01*
X56142433Y-88947129D01*
X56135141Y-88955089D01*
X56131208Y-88959022D01*
X56111976Y-88983345D01*
X56109702Y-88986137D01*
X56060694Y-89044544D01*
X56050218Y-89060987D01*
X56017992Y-89130094D01*
X56016422Y-89133336D01*
X55982193Y-89201492D01*
X55975796Y-89219898D01*
X55960373Y-89294588D01*
X55959593Y-89298105D01*
X55942008Y-89372305D01*
X55940029Y-89391678D01*
X55942248Y-89467931D01*
X55942300Y-89471537D01*
X55942300Y-96913494D01*
X55940991Y-96931464D01*
X55937511Y-96955223D01*
X55941828Y-97004569D01*
X55942300Y-97015376D01*
X55942300Y-97020908D01*
X55945898Y-97051696D01*
X55946264Y-97055281D01*
X55952910Y-97131241D01*
X55957129Y-97150271D01*
X55957558Y-97151451D01*
X55957559Y-97151455D01*
X55983213Y-97221942D01*
X55984382Y-97225307D01*
X56008380Y-97297724D01*
X56016875Y-97315272D01*
X56058779Y-97378984D01*
X56060669Y-97381949D01*
X56095193Y-97437920D01*
X56100752Y-97446932D01*
X56113053Y-97462030D01*
X56113968Y-97462893D01*
X56113970Y-97462896D01*
X56156728Y-97503236D01*
X56168509Y-97514351D01*
X56171096Y-97516864D01*
X57564867Y-98910634D01*
X57576648Y-98924266D01*
X57590987Y-98943526D01*
X57590990Y-98943530D01*
X57628955Y-98975386D01*
X57636917Y-98982684D01*
X57640824Y-98986591D01*
X57665142Y-99005819D01*
X57667898Y-99008063D01*
X57725386Y-99056302D01*
X57725388Y-99056303D01*
X57726357Y-99057116D01*
X57742777Y-99067576D01*
X57743921Y-99068109D01*
X57743923Y-99068111D01*
X57811957Y-99099835D01*
X57815056Y-99101335D01*
X57882167Y-99135040D01*
X57883304Y-99135611D01*
X57901684Y-99141998D01*
X57902921Y-99142253D01*
X57902927Y-99142256D01*
X57976462Y-99157439D01*
X57979809Y-99158181D01*
X58052879Y-99175500D01*
X58052881Y-99175500D01*
X58054105Y-99175790D01*
X58073476Y-99177769D01*
X58074740Y-99177732D01*
X58074744Y-99177733D01*
X58149710Y-99175552D01*
X58153316Y-99175500D01*
X59591877Y-99175500D01*
X59638111Y-99184442D01*
X59677677Y-99209977D01*
X59704869Y-99248424D01*
X59732922Y-99310485D01*
X59866420Y-99508002D01*
X59906639Y-99549966D01*
X60031379Y-99680118D01*
X60223053Y-99821879D01*
X60223054Y-99821879D01*
X60231538Y-99828154D01*
X60229405Y-99831037D01*
X60262686Y-99860967D01*
X60282383Y-99922943D01*
X60268005Y-99986364D01*
X60223508Y-100033788D01*
X60124203Y-100094932D01*
X59945243Y-100252437D01*
X59795480Y-100437914D01*
X59679208Y-100646048D01*
X59599787Y-100870831D01*
X59559500Y-101105797D01*
X59559500Y-101684501D01*
X59574653Y-101862539D01*
X59634724Y-102093250D01*
X59732922Y-102310485D01*
X59866069Y-102507483D01*
X59866421Y-102508003D01*
X60031379Y-102680118D01*
X60223053Y-102821879D01*
X60435926Y-102929207D01*
X60663877Y-102999016D01*
X60900346Y-103029298D01*
X61138532Y-103019180D01*
X61371581Y-102968954D01*
X61592790Y-102880064D01*
X61795795Y-102755069D01*
X61974755Y-102597564D01*
X62124523Y-102412080D01*
X62235724Y-102213023D01*
X66046711Y-102213023D01*
X66051028Y-102262369D01*
X66051500Y-102273176D01*
X66051500Y-102278708D01*
X66055098Y-102309496D01*
X66055464Y-102313081D01*
X66060113Y-102366223D01*
X66062110Y-102389041D01*
X66066329Y-102408071D01*
X66066758Y-102409251D01*
X66066759Y-102409255D01*
X66092413Y-102479742D01*
X66093582Y-102483107D01*
X66117580Y-102555524D01*
X66126075Y-102573072D01*
X66167979Y-102636784D01*
X66169889Y-102639782D01*
X66207148Y-102700186D01*
X66209952Y-102704732D01*
X66222253Y-102719830D01*
X66223168Y-102720693D01*
X66223170Y-102720696D01*
X66277708Y-102772150D01*
X66280295Y-102774663D01*
X68131269Y-104625637D01*
X68143051Y-104639270D01*
X68157389Y-104658529D01*
X68195337Y-104690372D01*
X68203311Y-104697680D01*
X68207221Y-104701590D01*
X68231537Y-104720816D01*
X68234336Y-104723096D01*
X68292752Y-104772113D01*
X68309179Y-104782578D01*
X68378320Y-104814819D01*
X68381567Y-104816391D01*
X68449699Y-104850609D01*
X68468087Y-104857000D01*
X68469323Y-104857255D01*
X68469327Y-104857257D01*
X68542895Y-104872447D01*
X68546242Y-104873189D01*
X68619279Y-104890500D01*
X68619281Y-104890500D01*
X68620509Y-104890791D01*
X68639878Y-104892770D01*
X68641140Y-104892733D01*
X68641144Y-104892734D01*
X68713533Y-104890627D01*
X68716131Y-104890552D01*
X68719737Y-104890500D01*
X69601415Y-104890500D01*
X69651630Y-104901123D01*
X69693242Y-104931171D01*
X69719120Y-104975494D01*
X69754502Y-105082271D01*
X69755186Y-105084334D01*
X69847288Y-105233657D01*
X69971342Y-105357711D01*
X69998761Y-105374623D01*
X70120666Y-105449814D01*
X70232017Y-105486712D01*
X70287202Y-105504999D01*
X70297702Y-105506071D01*
X70389991Y-105515500D01*
X71290008Y-105515499D01*
X71392797Y-105504999D01*
X71559334Y-105449814D01*
X71708656Y-105357712D01*
X71832712Y-105233656D01*
X71924814Y-105084334D01*
X71979999Y-104917797D01*
X71990500Y-104815009D01*
X71990500Y-104390000D01*
X72790001Y-104390000D01*
X72790001Y-104814979D01*
X72800493Y-104917695D01*
X72855642Y-105084122D01*
X72947683Y-105233345D01*
X73071654Y-105357316D01*
X73220877Y-105449357D01*
X73387303Y-105504506D01*
X73490021Y-105515000D01*
X73690000Y-105515000D01*
X73690000Y-104390000D01*
X74190000Y-104390000D01*
X74190000Y-105514999D01*
X74389979Y-105514999D01*
X74492695Y-105504506D01*
X74659122Y-105449357D01*
X74808345Y-105357316D01*
X74932316Y-105233345D01*
X75024357Y-105084122D01*
X75079506Y-104917696D01*
X75090000Y-104814979D01*
X75090000Y-104390000D01*
X74190000Y-104390000D01*
X73690000Y-104390000D01*
X72790001Y-104390000D01*
X71990500Y-104390000D01*
X71990499Y-103890000D01*
X72790000Y-103890000D01*
X73690000Y-103890000D01*
X73690000Y-102765001D01*
X73490021Y-102765001D01*
X73387304Y-102775493D01*
X73220877Y-102830642D01*
X73071654Y-102922683D01*
X72947683Y-103046654D01*
X72855642Y-103195877D01*
X72800493Y-103362303D01*
X72790000Y-103465021D01*
X72790000Y-103890000D01*
X71990499Y-103890000D01*
X71990499Y-103464992D01*
X71986920Y-103429960D01*
X71979999Y-103362203D01*
X71959672Y-103300861D01*
X71924814Y-103195666D01*
X71832712Y-103046344D01*
X71832711Y-103046342D01*
X71708657Y-102922288D01*
X71559334Y-102830186D01*
X71392797Y-102775000D01*
X71294904Y-102765000D01*
X74190000Y-102765000D01*
X74190000Y-103890000D01*
X75089999Y-103890000D01*
X75089999Y-103465021D01*
X75079506Y-103362304D01*
X75024357Y-103195877D01*
X74932316Y-103046654D01*
X74808345Y-102922683D01*
X74659122Y-102830642D01*
X74492696Y-102775493D01*
X74389979Y-102765000D01*
X74190000Y-102765000D01*
X71294904Y-102765000D01*
X71290009Y-102764500D01*
X70389991Y-102764500D01*
X70287203Y-102775000D01*
X70120665Y-102830186D01*
X69971342Y-102922288D01*
X69847288Y-103046342D01*
X69755186Y-103195665D01*
X69755186Y-103195666D01*
X69720329Y-103300859D01*
X69719121Y-103304504D01*
X69693242Y-103348829D01*
X69651630Y-103378877D01*
X69601415Y-103389500D01*
X69069229Y-103389500D01*
X69021776Y-103380061D01*
X68981548Y-103353181D01*
X67588819Y-101960451D01*
X67561939Y-101920223D01*
X67552500Y-101872770D01*
X67552500Y-101850000D01*
X106460001Y-101850000D01*
X106460001Y-102124979D01*
X106470493Y-102227695D01*
X106525642Y-102394122D01*
X106617683Y-102543345D01*
X106741654Y-102667316D01*
X106890877Y-102759357D01*
X107057303Y-102814506D01*
X107160021Y-102825000D01*
X107297500Y-102825000D01*
X107297500Y-101850000D01*
X106460001Y-101850000D01*
X67552500Y-101850000D01*
X67552500Y-95104230D01*
X67561939Y-95056777D01*
X67588819Y-95016549D01*
X74823548Y-87781819D01*
X74863776Y-87754939D01*
X74911229Y-87745500D01*
X78640864Y-87745500D01*
X78699881Y-87760445D01*
X78744672Y-87801678D01*
X78819602Y-87916366D01*
X78821836Y-87919785D01*
X78990256Y-88102738D01*
X79033564Y-88136446D01*
X79186485Y-88255470D01*
X79186487Y-88255471D01*
X79186491Y-88255474D01*
X79405190Y-88373828D01*
X79427019Y-88381322D01*
X79458218Y-88392033D01*
X79510048Y-88426279D01*
X79538764Y-88481365D01*
X79537159Y-88543466D01*
X79505636Y-88596995D01*
X72924923Y-95177708D01*
X72863816Y-95211146D01*
X72794323Y-95206363D01*
X72738374Y-95164868D01*
X72713624Y-95099756D01*
X72712084Y-95080186D01*
X72705683Y-94998852D01*
X72646873Y-94753889D01*
X72550466Y-94521141D01*
X72418836Y-94306341D01*
X72255224Y-94114776D01*
X72063659Y-93951164D01*
X71848859Y-93819534D01*
X71709870Y-93761963D01*
X71616110Y-93723126D01*
X71371149Y-93664317D01*
X71120000Y-93644551D01*
X70868850Y-93664317D01*
X70623889Y-93723126D01*
X70391139Y-93819535D01*
X70176342Y-93951163D01*
X69984776Y-94114776D01*
X69821163Y-94306342D01*
X69690119Y-94520186D01*
X69689534Y-94521141D01*
X69689438Y-94521372D01*
X69593126Y-94753889D01*
X69534317Y-94998850D01*
X69514551Y-95250000D01*
X69534317Y-95501149D01*
X69593126Y-95746110D01*
X69620685Y-95812642D01*
X69689534Y-95978859D01*
X69821164Y-96193659D01*
X69984776Y-96385224D01*
X70176341Y-96548836D01*
X70391141Y-96680466D01*
X70623889Y-96776873D01*
X70868852Y-96835683D01*
X70969759Y-96843624D01*
X71034867Y-96868373D01*
X71076363Y-96924322D01*
X71081146Y-96993815D01*
X71047708Y-97054922D01*
X70074358Y-98028272D01*
X70060727Y-98040053D01*
X70041467Y-98054392D01*
X70009633Y-98092329D01*
X70002341Y-98100289D01*
X69998408Y-98104222D01*
X69979176Y-98128545D01*
X69976902Y-98131337D01*
X69927894Y-98189744D01*
X69917418Y-98206187D01*
X69885192Y-98275294D01*
X69883622Y-98278536D01*
X69849393Y-98346692D01*
X69842996Y-98365098D01*
X69827573Y-98439788D01*
X69826793Y-98443305D01*
X69809208Y-98517505D01*
X69807229Y-98536878D01*
X69809448Y-98613131D01*
X69809500Y-98616737D01*
X69809500Y-98970202D01*
X69793777Y-99030634D01*
X69750596Y-99075741D01*
X69691342Y-99112288D01*
X69567288Y-99236342D01*
X69475186Y-99385665D01*
X69420000Y-99552202D01*
X69409500Y-99654990D01*
X69409500Y-101005008D01*
X69420000Y-101107796D01*
X69475186Y-101274334D01*
X69567288Y-101423657D01*
X69691342Y-101547711D01*
X69691344Y-101547712D01*
X69840666Y-101639814D01*
X69936243Y-101671485D01*
X70007202Y-101694999D01*
X70017702Y-101696071D01*
X70109991Y-101705500D01*
X71010008Y-101705499D01*
X71112797Y-101694999D01*
X71279334Y-101639814D01*
X71428656Y-101547712D01*
X71552712Y-101423656D01*
X71644814Y-101274334D01*
X71699999Y-101107797D01*
X71710500Y-101005009D01*
X71710500Y-101005008D01*
X72509500Y-101005008D01*
X72520000Y-101107796D01*
X72575186Y-101274334D01*
X72667288Y-101423657D01*
X72791342Y-101547711D01*
X72791344Y-101547712D01*
X72940666Y-101639814D01*
X73036243Y-101671485D01*
X73107202Y-101694999D01*
X73117702Y-101696071D01*
X73209991Y-101705500D01*
X74110008Y-101705499D01*
X74212797Y-101694999D01*
X74379334Y-101639814D01*
X74528656Y-101547712D01*
X74652712Y-101423656D01*
X74744814Y-101274334D01*
X74780879Y-101165494D01*
X74806758Y-101121171D01*
X74848370Y-101091123D01*
X74898585Y-101080500D01*
X82936415Y-101080500D01*
X82986630Y-101091123D01*
X83028242Y-101121171D01*
X83054120Y-101165494D01*
X83078079Y-101237797D01*
X83090186Y-101274334D01*
X83182288Y-101423657D01*
X83306342Y-101547711D01*
X83306344Y-101547712D01*
X83455666Y-101639814D01*
X83551243Y-101671485D01*
X83622202Y-101694999D01*
X83632702Y-101696071D01*
X83724991Y-101705500D01*
X84625008Y-101705499D01*
X84727797Y-101694999D01*
X84894334Y-101639814D01*
X85043656Y-101547712D01*
X85167712Y-101423656D01*
X85259814Y-101274334D01*
X85314999Y-101107797D01*
X85325500Y-101005009D01*
X85325500Y-100580000D01*
X86125001Y-100580000D01*
X86125001Y-101004979D01*
X86135493Y-101107695D01*
X86190642Y-101274122D01*
X86282683Y-101423345D01*
X86406654Y-101547316D01*
X86555877Y-101639357D01*
X86722303Y-101694506D01*
X86825021Y-101705000D01*
X87025000Y-101705000D01*
X87025000Y-100580000D01*
X87525000Y-100580000D01*
X87525000Y-101704999D01*
X87724979Y-101704999D01*
X87827695Y-101694506D01*
X87994122Y-101639357D01*
X88143345Y-101547316D01*
X88267316Y-101423345D01*
X88312555Y-101350000D01*
X106460000Y-101350000D01*
X107297500Y-101350000D01*
X107297500Y-100375001D01*
X107160021Y-100375001D01*
X107057304Y-100385493D01*
X106890877Y-100440642D01*
X106741654Y-100532683D01*
X106617683Y-100656654D01*
X106525642Y-100805877D01*
X106470493Y-100972303D01*
X106460000Y-101075021D01*
X106460000Y-101350000D01*
X88312555Y-101350000D01*
X88359357Y-101274122D01*
X88414506Y-101107696D01*
X88425000Y-101004979D01*
X88425000Y-100580000D01*
X87525000Y-100580000D01*
X87025000Y-100580000D01*
X86125001Y-100580000D01*
X85325500Y-100580000D01*
X85325499Y-100080000D01*
X86125000Y-100080000D01*
X87025000Y-100080000D01*
X87025000Y-98955001D01*
X86825021Y-98955001D01*
X86722304Y-98965493D01*
X86555877Y-99020642D01*
X86406654Y-99112683D01*
X86282683Y-99236654D01*
X86190642Y-99385877D01*
X86135493Y-99552303D01*
X86125000Y-99655021D01*
X86125000Y-100080000D01*
X85325499Y-100080000D01*
X85325499Y-99654992D01*
X85321647Y-99617288D01*
X85314999Y-99552203D01*
X85312612Y-99544999D01*
X85259814Y-99385666D01*
X85174280Y-99246992D01*
X85167711Y-99236342D01*
X85043657Y-99112288D01*
X84894334Y-99020186D01*
X84727797Y-98965000D01*
X84629904Y-98955000D01*
X87525000Y-98955000D01*
X87525000Y-100080000D01*
X88424999Y-100080000D01*
X88424999Y-99655021D01*
X88414506Y-99552304D01*
X88359357Y-99385877D01*
X88267316Y-99236654D01*
X88185670Y-99155008D01*
X111654500Y-99155008D01*
X111665000Y-99257796D01*
X111720186Y-99424334D01*
X111812288Y-99573657D01*
X111936342Y-99697711D01*
X111936344Y-99697712D01*
X112085666Y-99789814D01*
X112182432Y-99821879D01*
X112252202Y-99844999D01*
X112262703Y-99846071D01*
X112354991Y-99855500D01*
X113705008Y-99855499D01*
X113807797Y-99844999D01*
X113822532Y-99840115D01*
X113890132Y-99837163D01*
X113949219Y-99870140D01*
X114290060Y-100210981D01*
X114321356Y-100263727D01*
X114322904Y-100307094D01*
X114366272Y-100308643D01*
X114419018Y-100339939D01*
X114598450Y-100519371D01*
X114600643Y-100521620D01*
X114660941Y-100585053D01*
X114662386Y-100586059D01*
X114679234Y-100600155D01*
X118916431Y-104837351D01*
X118918624Y-104839600D01*
X118978942Y-104903054D01*
X119027362Y-104936755D01*
X119034871Y-104942416D01*
X119080593Y-104979698D01*
X119107562Y-104993785D01*
X119120982Y-105001916D01*
X119145949Y-105019294D01*
X119200163Y-105042559D01*
X119208673Y-105046601D01*
X119260951Y-105073909D01*
X119290200Y-105082277D01*
X119304970Y-105087535D01*
X119332942Y-105099540D01*
X119332945Y-105099540D01*
X119332946Y-105099541D01*
X119390726Y-105111414D01*
X119399869Y-105113657D01*
X119456582Y-105129886D01*
X119486920Y-105132196D01*
X119502448Y-105134373D01*
X119532259Y-105140500D01*
X119591244Y-105140500D01*
X119600659Y-105140858D01*
X119604806Y-105141173D01*
X119659476Y-105145337D01*
X119686278Y-105141923D01*
X119689652Y-105141494D01*
X119705317Y-105140500D01*
X119772412Y-105140500D01*
X119809699Y-105146239D01*
X119843533Y-105162924D01*
X119997266Y-105270568D01*
X120055275Y-105297618D01*
X120107450Y-105343375D01*
X120126869Y-105410000D01*
X120107450Y-105476625D01*
X120055275Y-105522382D01*
X119997263Y-105549433D01*
X119810859Y-105679953D01*
X119649953Y-105840859D01*
X119519432Y-106027264D01*
X119423261Y-106233502D01*
X119364364Y-106453310D01*
X119344531Y-106679999D01*
X119364364Y-106906689D01*
X119423261Y-107126497D01*
X119519432Y-107332735D01*
X119649953Y-107519140D01*
X119810859Y-107680046D01*
X119997262Y-107810565D01*
X119997266Y-107810568D01*
X120055273Y-107837617D01*
X120107449Y-107883373D01*
X120126869Y-107949997D01*
X120107451Y-108016622D01*
X120055276Y-108062380D01*
X119997266Y-108089431D01*
X119810859Y-108219953D01*
X119649953Y-108380859D01*
X119519432Y-108567264D01*
X119423261Y-108773502D01*
X119364364Y-108993310D01*
X119344531Y-109219999D01*
X119364364Y-109446689D01*
X119423261Y-109666497D01*
X119519432Y-109872735D01*
X119649953Y-110059140D01*
X119810859Y-110220046D01*
X119997264Y-110350567D01*
X119997265Y-110350567D01*
X119997266Y-110350568D01*
X120203504Y-110446739D01*
X120423308Y-110505635D01*
X120650000Y-110525468D01*
X120876692Y-110505635D01*
X121096496Y-110446739D01*
X121302734Y-110350568D01*
X121489139Y-110220047D01*
X121650047Y-110059139D01*
X121780568Y-109872734D01*
X121876739Y-109666496D01*
X121935635Y-109446692D01*
X121955468Y-109220000D01*
X121935635Y-108993308D01*
X121876739Y-108773504D01*
X121780568Y-108567266D01*
X121767507Y-108548613D01*
X121650046Y-108380859D01*
X121489140Y-108219953D01*
X121302732Y-108089430D01*
X121244724Y-108062380D01*
X121192549Y-108016623D01*
X121173130Y-107949997D01*
X121192550Y-107883373D01*
X121244721Y-107837619D01*
X121302734Y-107810568D01*
X121489139Y-107680047D01*
X121650047Y-107519139D01*
X121675088Y-107483377D01*
X121719406Y-107444511D01*
X121776663Y-107430500D01*
X121862570Y-107430500D01*
X121910023Y-107439939D01*
X121950251Y-107466819D01*
X122157068Y-107673635D01*
X122168844Y-107687260D01*
X122183190Y-107706530D01*
X122221155Y-107738386D01*
X122229117Y-107745684D01*
X122233024Y-107749591D01*
X122257337Y-107768815D01*
X122260137Y-107771096D01*
X122318554Y-107820115D01*
X122334965Y-107830569D01*
X122336119Y-107831107D01*
X122336123Y-107831110D01*
X122404128Y-107862821D01*
X122407251Y-107864333D01*
X122474367Y-107898040D01*
X122475504Y-107898611D01*
X122493884Y-107904998D01*
X122495121Y-107905253D01*
X122495127Y-107905256D01*
X122568662Y-107920439D01*
X122572009Y-107921181D01*
X122645079Y-107938500D01*
X122645081Y-107938500D01*
X122646305Y-107938790D01*
X122665676Y-107940769D01*
X122666940Y-107940732D01*
X122666944Y-107940733D01*
X122741910Y-107938552D01*
X122745516Y-107938500D01*
X123225770Y-107938500D01*
X123273223Y-107947939D01*
X123313448Y-107974816D01*
X123342337Y-108003705D01*
X123366345Y-108027713D01*
X123422550Y-108062380D01*
X123515666Y-108119814D01*
X123627017Y-108156712D01*
X123682202Y-108174999D01*
X123692703Y-108176071D01*
X123784991Y-108185500D01*
X125135008Y-108185499D01*
X125237797Y-108174999D01*
X125404334Y-108119814D01*
X125553656Y-108027712D01*
X125631951Y-107949416D01*
X125672177Y-107922539D01*
X125719630Y-107913100D01*
X128302250Y-107913100D01*
X128360571Y-107927671D01*
X128405185Y-107967960D01*
X128418357Y-108004424D01*
X128420529Y-108003705D01*
X128479986Y-108183134D01*
X128572088Y-108332457D01*
X128696142Y-108456511D01*
X128696144Y-108456512D01*
X128845466Y-108548614D01*
X128956816Y-108585512D01*
X129012002Y-108603799D01*
X129022502Y-108604871D01*
X129114791Y-108614300D01*
X130014808Y-108614299D01*
X130117597Y-108603799D01*
X130284134Y-108548614D01*
X130433456Y-108456512D01*
X130557512Y-108332456D01*
X130649614Y-108183134D01*
X130704799Y-108016597D01*
X130715300Y-107913809D01*
X130715299Y-106563792D01*
X130712471Y-106536112D01*
X130704799Y-106461003D01*
X130685074Y-106401477D01*
X130649614Y-106294466D01*
X130589448Y-106196920D01*
X130557511Y-106145142D01*
X130433457Y-106021088D01*
X130284134Y-105928986D01*
X130117597Y-105873800D01*
X130014809Y-105863300D01*
X129114791Y-105863300D01*
X129012003Y-105873800D01*
X128845465Y-105928986D01*
X128696142Y-106021088D01*
X128572088Y-106145142D01*
X128479986Y-106294465D01*
X128469171Y-106327104D01*
X128443292Y-106371429D01*
X128401680Y-106401477D01*
X128351465Y-106412100D01*
X125891310Y-106412100D01*
X125841095Y-106401477D01*
X125799483Y-106371430D01*
X125773605Y-106327106D01*
X125769814Y-106315666D01*
X125691052Y-106187972D01*
X125677711Y-106166342D01*
X125553657Y-106042288D01*
X125404334Y-105950186D01*
X125237797Y-105895000D01*
X125135009Y-105884500D01*
X123784991Y-105884500D01*
X123682203Y-105895000D01*
X123515665Y-105950186D01*
X123366342Y-106042288D01*
X123242289Y-106166341D01*
X123145399Y-106323427D01*
X123106486Y-106362910D01*
X123054256Y-106381492D01*
X122999149Y-106375456D01*
X122952179Y-106346011D01*
X122800528Y-106194360D01*
X122788746Y-106180727D01*
X122778038Y-106166344D01*
X122774410Y-106161470D01*
X122770646Y-106158312D01*
X122736466Y-106129631D01*
X122728491Y-106122323D01*
X122724582Y-106118414D01*
X122724577Y-106118409D01*
X122700223Y-106099152D01*
X122697447Y-106096890D01*
X122639051Y-106047890D01*
X122622621Y-106037422D01*
X122553491Y-106005186D01*
X122550247Y-106003615D01*
X122482106Y-105969394D01*
X122463703Y-105962997D01*
X122401661Y-105950186D01*
X122389006Y-105947572D01*
X122385492Y-105946794D01*
X122311290Y-105929208D01*
X122291921Y-105927229D01*
X122215669Y-105929448D01*
X122212063Y-105929500D01*
X121776663Y-105929500D01*
X121719406Y-105915489D01*
X121675088Y-105876623D01*
X121650046Y-105840859D01*
X121489140Y-105679953D01*
X121302733Y-105549431D01*
X121244725Y-105522382D01*
X121192549Y-105476625D01*
X121173129Y-105410000D01*
X121192549Y-105343375D01*
X121244725Y-105297618D01*
X121302734Y-105270568D01*
X121489139Y-105140047D01*
X121650047Y-104979139D01*
X121780568Y-104792734D01*
X121876739Y-104586496D01*
X121935635Y-104366692D01*
X121947156Y-104235008D01*
X131339500Y-104235008D01*
X131350000Y-104337796D01*
X131405186Y-104504334D01*
X131497288Y-104653657D01*
X131621342Y-104777711D01*
X131621344Y-104777712D01*
X131770666Y-104869814D01*
X131829305Y-104889245D01*
X131873630Y-104915124D01*
X131903677Y-104956736D01*
X131914300Y-105006951D01*
X131914300Y-105879002D01*
X131898577Y-105939434D01*
X131855396Y-105984541D01*
X131796142Y-106021088D01*
X131672088Y-106145142D01*
X131579986Y-106294465D01*
X131524800Y-106461002D01*
X131514300Y-106563790D01*
X131514300Y-107913808D01*
X131524800Y-108016596D01*
X131579986Y-108183134D01*
X131672088Y-108332457D01*
X131796142Y-108456511D01*
X131796144Y-108456512D01*
X131945466Y-108548614D01*
X132056816Y-108585512D01*
X132112002Y-108603799D01*
X132122502Y-108604871D01*
X132214791Y-108614300D01*
X133114808Y-108614299D01*
X133217597Y-108603799D01*
X133384134Y-108548614D01*
X133533456Y-108456512D01*
X133657512Y-108332456D01*
X133749614Y-108183134D01*
X133804799Y-108016597D01*
X133815300Y-107913809D01*
X133815299Y-106563792D01*
X133812471Y-106536112D01*
X133804799Y-106461003D01*
X133785074Y-106401477D01*
X133749614Y-106294466D01*
X133689448Y-106196920D01*
X133657511Y-106145142D01*
X133533457Y-106021088D01*
X133474204Y-105984541D01*
X133431023Y-105939434D01*
X133415300Y-105879002D01*
X133415300Y-105040220D01*
X133425923Y-104990005D01*
X133455971Y-104948393D01*
X133500296Y-104922514D01*
X133514531Y-104917797D01*
X133659334Y-104869814D01*
X133808656Y-104777712D01*
X133932712Y-104653656D01*
X134024814Y-104504334D01*
X134079999Y-104337797D01*
X134090500Y-104235009D01*
X134090499Y-103334992D01*
X134087012Y-103300861D01*
X134079999Y-103232203D01*
X134049430Y-103139952D01*
X134024814Y-103065666D01*
X133932712Y-102916344D01*
X133932711Y-102916342D01*
X133808657Y-102792288D01*
X133659334Y-102700186D01*
X133492797Y-102645000D01*
X133390009Y-102634500D01*
X132039991Y-102634500D01*
X131937203Y-102645000D01*
X131770665Y-102700186D01*
X131621342Y-102792288D01*
X131497288Y-102916342D01*
X131405186Y-103065665D01*
X131350000Y-103232202D01*
X131339500Y-103334990D01*
X131339500Y-104235008D01*
X121947156Y-104235008D01*
X121955468Y-104140000D01*
X121935635Y-103913308D01*
X121876739Y-103693504D01*
X121780568Y-103487266D01*
X121740442Y-103429960D01*
X121650046Y-103300859D01*
X121489140Y-103139953D01*
X121302733Y-103009431D01*
X121244725Y-102982382D01*
X121192549Y-102936625D01*
X121173129Y-102870000D01*
X121192549Y-102803375D01*
X121244725Y-102757618D01*
X121302734Y-102730568D01*
X121489139Y-102600047D01*
X121650047Y-102439139D01*
X121668994Y-102412080D01*
X121675088Y-102403377D01*
X121719406Y-102364511D01*
X121776663Y-102350500D01*
X122938942Y-102350500D01*
X122999374Y-102366223D01*
X123044481Y-102409404D01*
X123127288Y-102543657D01*
X123251342Y-102667711D01*
X123251344Y-102667712D01*
X123400666Y-102759814D01*
X123498666Y-102792288D01*
X123567202Y-102814999D01*
X123577703Y-102816071D01*
X123669991Y-102825500D01*
X124445008Y-102825499D01*
X124547797Y-102814999D01*
X124714334Y-102759814D01*
X124863656Y-102667712D01*
X124987712Y-102543656D01*
X124989752Y-102540347D01*
X125034856Y-102497166D01*
X125095289Y-102481440D01*
X125155723Y-102497161D01*
X125200831Y-102540343D01*
X125202682Y-102543344D01*
X125326654Y-102667316D01*
X125475877Y-102759357D01*
X125642303Y-102814506D01*
X125745021Y-102825000D01*
X125882500Y-102825000D01*
X125882500Y-101850000D01*
X126382500Y-101850000D01*
X126382500Y-102824999D01*
X126519979Y-102824999D01*
X126622695Y-102814506D01*
X126789122Y-102759357D01*
X126938345Y-102667316D01*
X127062316Y-102543345D01*
X127154357Y-102394122D01*
X127209506Y-102227696D01*
X127220000Y-102124979D01*
X127220000Y-101850000D01*
X126382500Y-101850000D01*
X125882500Y-101850000D01*
X125882500Y-100375001D01*
X125745021Y-100375001D01*
X125642304Y-100385493D01*
X125475877Y-100440642D01*
X125326654Y-100532683D01*
X125202683Y-100656654D01*
X125200830Y-100659659D01*
X125155721Y-100702838D01*
X125095289Y-100718559D01*
X125034857Y-100702834D01*
X124989752Y-100659652D01*
X124987903Y-100656654D01*
X124987712Y-100656344D01*
X124987710Y-100656342D01*
X124987709Y-100656340D01*
X124863657Y-100532288D01*
X124714334Y-100440186D01*
X124547797Y-100385000D01*
X124449904Y-100375000D01*
X126382500Y-100375000D01*
X126382500Y-101350000D01*
X127219999Y-101350000D01*
X127219999Y-101075021D01*
X127209506Y-100972304D01*
X127154357Y-100805877D01*
X127062316Y-100656654D01*
X126938345Y-100532683D01*
X126789122Y-100440642D01*
X126622696Y-100385493D01*
X126519979Y-100375000D01*
X126382500Y-100375000D01*
X124449904Y-100375000D01*
X124445009Y-100374500D01*
X123669991Y-100374500D01*
X123567203Y-100385000D01*
X123400665Y-100440186D01*
X123251342Y-100532288D01*
X123127288Y-100656342D01*
X123044481Y-100790596D01*
X122999374Y-100833777D01*
X122938942Y-100849500D01*
X121776663Y-100849500D01*
X121719406Y-100835489D01*
X121675088Y-100796623D01*
X121650046Y-100760859D01*
X121489140Y-100599953D01*
X121302735Y-100469432D01*
X121096497Y-100373261D01*
X120876689Y-100314364D01*
X120650000Y-100294531D01*
X120423310Y-100314364D01*
X120203502Y-100373261D01*
X119997264Y-100469432D01*
X119810859Y-100599953D01*
X119649953Y-100760859D01*
X119519432Y-100947264D01*
X119423261Y-101153502D01*
X119364364Y-101373310D01*
X119344531Y-101600000D01*
X119364364Y-101826689D01*
X119423261Y-102046497D01*
X119519432Y-102252734D01*
X119542127Y-102285147D01*
X119563713Y-102341875D01*
X119555790Y-102402052D01*
X119520256Y-102451259D01*
X119465625Y-102477707D01*
X119404987Y-102475060D01*
X119352871Y-102443951D01*
X117943100Y-101034180D01*
X117912851Y-100984818D01*
X117908309Y-100927102D01*
X117930464Y-100873615D01*
X117974487Y-100836015D01*
X118030782Y-100822500D01*
X118248721Y-100822500D01*
X118251862Y-100822539D01*
X118339363Y-100824757D01*
X118397432Y-100814348D01*
X118406736Y-100813043D01*
X118465438Y-100807074D01*
X118494467Y-100797965D01*
X118509700Y-100794226D01*
X118539653Y-100788858D01*
X118594426Y-100766978D01*
X118603301Y-100763819D01*
X118620675Y-100758367D01*
X118659588Y-100746159D01*
X118686194Y-100731390D01*
X118700362Y-100724662D01*
X118728617Y-100713377D01*
X118777879Y-100680909D01*
X118785910Y-100676043D01*
X118837502Y-100647409D01*
X118860587Y-100627589D01*
X118873114Y-100618144D01*
X118898519Y-100601402D01*
X118940251Y-100559668D01*
X118947123Y-100553300D01*
X118991895Y-100514866D01*
X119010519Y-100490803D01*
X119020880Y-100479039D01*
X119606001Y-99893919D01*
X119646230Y-99867039D01*
X119693683Y-99857600D01*
X123073821Y-99857600D01*
X123076962Y-99857639D01*
X123164463Y-99859857D01*
X123222532Y-99849448D01*
X123231836Y-99848143D01*
X123290538Y-99842174D01*
X123319567Y-99833065D01*
X123334800Y-99829326D01*
X123364753Y-99823958D01*
X123419526Y-99802078D01*
X123428401Y-99798919D01*
X123445775Y-99793467D01*
X123484688Y-99781259D01*
X123511294Y-99766490D01*
X123525462Y-99759762D01*
X123553717Y-99748477D01*
X123602979Y-99716009D01*
X123611010Y-99711143D01*
X123662602Y-99682509D01*
X123685687Y-99662689D01*
X123698214Y-99653244D01*
X123723619Y-99636502D01*
X123765351Y-99594768D01*
X123772223Y-99588400D01*
X123816995Y-99549966D01*
X123835624Y-99525898D01*
X123845983Y-99514136D01*
X125955118Y-97405000D01*
X128110001Y-97405000D01*
X128110001Y-97829979D01*
X128120493Y-97932695D01*
X128175642Y-98099122D01*
X128267683Y-98248345D01*
X128391654Y-98372316D01*
X128540877Y-98464357D01*
X128707303Y-98519506D01*
X128810021Y-98530000D01*
X129010000Y-98530000D01*
X129010000Y-97405000D01*
X129510000Y-97405000D01*
X129510000Y-98529999D01*
X129709979Y-98529999D01*
X129812695Y-98519506D01*
X129979122Y-98464357D01*
X130128345Y-98372316D01*
X130252316Y-98248345D01*
X130344357Y-98099122D01*
X130399506Y-97932696D01*
X130410000Y-97829979D01*
X130410000Y-97405000D01*
X129510000Y-97405000D01*
X129010000Y-97405000D01*
X128110001Y-97405000D01*
X125955118Y-97405000D01*
X126455118Y-96905000D01*
X128110000Y-96905000D01*
X129010000Y-96905000D01*
X129010000Y-95780001D01*
X128810021Y-95780001D01*
X128707304Y-95790493D01*
X128540877Y-95845642D01*
X128391654Y-95937683D01*
X128267683Y-96061654D01*
X128175642Y-96210877D01*
X128120493Y-96377303D01*
X128110000Y-96480021D01*
X128110000Y-96905000D01*
X126455118Y-96905000D01*
X126630589Y-96729529D01*
X126632759Y-96727413D01*
X126696253Y-96667059D01*
X126729959Y-96618630D01*
X126735628Y-96611113D01*
X126772898Y-96565407D01*
X126786983Y-96538439D01*
X126795118Y-96525015D01*
X126801573Y-96515740D01*
X126812495Y-96500049D01*
X126835768Y-96445815D01*
X126839798Y-96437331D01*
X126846143Y-96425186D01*
X126867109Y-96385049D01*
X126875481Y-96355790D01*
X126880734Y-96341032D01*
X126892740Y-96313058D01*
X126904618Y-96255256D01*
X126906851Y-96246156D01*
X126923087Y-96189418D01*
X126925397Y-96159077D01*
X126927576Y-96143535D01*
X126933700Y-96113741D01*
X126933700Y-96054758D01*
X126934058Y-96045344D01*
X126934883Y-96034506D01*
X126938537Y-95986524D01*
X126934693Y-95956348D01*
X126933700Y-95940683D01*
X126933700Y-95780000D01*
X129510000Y-95780000D01*
X129510000Y-96905000D01*
X130409999Y-96905000D01*
X130409999Y-96480021D01*
X130399506Y-96377304D01*
X130344357Y-96210877D01*
X130252316Y-96061654D01*
X130128345Y-95937683D01*
X129979122Y-95845642D01*
X129812696Y-95790493D01*
X129709979Y-95780000D01*
X129510000Y-95780000D01*
X126933700Y-95780000D01*
X126933700Y-92292479D01*
X126933740Y-92289337D01*
X126935957Y-92201838D01*
X126925550Y-92143774D01*
X126924241Y-92134442D01*
X126922745Y-92119734D01*
X126918274Y-92075762D01*
X126909162Y-92046720D01*
X126905426Y-92031497D01*
X126900058Y-92001547D01*
X126878176Y-91946766D01*
X126875016Y-91937889D01*
X126857359Y-91881612D01*
X126842595Y-91855012D01*
X126835860Y-91840831D01*
X126824576Y-91812581D01*
X126792122Y-91763339D01*
X126787238Y-91755278D01*
X126758608Y-91703695D01*
X126738790Y-91680611D01*
X126729343Y-91668084D01*
X126712602Y-91642682D01*
X126670899Y-91600979D01*
X126664505Y-91594081D01*
X126626066Y-91549305D01*
X126626064Y-91549303D01*
X126626062Y-91549301D01*
X126602002Y-91530677D01*
X126590222Y-91520302D01*
X123191885Y-88121965D01*
X123167182Y-88086686D01*
X123159340Y-88057415D01*
X123159015Y-88057503D01*
X123156207Y-88047023D01*
X123099575Y-87835670D01*
X123007102Y-87637362D01*
X122881598Y-87458123D01*
X122726877Y-87303402D01*
X122547639Y-87177898D01*
X122426897Y-87121595D01*
X122349331Y-87085425D01*
X122137974Y-87028792D01*
X121920000Y-87009722D01*
X121702025Y-87028792D01*
X121490668Y-87085425D01*
X121292361Y-87177898D01*
X121113122Y-87303402D01*
X120958402Y-87458122D01*
X120832898Y-87637361D01*
X120740425Y-87835668D01*
X120683792Y-88047025D01*
X120664722Y-88264999D01*
X120683792Y-88482974D01*
X120740425Y-88694331D01*
X120761561Y-88739656D01*
X120832898Y-88892639D01*
X120958402Y-89071877D01*
X121113123Y-89226598D01*
X121292361Y-89352102D01*
X121490670Y-89444575D01*
X121702023Y-89501207D01*
X121712503Y-89504015D01*
X121712415Y-89504340D01*
X121741685Y-89512183D01*
X121776964Y-89536885D01*
X124896381Y-92656301D01*
X124923261Y-92696529D01*
X124932700Y-92743982D01*
X124932700Y-95546217D01*
X124923261Y-95593670D01*
X124896381Y-95633898D01*
X122709999Y-97820281D01*
X122669771Y-97847161D01*
X122622318Y-97856600D01*
X121942683Y-97856600D01*
X121886388Y-97843085D01*
X121842365Y-97805485D01*
X121820210Y-97751998D01*
X121824752Y-97694282D01*
X121855002Y-97644919D01*
X122148102Y-97351818D01*
X122188330Y-97324938D01*
X122235783Y-97315499D01*
X122595009Y-97315499D01*
X122646402Y-97310248D01*
X122697797Y-97304999D01*
X122864334Y-97249814D01*
X123013656Y-97157712D01*
X123137712Y-97033656D01*
X123229814Y-96884334D01*
X123284999Y-96717797D01*
X123295500Y-96615009D01*
X123295499Y-95714992D01*
X123284999Y-95612203D01*
X123229814Y-95445666D01*
X123137712Y-95296344D01*
X123137711Y-95296342D01*
X123013657Y-95172288D01*
X122864334Y-95080186D01*
X122697797Y-95025000D01*
X122595009Y-95014500D01*
X121244991Y-95014500D01*
X121142203Y-95025000D01*
X120975665Y-95080186D01*
X120826342Y-95172288D01*
X120702288Y-95296342D01*
X120610186Y-95445665D01*
X120555000Y-95612202D01*
X120544500Y-95714991D01*
X120544500Y-96074216D01*
X120535061Y-96121669D01*
X120508181Y-96161897D01*
X118550682Y-98119396D01*
X118543774Y-98125799D01*
X118499004Y-98164234D01*
X118480380Y-98188294D01*
X118470007Y-98200071D01*
X117884899Y-98785181D01*
X117844671Y-98812061D01*
X117797218Y-98821500D01*
X115781782Y-98821500D01*
X115734329Y-98812061D01*
X115694101Y-98785181D01*
X114916567Y-98007647D01*
X114914412Y-98005438D01*
X114854059Y-97941947D01*
X114805640Y-97908246D01*
X114798118Y-97902575D01*
X114797036Y-97901693D01*
X114752407Y-97865302D01*
X114752408Y-97865302D01*
X114752405Y-97865300D01*
X114725440Y-97851215D01*
X114712019Y-97843084D01*
X114687049Y-97825705D01*
X114687048Y-97825704D01*
X114687046Y-97825703D01*
X114632845Y-97802443D01*
X114624336Y-97798402D01*
X114572053Y-97771092D01*
X114566126Y-97769396D01*
X114542798Y-97762721D01*
X114528020Y-97757459D01*
X114500058Y-97745460D01*
X114442272Y-97733583D01*
X114433128Y-97731338D01*
X114376421Y-97715113D01*
X114346075Y-97712802D01*
X114330534Y-97710622D01*
X114300742Y-97704500D01*
X114300741Y-97704500D01*
X114241758Y-97704500D01*
X114232344Y-97704142D01*
X114198331Y-97701552D01*
X114173524Y-97699663D01*
X114173523Y-97699663D01*
X114158689Y-97701552D01*
X114116812Y-97699742D01*
X114077931Y-97684084D01*
X113974334Y-97620186D01*
X113807797Y-97565000D01*
X113705009Y-97554500D01*
X112354991Y-97554500D01*
X112252203Y-97565000D01*
X112085665Y-97620186D01*
X111936342Y-97712288D01*
X111812288Y-97836342D01*
X111720186Y-97985665D01*
X111665000Y-98152202D01*
X111654500Y-98254990D01*
X111654500Y-99155008D01*
X88185670Y-99155008D01*
X88143345Y-99112683D01*
X87994122Y-99020642D01*
X87827696Y-98965493D01*
X87724979Y-98955000D01*
X87525000Y-98955000D01*
X84629904Y-98955000D01*
X84625009Y-98954500D01*
X83724991Y-98954500D01*
X83622203Y-98965000D01*
X83455665Y-99020186D01*
X83306342Y-99112288D01*
X83182288Y-99236342D01*
X83090186Y-99385665D01*
X83083954Y-99404473D01*
X83055069Y-99491644D01*
X83054121Y-99494504D01*
X83028242Y-99538829D01*
X82986630Y-99568877D01*
X82936415Y-99579500D01*
X74898585Y-99579500D01*
X74848370Y-99568877D01*
X74806758Y-99538829D01*
X74780879Y-99494504D01*
X74744814Y-99385666D01*
X74659280Y-99246992D01*
X74652711Y-99236342D01*
X74528657Y-99112288D01*
X74379334Y-99020186D01*
X74212797Y-98965000D01*
X74110009Y-98954500D01*
X73209991Y-98954500D01*
X73107203Y-98965000D01*
X72940665Y-99020186D01*
X72791342Y-99112288D01*
X72667288Y-99236342D01*
X72575186Y-99385665D01*
X72520000Y-99552202D01*
X72509500Y-99654990D01*
X72509500Y-101005008D01*
X71710500Y-101005008D01*
X71710499Y-99654992D01*
X71706647Y-99617288D01*
X71699999Y-99552203D01*
X71697612Y-99544999D01*
X71644814Y-99385666D01*
X71559280Y-99246992D01*
X71552711Y-99236342D01*
X71428657Y-99112288D01*
X71369404Y-99075741D01*
X71326223Y-99030634D01*
X71310500Y-98970202D01*
X71310500Y-98966230D01*
X71319939Y-98918777D01*
X71346819Y-98878549D01*
X73677636Y-96547732D01*
X80335819Y-96547732D01*
X80335820Y-96547733D01*
X80336631Y-96548427D01*
X80551372Y-96680019D01*
X80784043Y-96776396D01*
X81028929Y-96835187D01*
X81280000Y-96854947D01*
X81531070Y-96835187D01*
X81775956Y-96776396D01*
X82008632Y-96680017D01*
X82223364Y-96548430D01*
X82224179Y-96547732D01*
X81280001Y-95603553D01*
X81280000Y-95603553D01*
X80335819Y-96547732D01*
X73677636Y-96547732D01*
X74975369Y-95249999D01*
X79675052Y-95249999D01*
X79694812Y-95501070D01*
X79753603Y-95745956D01*
X79849982Y-95978632D01*
X79981570Y-96193365D01*
X79982265Y-96194178D01*
X79982266Y-96194178D01*
X80926446Y-95250001D01*
X81633553Y-95250001D01*
X82577732Y-96194179D01*
X82578430Y-96193364D01*
X82710017Y-95978632D01*
X82806396Y-95745956D01*
X82865187Y-95501070D01*
X82884947Y-95249999D01*
X82865187Y-94998929D01*
X82806396Y-94754043D01*
X82710019Y-94521372D01*
X82578427Y-94306631D01*
X82577733Y-94305820D01*
X82577732Y-94305819D01*
X81633553Y-95250000D01*
X81633553Y-95250001D01*
X80926446Y-95250001D01*
X80926446Y-95250000D01*
X79982266Y-94305820D01*
X79982265Y-94305820D01*
X79981569Y-94306635D01*
X79849982Y-94521367D01*
X79753603Y-94754043D01*
X79694812Y-94998929D01*
X79675052Y-95249999D01*
X74975369Y-95249999D01*
X76273102Y-93952266D01*
X80335820Y-93952266D01*
X81280000Y-94896446D01*
X81280001Y-94896446D01*
X82224178Y-93952266D01*
X82224178Y-93952265D01*
X82223365Y-93951570D01*
X82008632Y-93819982D01*
X81775956Y-93723603D01*
X81531070Y-93664812D01*
X81280000Y-93645052D01*
X81028929Y-93664812D01*
X80784043Y-93723603D01*
X80551367Y-93819982D01*
X80336635Y-93951569D01*
X80335820Y-93952265D01*
X80335820Y-93952266D01*
X76273102Y-93952266D01*
X80538548Y-89686819D01*
X80578776Y-89659939D01*
X80626229Y-89650500D01*
X85625864Y-89650500D01*
X85684881Y-89665445D01*
X85729672Y-89706678D01*
X85806833Y-89824781D01*
X85806836Y-89824785D01*
X85975256Y-90007738D01*
X86010557Y-90035214D01*
X86171485Y-90160470D01*
X86171487Y-90160471D01*
X86171491Y-90160474D01*
X86390190Y-90278828D01*
X86625386Y-90359571D01*
X86870665Y-90400500D01*
X87119335Y-90400500D01*
X87364614Y-90359571D01*
X87599810Y-90278828D01*
X87818509Y-90160474D01*
X88014744Y-90007738D01*
X88183164Y-89824785D01*
X88319173Y-89616607D01*
X88419063Y-89388881D01*
X88480108Y-89147821D01*
X88500643Y-88900000D01*
X88480108Y-88652179D01*
X88419063Y-88411119D01*
X88406241Y-88381889D01*
X88397021Y-88314711D01*
X88424516Y-88252725D01*
X88480506Y-88214471D01*
X88548246Y-88211388D01*
X88607479Y-88244400D01*
X90403181Y-90040102D01*
X90430061Y-90080330D01*
X90439500Y-90127783D01*
X90439500Y-94855622D01*
X90431017Y-94900697D01*
X90406730Y-94939604D01*
X90386583Y-94961490D01*
X90331020Y-95021848D01*
X90204076Y-95216150D01*
X90110844Y-95428696D01*
X90110842Y-95428700D01*
X90110843Y-95428700D01*
X90058880Y-95633898D01*
X90053865Y-95653700D01*
X90034699Y-95885000D01*
X90053865Y-96116299D01*
X90053865Y-96116301D01*
X90053866Y-96116305D01*
X90110843Y-96341300D01*
X90110844Y-96341303D01*
X90183966Y-96508003D01*
X90204076Y-96553849D01*
X90331021Y-96748153D01*
X90488216Y-96918913D01*
X90671374Y-97061470D01*
X90875497Y-97171936D01*
X90978407Y-97207265D01*
X91095015Y-97247297D01*
X91095017Y-97247297D01*
X91095019Y-97247298D01*
X91323951Y-97285500D01*
X91556048Y-97285500D01*
X91556049Y-97285500D01*
X91784981Y-97247298D01*
X92004503Y-97171936D01*
X92208626Y-97061470D01*
X92391784Y-96918913D01*
X92548979Y-96748153D01*
X92675924Y-96553849D01*
X92769157Y-96341300D01*
X92826134Y-96116305D01*
X92845300Y-95885000D01*
X92826134Y-95653695D01*
X92769157Y-95428700D01*
X92675924Y-95216151D01*
X92548979Y-95021847D01*
X92473269Y-94939604D01*
X92448983Y-94900697D01*
X92440500Y-94855622D01*
X92440500Y-89676238D01*
X92440540Y-89673096D01*
X92442756Y-89585639D01*
X92442755Y-89585638D01*
X92442756Y-89585636D01*
X92432345Y-89527554D01*
X92431042Y-89518263D01*
X92425074Y-89459562D01*
X92415964Y-89430528D01*
X92412223Y-89415286D01*
X92407992Y-89391678D01*
X92406858Y-89385347D01*
X92406857Y-89385345D01*
X92406857Y-89385343D01*
X92384976Y-89330565D01*
X92381816Y-89321689D01*
X92378532Y-89311223D01*
X92364159Y-89265412D01*
X92349395Y-89238812D01*
X92342660Y-89224631D01*
X92342414Y-89224016D01*
X92331377Y-89196383D01*
X92298917Y-89147131D01*
X92294036Y-89139074D01*
X92271125Y-89097797D01*
X92265409Y-89087498D01*
X92245582Y-89064403D01*
X92236146Y-89051888D01*
X92219402Y-89026481D01*
X92219400Y-89026479D01*
X92219399Y-89026477D01*
X92177693Y-88984772D01*
X92171287Y-88977860D01*
X92132864Y-88933102D01*
X92108804Y-88914478D01*
X92097026Y-88904105D01*
X91306699Y-88113778D01*
X90511100Y-87318180D01*
X90480851Y-87268818D01*
X90476309Y-87211102D01*
X90498464Y-87157615D01*
X90542487Y-87120015D01*
X90598782Y-87106500D01*
X96472218Y-87106500D01*
X96528513Y-87120015D01*
X96572536Y-87157615D01*
X96594691Y-87211102D01*
X96590149Y-87268818D01*
X96559899Y-87318181D01*
X95822645Y-88055433D01*
X95820398Y-88057624D01*
X95756948Y-88117940D01*
X95723244Y-88166362D01*
X95717573Y-88173882D01*
X95680301Y-88219593D01*
X95666210Y-88246566D01*
X95658082Y-88259983D01*
X95640705Y-88284950D01*
X95617439Y-88339165D01*
X95613399Y-88347671D01*
X95586090Y-88399952D01*
X95577720Y-88429201D01*
X95572459Y-88443978D01*
X95560460Y-88471942D01*
X95548587Y-88529713D01*
X95546342Y-88538860D01*
X95530113Y-88595580D01*
X95527802Y-88625925D01*
X95525622Y-88641466D01*
X95519500Y-88671259D01*
X95519500Y-88730242D01*
X95519142Y-88739656D01*
X95514663Y-88798477D01*
X95518506Y-88828651D01*
X95519500Y-88844317D01*
X95519500Y-90675622D01*
X95503777Y-90736054D01*
X95460596Y-90781161D01*
X95426342Y-90802288D01*
X95302288Y-90926342D01*
X95210186Y-91075665D01*
X95155000Y-91242202D01*
X95144500Y-91344990D01*
X95144500Y-92245008D01*
X95155000Y-92347796D01*
X95210186Y-92514334D01*
X95302288Y-92663657D01*
X95426342Y-92787711D01*
X95426344Y-92787712D01*
X95575666Y-92879814D01*
X95687017Y-92916712D01*
X95742202Y-92934999D01*
X95752703Y-92936071D01*
X95844991Y-92945500D01*
X97195008Y-92945499D01*
X97297797Y-92934999D01*
X97464334Y-92879814D01*
X97613656Y-92787712D01*
X97737712Y-92663656D01*
X97829814Y-92514334D01*
X97884999Y-92347797D01*
X97895500Y-92245009D01*
X97895499Y-91344992D01*
X97884999Y-91242203D01*
X97829814Y-91075666D01*
X97772592Y-90982895D01*
X97737711Y-90926342D01*
X97613657Y-90802288D01*
X97579404Y-90781161D01*
X97536223Y-90736054D01*
X97520500Y-90675622D01*
X97520500Y-89238783D01*
X97529939Y-89191330D01*
X97556819Y-89151102D01*
X99565102Y-87142819D01*
X99605330Y-87115939D01*
X99652783Y-87106500D01*
X101376896Y-87106500D01*
X101436189Y-87121595D01*
X101481046Y-87163204D01*
X101500547Y-87221198D01*
X101489942Y-87281456D01*
X101470704Y-87305600D01*
X101473086Y-87307406D01*
X101372679Y-87439814D01*
X101317969Y-87578547D01*
X101307500Y-87665728D01*
X101307500Y-89636672D01*
X101317969Y-89723852D01*
X101372679Y-89862585D01*
X101462787Y-89981412D01*
X101581614Y-90071520D01*
X101581615Y-90071520D01*
X101581616Y-90071521D01*
X101588501Y-90074236D01*
X101720347Y-90126230D01*
X101807528Y-90136700D01*
X101807532Y-90136700D01*
X102408468Y-90136700D01*
X102408473Y-90136700D01*
X102488716Y-90127064D01*
X102556756Y-90138198D01*
X102608333Y-90183951D01*
X102627500Y-90250179D01*
X102627500Y-90520501D01*
X102610887Y-90582501D01*
X102565500Y-90627888D01*
X102503500Y-90644501D01*
X102194991Y-90644501D01*
X102092203Y-90655000D01*
X101925665Y-90710186D01*
X101776342Y-90802288D01*
X101652288Y-90926342D01*
X101560186Y-91075665D01*
X101505000Y-91242202D01*
X101494500Y-91344990D01*
X101494500Y-92245008D01*
X101505000Y-92347796D01*
X101560186Y-92514334D01*
X101652288Y-92663657D01*
X101776342Y-92787711D01*
X101776344Y-92787712D01*
X101925666Y-92879814D01*
X102037017Y-92916712D01*
X102092202Y-92934999D01*
X102102703Y-92936071D01*
X102194991Y-92945500D01*
X103545008Y-92945499D01*
X103647797Y-92934999D01*
X103814334Y-92879814D01*
X103963656Y-92787712D01*
X104087712Y-92663656D01*
X104179814Y-92514334D01*
X104234999Y-92347797D01*
X104245500Y-92245009D01*
X104245499Y-91344992D01*
X104234999Y-91242203D01*
X104179814Y-91075666D01*
X104146961Y-91022402D01*
X104128500Y-90957306D01*
X104128500Y-90260644D01*
X104142015Y-90204349D01*
X104179615Y-90160326D01*
X104233102Y-90138171D01*
X104290818Y-90142713D01*
X104340181Y-90172963D01*
X106636774Y-92469555D01*
X106663654Y-92509783D01*
X106673093Y-92557236D01*
X106673093Y-95414178D01*
X106663654Y-95461631D01*
X106636774Y-95501859D01*
X105770451Y-96368181D01*
X105730223Y-96395061D01*
X105682770Y-96404500D01*
X99142229Y-96404500D01*
X99094776Y-96395061D01*
X99054548Y-96368181D01*
X97931818Y-95245451D01*
X97904938Y-95205223D01*
X97895499Y-95157770D01*
X97895499Y-95145000D01*
X101495001Y-95145000D01*
X101495001Y-95344979D01*
X101505493Y-95447695D01*
X101560642Y-95614122D01*
X101652683Y-95763345D01*
X101776654Y-95887316D01*
X101925877Y-95979357D01*
X102092303Y-96034506D01*
X102195021Y-96045000D01*
X102620000Y-96045000D01*
X102620000Y-95145000D01*
X103120000Y-95145000D01*
X103120000Y-96044999D01*
X103544979Y-96044999D01*
X103647695Y-96034506D01*
X103814122Y-95979357D01*
X103963345Y-95887316D01*
X104087316Y-95763345D01*
X104179357Y-95614122D01*
X104234506Y-95447696D01*
X104245000Y-95344979D01*
X104245000Y-95145000D01*
X103120000Y-95145000D01*
X102620000Y-95145000D01*
X101495001Y-95145000D01*
X97895499Y-95145000D01*
X97895499Y-94645000D01*
X101495000Y-94645000D01*
X102620000Y-94645000D01*
X102620000Y-93745001D01*
X102195021Y-93745001D01*
X102092304Y-93755493D01*
X101925877Y-93810642D01*
X101776654Y-93902683D01*
X101652683Y-94026654D01*
X101560642Y-94175877D01*
X101505493Y-94342303D01*
X101495000Y-94445021D01*
X101495000Y-94645000D01*
X97895499Y-94645000D01*
X97895499Y-94444991D01*
X97884999Y-94342203D01*
X97873213Y-94306635D01*
X97829814Y-94175666D01*
X97737712Y-94026344D01*
X97737711Y-94026342D01*
X97613657Y-93902288D01*
X97464334Y-93810186D01*
X97297797Y-93755000D01*
X97199904Y-93745000D01*
X103120000Y-93745000D01*
X103120000Y-94645000D01*
X104244999Y-94645000D01*
X104244999Y-94445021D01*
X104234506Y-94342304D01*
X104179357Y-94175877D01*
X104087316Y-94026654D01*
X103963345Y-93902683D01*
X103814122Y-93810642D01*
X103647696Y-93755493D01*
X103544979Y-93745000D01*
X103120000Y-93745000D01*
X97199904Y-93745000D01*
X97195009Y-93744500D01*
X95844991Y-93744500D01*
X95742203Y-93755000D01*
X95575665Y-93810186D01*
X95426342Y-93902288D01*
X95302288Y-94026342D01*
X95210186Y-94175665D01*
X95155000Y-94342202D01*
X95144500Y-94444990D01*
X95144500Y-95345008D01*
X95155000Y-95447796D01*
X95210186Y-95614334D01*
X95302288Y-95763657D01*
X95426342Y-95887711D01*
X95426344Y-95887712D01*
X95575666Y-95979814D01*
X95679074Y-96014080D01*
X95742202Y-96034999D01*
X95752703Y-96036071D01*
X95844991Y-96045500D01*
X96557769Y-96045499D01*
X96605222Y-96054938D01*
X96645450Y-96081818D01*
X98204267Y-97640634D01*
X98216048Y-97654266D01*
X98224085Y-97665061D01*
X98230390Y-97673530D01*
X98242968Y-97684084D01*
X98268339Y-97705373D01*
X98276314Y-97712681D01*
X98280224Y-97716591D01*
X98283806Y-97719423D01*
X98304543Y-97735820D01*
X98307330Y-97738090D01*
X98364786Y-97786302D01*
X98364788Y-97786303D01*
X98365750Y-97787110D01*
X98382180Y-97797578D01*
X98383322Y-97798110D01*
X98383323Y-97798111D01*
X98451350Y-97829832D01*
X98454527Y-97831371D01*
X98520667Y-97864588D01*
X98522702Y-97865610D01*
X98541085Y-97871999D01*
X98542322Y-97872254D01*
X98542328Y-97872257D01*
X98615852Y-97887437D01*
X98619286Y-97888199D01*
X98647510Y-97894889D01*
X98693506Y-97905791D01*
X98712879Y-97907770D01*
X98714141Y-97907733D01*
X98714145Y-97907734D01*
X98786534Y-97905627D01*
X98789132Y-97905552D01*
X98792738Y-97905500D01*
X105981294Y-97905500D01*
X105999264Y-97906809D01*
X106003320Y-97907402D01*
X106023023Y-97910289D01*
X106072368Y-97905972D01*
X106083176Y-97905500D01*
X106088706Y-97905500D01*
X106088709Y-97905500D01*
X106119550Y-97901894D01*
X106123031Y-97901539D01*
X106197797Y-97894999D01*
X106197797Y-97894998D01*
X106199052Y-97894889D01*
X106218062Y-97890674D01*
X106219250Y-97890241D01*
X106219255Y-97890241D01*
X106289820Y-97864557D01*
X106293095Y-97863419D01*
X106364334Y-97839814D01*
X106364336Y-97839812D01*
X106365536Y-97839415D01*
X106383063Y-97830929D01*
X106384112Y-97830238D01*
X106384117Y-97830237D01*
X106446806Y-97789005D01*
X106449798Y-97787099D01*
X106513656Y-97747712D01*
X106513656Y-97747711D01*
X106514729Y-97747050D01*
X106529824Y-97734753D01*
X106530692Y-97733832D01*
X106530696Y-97733830D01*
X106582184Y-97679254D01*
X106584630Y-97676736D01*
X107909235Y-96352131D01*
X107922853Y-96340361D01*
X107942123Y-96326017D01*
X107973969Y-96288063D01*
X107981255Y-96280111D01*
X107985184Y-96276184D01*
X108004426Y-96251846D01*
X108006683Y-96249077D01*
X108021446Y-96231482D01*
X108054895Y-96191621D01*
X108054896Y-96191618D01*
X108055708Y-96190651D01*
X108066166Y-96174234D01*
X108066699Y-96173089D01*
X108066704Y-96173084D01*
X108098426Y-96105053D01*
X108099955Y-96101895D01*
X108133633Y-96034840D01*
X108133633Y-96034839D01*
X108134205Y-96033701D01*
X108140593Y-96015321D01*
X108140848Y-96014082D01*
X108140850Y-96014080D01*
X108156040Y-95940510D01*
X108156779Y-95937177D01*
X108174093Y-95864128D01*
X108174093Y-95864124D01*
X108174384Y-95862896D01*
X108176363Y-95843528D01*
X108176326Y-95842266D01*
X108176327Y-95842263D01*
X108174145Y-95767276D01*
X108174093Y-95763670D01*
X108174093Y-94306237D01*
X108187608Y-94249942D01*
X108225208Y-94205919D01*
X108278695Y-94183764D01*
X108336411Y-94188306D01*
X108385774Y-94218556D01*
X110257853Y-96090634D01*
X110269634Y-96104266D01*
X110283973Y-96123526D01*
X110283976Y-96123530D01*
X110321941Y-96155386D01*
X110329903Y-96162684D01*
X110333810Y-96166591D01*
X110358128Y-96185819D01*
X110360884Y-96188063D01*
X110418372Y-96236302D01*
X110418374Y-96236303D01*
X110419343Y-96237116D01*
X110435763Y-96247576D01*
X110436907Y-96248109D01*
X110436909Y-96248111D01*
X110504943Y-96279835D01*
X110508042Y-96281335D01*
X110571201Y-96313055D01*
X110576290Y-96315611D01*
X110594670Y-96321998D01*
X110595907Y-96322253D01*
X110595913Y-96322256D01*
X110669448Y-96337439D01*
X110672795Y-96338181D01*
X110745865Y-96355500D01*
X110745867Y-96355500D01*
X110747091Y-96355790D01*
X110766462Y-96357769D01*
X110767726Y-96357732D01*
X110767730Y-96357733D01*
X110842696Y-96355552D01*
X110846302Y-96355500D01*
X111670202Y-96355500D01*
X111730634Y-96371223D01*
X111775741Y-96414404D01*
X111812288Y-96473657D01*
X111936342Y-96597711D01*
X111964004Y-96614773D01*
X112085666Y-96689814D01*
X112170113Y-96717797D01*
X112252202Y-96744999D01*
X112262703Y-96746071D01*
X112354991Y-96755500D01*
X113705008Y-96755499D01*
X113807797Y-96744999D01*
X113974334Y-96689814D01*
X114123656Y-96597712D01*
X114247712Y-96473656D01*
X114339814Y-96324334D01*
X114394999Y-96157797D01*
X114405500Y-96055009D01*
X114405499Y-95314260D01*
X114421516Y-95253305D01*
X114465429Y-95208096D01*
X114525893Y-95190313D01*
X114538941Y-95189933D01*
X114538944Y-95189934D01*
X114610664Y-95187847D01*
X114613931Y-95187752D01*
X114617537Y-95187700D01*
X116396679Y-95187700D01*
X116420694Y-95187700D01*
X116438664Y-95189009D01*
X116442720Y-95189602D01*
X116462423Y-95192489D01*
X116511768Y-95188172D01*
X116522576Y-95187700D01*
X116528109Y-95187700D01*
X119113094Y-95187700D01*
X119131064Y-95189009D01*
X119135120Y-95189602D01*
X119154823Y-95192489D01*
X119204168Y-95188172D01*
X119214976Y-95187700D01*
X119220506Y-95187700D01*
X119220509Y-95187700D01*
X119251350Y-95184094D01*
X119254831Y-95183739D01*
X119329597Y-95177199D01*
X119329597Y-95177198D01*
X119330852Y-95177089D01*
X119349862Y-95172874D01*
X119351050Y-95172441D01*
X119351055Y-95172441D01*
X119421620Y-95146757D01*
X119424895Y-95145619D01*
X119496134Y-95122014D01*
X119496136Y-95122012D01*
X119497336Y-95121615D01*
X119514863Y-95113129D01*
X119515912Y-95112438D01*
X119515917Y-95112437D01*
X119578606Y-95071205D01*
X119581598Y-95069299D01*
X119645456Y-95029912D01*
X119645456Y-95029911D01*
X119646529Y-95029250D01*
X119661624Y-95016953D01*
X119662492Y-95016032D01*
X119662496Y-95016030D01*
X119713984Y-94961454D01*
X119716429Y-94958937D01*
X120634320Y-94041047D01*
X120689905Y-94008955D01*
X120754093Y-94008955D01*
X120809680Y-94041049D01*
X120826342Y-94057711D01*
X120826344Y-94057712D01*
X120975666Y-94149814D01*
X121054319Y-94175877D01*
X121142202Y-94204999D01*
X121151208Y-94205919D01*
X121244991Y-94215500D01*
X122595008Y-94215499D01*
X122697797Y-94204999D01*
X122864334Y-94149814D01*
X123013656Y-94057712D01*
X123137712Y-93933656D01*
X123229814Y-93784334D01*
X123284999Y-93617797D01*
X123295500Y-93515009D01*
X123295499Y-92614992D01*
X123284999Y-92512203D01*
X123229814Y-92345666D01*
X123137712Y-92196344D01*
X123137711Y-92196342D01*
X123013657Y-92072288D01*
X122864334Y-91980186D01*
X122697797Y-91925000D01*
X122595009Y-91914500D01*
X121244991Y-91914500D01*
X121142203Y-91925000D01*
X120975665Y-91980186D01*
X120826342Y-92072288D01*
X120702288Y-92196342D01*
X120668555Y-92251031D01*
X120628114Y-92291471D01*
X120573826Y-92309461D01*
X120530509Y-92313251D01*
X120521629Y-92314028D01*
X120510824Y-92314500D01*
X120505291Y-92314500D01*
X120474501Y-92318098D01*
X120470917Y-92318464D01*
X120394961Y-92325109D01*
X120375921Y-92329330D01*
X120304232Y-92355421D01*
X120300831Y-92356603D01*
X120228474Y-92380580D01*
X120210927Y-92389075D01*
X120147221Y-92430975D01*
X120144181Y-92432912D01*
X120079280Y-92472944D01*
X120064165Y-92485256D01*
X120011832Y-92540725D01*
X120009320Y-92543311D01*
X119258776Y-93293855D01*
X119207004Y-93324861D01*
X119146727Y-93327756D01*
X119092221Y-93301855D01*
X119056396Y-93253293D01*
X119047737Y-93193573D01*
X119053700Y-93135208D01*
X119053700Y-92110192D01*
X119047217Y-92046736D01*
X119043199Y-92007402D01*
X118988013Y-91840863D01*
X118895911Y-91691544D01*
X118771855Y-91567488D01*
X118622536Y-91475386D01*
X118455997Y-91420200D01*
X118353208Y-91409700D01*
X117003192Y-91409700D01*
X116900402Y-91420200D01*
X116733863Y-91475386D01*
X116584544Y-91567488D01*
X116460488Y-91691544D01*
X116368386Y-91840863D01*
X116313200Y-92007402D01*
X116302700Y-92110192D01*
X116302700Y-93135208D01*
X116313200Y-93237997D01*
X116366059Y-93397512D01*
X116369011Y-93465112D01*
X116336035Y-93524195D01*
X116209848Y-93650383D01*
X116169623Y-93677261D01*
X116122170Y-93686700D01*
X114967029Y-93686700D01*
X114919576Y-93677261D01*
X114879348Y-93650381D01*
X112745419Y-91516451D01*
X112718539Y-91476223D01*
X112709100Y-91428770D01*
X112709100Y-90621537D01*
X112722615Y-90565242D01*
X112760215Y-90521219D01*
X112813702Y-90499064D01*
X112871418Y-90503606D01*
X112920781Y-90533856D01*
X112985123Y-90598198D01*
X113164361Y-90723702D01*
X113362670Y-90816175D01*
X113574023Y-90872807D01*
X113792000Y-90891877D01*
X114009977Y-90872807D01*
X114221330Y-90816175D01*
X114419639Y-90723702D01*
X114598877Y-90598198D01*
X114753598Y-90443477D01*
X114756050Y-90439974D01*
X114800369Y-90401110D01*
X114857624Y-90387100D01*
X114872679Y-90387100D01*
X114896694Y-90387100D01*
X114914664Y-90388409D01*
X114918720Y-90389002D01*
X114938423Y-90391889D01*
X114987768Y-90387572D01*
X114998576Y-90387100D01*
X115004109Y-90387100D01*
X116273006Y-90387100D01*
X116333438Y-90402823D01*
X116378543Y-90446001D01*
X116432733Y-90533856D01*
X116460490Y-90578857D01*
X116584544Y-90702911D01*
X116733863Y-90795013D01*
X116900402Y-90850199D01*
X117003192Y-90860700D01*
X118353208Y-90860700D01*
X118455997Y-90850199D01*
X118558677Y-90816174D01*
X118622534Y-90795014D01*
X118644235Y-90781629D01*
X118771855Y-90702911D01*
X118895911Y-90578855D01*
X118988013Y-90429536D01*
X119000489Y-90391888D01*
X119043199Y-90262997D01*
X119053700Y-90160208D01*
X119053700Y-89135192D01*
X119046703Y-89066701D01*
X119043199Y-89032402D01*
X118988013Y-88865863D01*
X118895911Y-88716544D01*
X118771855Y-88592488D01*
X118622536Y-88500386D01*
X118455997Y-88445200D01*
X118353208Y-88434700D01*
X117523029Y-88434700D01*
X117466734Y-88421185D01*
X117422711Y-88383585D01*
X117400556Y-88330098D01*
X117405098Y-88272382D01*
X117435348Y-88223019D01*
X117683151Y-87975215D01*
X117782838Y-87875527D01*
X117796456Y-87863757D01*
X117815730Y-87849410D01*
X117847582Y-87811449D01*
X117854868Y-87803497D01*
X117858790Y-87799577D01*
X117878063Y-87775199D01*
X117880230Y-87772539D01*
X117928502Y-87715014D01*
X117928503Y-87715010D01*
X117929319Y-87714039D01*
X117939775Y-87697625D01*
X117940309Y-87696479D01*
X117940311Y-87696477D01*
X117972016Y-87628482D01*
X117973569Y-87625275D01*
X118007240Y-87558233D01*
X118007240Y-87558229D01*
X118007810Y-87557096D01*
X118014199Y-87538717D01*
X118014456Y-87537473D01*
X118029631Y-87463971D01*
X118030386Y-87460567D01*
X118047700Y-87387521D01*
X118047700Y-87387519D01*
X118047990Y-87386295D01*
X118049969Y-87366923D01*
X118049932Y-87365659D01*
X118049933Y-87365656D01*
X118047752Y-87290689D01*
X118047700Y-87287084D01*
X118047700Y-86519030D01*
X118057139Y-86471577D01*
X118084019Y-86431349D01*
X118337911Y-86177457D01*
X118620359Y-85895008D01*
X124989500Y-85895008D01*
X125000000Y-85997796D01*
X125055186Y-86164334D01*
X125147288Y-86313657D01*
X125271342Y-86437711D01*
X125271344Y-86437712D01*
X125420666Y-86529814D01*
X125532017Y-86566712D01*
X125587202Y-86584999D01*
X125597702Y-86586071D01*
X125689991Y-86595500D01*
X127040008Y-86595499D01*
X127142797Y-86584999D01*
X127309334Y-86529814D01*
X127458656Y-86437712D01*
X127582712Y-86313656D01*
X127674814Y-86164334D01*
X127729999Y-85997797D01*
X127740500Y-85895009D01*
X127740499Y-84994992D01*
X127729999Y-84892203D01*
X127674814Y-84725666D01*
X127606492Y-84614898D01*
X127582711Y-84576342D01*
X127458657Y-84452288D01*
X127309334Y-84360186D01*
X127200494Y-84324120D01*
X127156171Y-84298242D01*
X127126123Y-84256630D01*
X127115500Y-84206415D01*
X127115500Y-84068585D01*
X127126123Y-84018369D01*
X127156171Y-83976758D01*
X127200494Y-83950879D01*
X127309334Y-83914814D01*
X127355856Y-83886119D01*
X127458655Y-83822711D01*
X127582711Y-83698655D01*
X127674813Y-83549336D01*
X127729999Y-83382797D01*
X127740500Y-83280008D01*
X127740500Y-82254992D01*
X127729999Y-82152202D01*
X127674813Y-81985663D01*
X127582711Y-81836344D01*
X127458655Y-81712288D01*
X127309336Y-81620186D01*
X127142797Y-81565000D01*
X127040008Y-81554500D01*
X125689992Y-81554500D01*
X125587202Y-81565000D01*
X125420663Y-81620186D01*
X125271344Y-81712288D01*
X125147288Y-81836344D01*
X125055186Y-81985663D01*
X125000000Y-82152202D01*
X124989500Y-82254992D01*
X124989500Y-83280008D01*
X125000000Y-83382797D01*
X125055186Y-83549336D01*
X125147288Y-83698655D01*
X125271344Y-83822711D01*
X125420663Y-83914813D01*
X125420665Y-83914813D01*
X125420666Y-83914814D01*
X125529505Y-83950879D01*
X125573829Y-83976758D01*
X125603877Y-84018369D01*
X125614500Y-84068585D01*
X125614500Y-84206415D01*
X125603877Y-84256630D01*
X125573829Y-84298242D01*
X125529505Y-84324120D01*
X125469373Y-84344045D01*
X125420665Y-84360186D01*
X125271342Y-84452288D01*
X125147288Y-84576342D01*
X125055186Y-84725665D01*
X125000000Y-84892202D01*
X124989500Y-84994990D01*
X124989500Y-85895008D01*
X118620359Y-85895008D01*
X119127825Y-85387541D01*
X119158090Y-85365317D01*
X119193619Y-85353171D01*
X119235058Y-85345744D01*
X119244336Y-85344443D01*
X119303038Y-85338474D01*
X119332067Y-85329365D01*
X119347300Y-85325626D01*
X119377253Y-85320258D01*
X119432026Y-85298378D01*
X119440901Y-85295219D01*
X119458275Y-85289767D01*
X119497188Y-85277559D01*
X119523794Y-85262790D01*
X119537962Y-85256062D01*
X119566217Y-85244777D01*
X119615479Y-85212309D01*
X119623510Y-85207443D01*
X119675102Y-85178809D01*
X119698187Y-85158989D01*
X119710714Y-85149544D01*
X119736119Y-85132802D01*
X119777851Y-85091068D01*
X119784723Y-85084700D01*
X119829495Y-85046266D01*
X119848119Y-85022203D01*
X119858480Y-85010439D01*
X124039601Y-80829319D01*
X124079830Y-80802439D01*
X124127283Y-80793000D01*
X125165271Y-80793000D01*
X125212724Y-80802439D01*
X125252952Y-80829319D01*
X125271344Y-80847711D01*
X125420663Y-80939813D01*
X125587202Y-80994999D01*
X125689992Y-81005500D01*
X127040008Y-81005500D01*
X127142797Y-80994999D01*
X127251033Y-80959133D01*
X127309334Y-80939814D01*
X127361284Y-80907771D01*
X127458655Y-80847711D01*
X127582711Y-80723655D01*
X127674813Y-80574336D01*
X127685535Y-80541981D01*
X127729999Y-80407797D01*
X127740500Y-80305008D01*
X127740500Y-79279992D01*
X127729999Y-79177203D01*
X127716170Y-79135471D01*
X127674813Y-79010663D01*
X127582711Y-78861344D01*
X127458655Y-78737288D01*
X127309336Y-78645186D01*
X127142797Y-78590000D01*
X127040008Y-78579500D01*
X126447606Y-78579500D01*
X126392296Y-78566481D01*
X126348600Y-78530158D01*
X126325694Y-78478158D01*
X126328387Y-78421400D01*
X126332273Y-78407814D01*
X126337539Y-78393019D01*
X126349540Y-78365058D01*
X126361417Y-78307256D01*
X126363652Y-78298148D01*
X126379886Y-78241418D01*
X126382196Y-78211078D01*
X126384376Y-78195540D01*
X126390500Y-78165742D01*
X126390500Y-78106756D01*
X126390858Y-78097341D01*
X126391154Y-78093449D01*
X126395337Y-78038524D01*
X126391494Y-78008348D01*
X126390500Y-77992683D01*
X126390500Y-76354499D01*
X126407113Y-76292499D01*
X126452500Y-76247112D01*
X126514500Y-76230499D01*
X126690009Y-76230499D01*
X126741402Y-76225249D01*
X126792797Y-76219999D01*
X126959334Y-76164814D01*
X127108656Y-76072712D01*
X127232712Y-75948656D01*
X127324814Y-75799334D01*
X127379999Y-75632797D01*
X127390500Y-75530009D01*
X127390499Y-74329992D01*
X127382857Y-74255186D01*
X127379999Y-74227203D01*
X127367505Y-74189500D01*
X127324814Y-74060666D01*
X127235300Y-73915540D01*
X127232711Y-73911342D01*
X127108657Y-73787288D01*
X126959334Y-73695186D01*
X126792797Y-73640000D01*
X126690009Y-73629500D01*
X124089991Y-73629500D01*
X123987203Y-73640000D01*
X123820665Y-73695186D01*
X123671342Y-73787288D01*
X123547288Y-73911342D01*
X123455186Y-74060665D01*
X123400000Y-74227202D01*
X123389500Y-74329990D01*
X123389500Y-75530008D01*
X123400000Y-75632796D01*
X123455186Y-75799334D01*
X123547288Y-75948657D01*
X123671342Y-76072711D01*
X123727895Y-76107592D01*
X123820666Y-76164814D01*
X123932017Y-76201712D01*
X123987202Y-76219999D01*
X124089991Y-76230500D01*
X124265500Y-76230500D01*
X124327500Y-76247113D01*
X124372887Y-76292500D01*
X124389500Y-76354500D01*
X124389500Y-77598217D01*
X124380061Y-77645670D01*
X124353181Y-77685898D01*
X122984275Y-79054802D01*
X122977367Y-79061205D01*
X122932604Y-79099634D01*
X122913980Y-79123694D01*
X122903607Y-79135471D01*
X118722499Y-83316581D01*
X118682271Y-83343461D01*
X118634818Y-83352900D01*
X115775578Y-83352900D01*
X115715146Y-83337177D01*
X115670039Y-83293996D01*
X115648911Y-83259742D01*
X115524857Y-83135688D01*
X115375534Y-83043586D01*
X115208997Y-82988400D01*
X115106209Y-82977900D01*
X114206191Y-82977900D01*
X114103403Y-82988400D01*
X113936865Y-83043586D01*
X113787542Y-83135688D01*
X113663488Y-83259742D01*
X113571386Y-83409065D01*
X113516200Y-83575602D01*
X113505700Y-83678390D01*
X113505700Y-85028408D01*
X113516200Y-85131196D01*
X113571386Y-85297734D01*
X113663488Y-85447057D01*
X113787542Y-85571111D01*
X113787544Y-85571112D01*
X113936866Y-85663214D01*
X114048216Y-85700112D01*
X114103402Y-85718399D01*
X114113902Y-85719471D01*
X114206191Y-85728900D01*
X115106208Y-85728899D01*
X115208997Y-85718399D01*
X115375534Y-85663214D01*
X115524856Y-85571112D01*
X115648912Y-85447056D01*
X115670038Y-85412804D01*
X115715146Y-85369623D01*
X115775578Y-85353900D01*
X116739369Y-85353900D01*
X116795665Y-85367416D01*
X116839688Y-85405016D01*
X116861843Y-85458504D01*
X116857299Y-85516221D01*
X116827047Y-85565584D01*
X116811556Y-85581074D01*
X116797928Y-85592851D01*
X116778669Y-85607189D01*
X116746833Y-85645129D01*
X116739541Y-85653089D01*
X116735608Y-85657022D01*
X116716376Y-85681345D01*
X116714102Y-85684137D01*
X116665094Y-85742544D01*
X116654618Y-85758987D01*
X116622392Y-85828094D01*
X116620822Y-85831336D01*
X116586593Y-85899492D01*
X116580196Y-85917898D01*
X116564773Y-85992588D01*
X116563993Y-85996105D01*
X116546408Y-86070305D01*
X116544429Y-86089678D01*
X116546648Y-86165931D01*
X116546700Y-86169537D01*
X116546700Y-86937570D01*
X116537261Y-86985023D01*
X116510381Y-87025251D01*
X114817434Y-88718197D01*
X114761847Y-88750291D01*
X114697659Y-88750291D01*
X114642072Y-88718197D01*
X114598880Y-88675005D01*
X114598879Y-88675004D01*
X114598877Y-88675002D01*
X114419639Y-88549498D01*
X114314318Y-88500386D01*
X114221331Y-88457025D01*
X114009974Y-88400392D01*
X113792000Y-88381322D01*
X113574025Y-88400392D01*
X113362668Y-88457025D01*
X113164361Y-88549498D01*
X112985122Y-88675002D01*
X112830402Y-88829722D01*
X112704898Y-89008961D01*
X112612425Y-89207268D01*
X112555792Y-89418625D01*
X112535799Y-89647149D01*
X112510647Y-89711828D01*
X112454681Y-89752864D01*
X112385432Y-89757403D01*
X112324590Y-89724023D01*
X109913811Y-87313244D01*
X107361128Y-84760560D01*
X107349346Y-84746927D01*
X107335009Y-84727669D01*
X107297066Y-84695831D01*
X107289091Y-84688523D01*
X107285172Y-84684604D01*
X107283132Y-84682991D01*
X107281611Y-84681043D01*
X107280070Y-84679502D01*
X107280259Y-84679312D01*
X107247033Y-84636757D01*
X107236223Y-84579105D01*
X107253121Y-84522934D01*
X107293946Y-84480815D01*
X107349559Y-84462172D01*
X107349786Y-84462152D01*
X107349892Y-84462144D01*
X107360376Y-84461700D01*
X107365909Y-84461700D01*
X110281701Y-84461700D01*
X110343701Y-84478313D01*
X110389088Y-84523700D01*
X110405701Y-84585700D01*
X110405701Y-85028409D01*
X110416200Y-85131196D01*
X110471386Y-85297734D01*
X110563488Y-85447057D01*
X110687542Y-85571111D01*
X110687544Y-85571112D01*
X110836866Y-85663214D01*
X110948216Y-85700112D01*
X111003402Y-85718399D01*
X111013902Y-85719471D01*
X111106191Y-85728900D01*
X112006208Y-85728899D01*
X112108997Y-85718399D01*
X112275534Y-85663214D01*
X112424856Y-85571112D01*
X112548912Y-85447056D01*
X112641014Y-85297734D01*
X112696199Y-85131197D01*
X112706700Y-85028409D01*
X112706699Y-83678392D01*
X112696199Y-83575603D01*
X112641014Y-83409066D01*
X112553549Y-83267262D01*
X112548911Y-83259742D01*
X112424857Y-83135688D01*
X112275534Y-83043586D01*
X112108997Y-82988400D01*
X112006209Y-82977900D01*
X111106188Y-82977900D01*
X111104730Y-82978050D01*
X111102456Y-82977900D01*
X111099876Y-82977901D01*
X111099876Y-82977732D01*
X111063536Y-82975350D01*
X111000491Y-82960408D01*
X110981121Y-82958429D01*
X110904869Y-82960648D01*
X110901263Y-82960700D01*
X109433430Y-82960700D01*
X109377135Y-82947185D01*
X109333112Y-82909585D01*
X109310957Y-82856098D01*
X109315499Y-82798382D01*
X109345749Y-82749019D01*
X109778466Y-82316302D01*
X110865567Y-81229200D01*
X117286522Y-81229200D01*
X117305592Y-81447174D01*
X117362225Y-81658531D01*
X117396827Y-81732735D01*
X117454698Y-81856839D01*
X117580202Y-82036077D01*
X117734923Y-82190798D01*
X117914161Y-82316302D01*
X118112470Y-82408775D01*
X118323823Y-82465407D01*
X118541800Y-82484477D01*
X118759777Y-82465407D01*
X118971130Y-82408775D01*
X119169439Y-82316302D01*
X119348677Y-82190798D01*
X119503398Y-82036077D01*
X119628902Y-81856839D01*
X119721375Y-81658530D01*
X119778007Y-81447177D01*
X119778007Y-81447176D01*
X119780815Y-81436697D01*
X119781140Y-81436784D01*
X119788982Y-81407514D01*
X119813682Y-81372237D01*
X121687409Y-79498510D01*
X121689579Y-79496394D01*
X121753053Y-79436059D01*
X121786765Y-79387622D01*
X121792408Y-79380138D01*
X121829698Y-79334407D01*
X121843786Y-79307435D01*
X121851911Y-79294024D01*
X121869295Y-79269049D01*
X121892568Y-79214815D01*
X121896598Y-79206331D01*
X121911815Y-79177202D01*
X121923909Y-79154049D01*
X121932278Y-79124797D01*
X121937534Y-79110032D01*
X121949540Y-79082058D01*
X121961418Y-79024256D01*
X121963651Y-79015156D01*
X121979887Y-78958418D01*
X121982197Y-78928077D01*
X121984376Y-78912535D01*
X121990500Y-78882741D01*
X121990500Y-78823757D01*
X121990858Y-78814343D01*
X121992092Y-78798135D01*
X121995337Y-78755523D01*
X121991493Y-78725347D01*
X121990500Y-78709682D01*
X121990500Y-76354499D01*
X122007113Y-76292499D01*
X122052500Y-76247112D01*
X122114500Y-76230499D01*
X122290009Y-76230499D01*
X122341402Y-76225249D01*
X122392797Y-76219999D01*
X122559334Y-76164814D01*
X122708656Y-76072712D01*
X122832712Y-75948656D01*
X122924814Y-75799334D01*
X122979999Y-75632797D01*
X122990500Y-75530009D01*
X122990499Y-74329992D01*
X122982857Y-74255186D01*
X122979999Y-74227203D01*
X122967505Y-74189500D01*
X122924814Y-74060666D01*
X122835300Y-73915540D01*
X122832711Y-73911342D01*
X122708657Y-73787288D01*
X122559334Y-73695186D01*
X122392797Y-73640000D01*
X122290009Y-73629500D01*
X119689991Y-73629500D01*
X119587203Y-73640000D01*
X119420665Y-73695186D01*
X119271342Y-73787288D01*
X119147288Y-73911342D01*
X119055186Y-74060665D01*
X119000000Y-74227202D01*
X118989500Y-74329990D01*
X118989500Y-75530008D01*
X119000000Y-75632796D01*
X119055186Y-75799334D01*
X119147288Y-75948657D01*
X119271342Y-76072711D01*
X119327895Y-76107592D01*
X119420666Y-76164814D01*
X119532017Y-76201712D01*
X119587202Y-76219999D01*
X119689991Y-76230500D01*
X119865500Y-76230500D01*
X119927500Y-76247113D01*
X119972887Y-76292500D01*
X119989500Y-76354500D01*
X119989500Y-78315218D01*
X119980061Y-78362671D01*
X119953181Y-78402899D01*
X118398763Y-79957315D01*
X118363491Y-79982014D01*
X118334213Y-79989860D01*
X118334301Y-79990186D01*
X118323825Y-79992992D01*
X118323823Y-79992993D01*
X118189940Y-80028867D01*
X118112469Y-80049625D01*
X117914161Y-80142098D01*
X117734922Y-80267602D01*
X117580202Y-80422322D01*
X117454698Y-80601561D01*
X117362225Y-80799868D01*
X117305592Y-81011225D01*
X117286522Y-81229200D01*
X110865567Y-81229200D01*
X111965638Y-80129127D01*
X111979256Y-80117357D01*
X111998530Y-80103010D01*
X112030382Y-80065049D01*
X112037668Y-80057097D01*
X112041590Y-80053177D01*
X112060863Y-80028799D01*
X112063030Y-80026139D01*
X112111302Y-79968614D01*
X112111303Y-79968610D01*
X112112119Y-79967639D01*
X112122575Y-79951225D01*
X112123109Y-79950079D01*
X112123111Y-79950077D01*
X112154816Y-79882082D01*
X112156369Y-79878875D01*
X112190040Y-79811833D01*
X112190040Y-79811829D01*
X112190610Y-79810696D01*
X112196999Y-79792317D01*
X112205643Y-79750451D01*
X112212431Y-79717571D01*
X112213195Y-79714132D01*
X112230500Y-79641121D01*
X112230500Y-79641119D01*
X112230790Y-79639895D01*
X112232769Y-79620523D01*
X112232732Y-79619259D01*
X112232733Y-79619256D01*
X112230552Y-79544289D01*
X112230500Y-79540684D01*
X112230500Y-76924798D01*
X112246223Y-76864366D01*
X112289404Y-76819259D01*
X112314911Y-76803526D01*
X112348656Y-76782712D01*
X112472712Y-76658656D01*
X112564814Y-76509334D01*
X112619999Y-76342797D01*
X112630500Y-76240009D01*
X112630499Y-74889992D01*
X112619999Y-74787203D01*
X112564814Y-74620666D01*
X112472712Y-74471344D01*
X112472711Y-74471342D01*
X112348657Y-74347288D01*
X112199334Y-74255186D01*
X112032797Y-74200000D01*
X111930009Y-74189500D01*
X111029991Y-74189500D01*
X110927203Y-74200000D01*
X110760665Y-74255186D01*
X110611342Y-74347288D01*
X110487288Y-74471342D01*
X110395186Y-74620665D01*
X110340000Y-74787202D01*
X110329500Y-74889990D01*
X110329500Y-76240008D01*
X110340000Y-76342796D01*
X110395186Y-76509334D01*
X110487288Y-76658657D01*
X110611342Y-76782711D01*
X110670596Y-76819259D01*
X110713777Y-76864366D01*
X110729500Y-76924798D01*
X110729500Y-79191170D01*
X110720061Y-79238623D01*
X110693181Y-79278851D01*
X107047651Y-82924381D01*
X107007423Y-82951261D01*
X106959970Y-82960700D01*
X106842500Y-82960700D01*
X106780500Y-82944087D01*
X106735113Y-82898700D01*
X106718500Y-82836700D01*
X106718500Y-82725728D01*
X106708030Y-82638547D01*
X106653320Y-82499814D01*
X106563212Y-82380987D01*
X106444385Y-82290879D01*
X106305652Y-82236169D01*
X106218472Y-82225700D01*
X106218468Y-82225700D01*
X105617532Y-82225700D01*
X105617528Y-82225700D01*
X105530347Y-82236169D01*
X105391615Y-82290878D01*
X105357921Y-82316429D01*
X105309605Y-82338735D01*
X105256389Y-82338734D01*
X105208074Y-82316427D01*
X105207909Y-82316302D01*
X105174384Y-82290879D01*
X105174382Y-82290878D01*
X105035652Y-82236169D01*
X104948472Y-82225700D01*
X104948468Y-82225700D01*
X104769954Y-82225700D01*
X104713659Y-82212185D01*
X104669636Y-82174585D01*
X104647481Y-82121098D01*
X104652023Y-82063382D01*
X104682273Y-82014019D01*
X104985715Y-81710577D01*
X105905642Y-80790648D01*
X105919260Y-80778878D01*
X105938530Y-80764534D01*
X105970376Y-80726580D01*
X105977662Y-80718628D01*
X105981591Y-80714701D01*
X106000833Y-80690363D01*
X106003090Y-80687594D01*
X106017853Y-80669999D01*
X106051302Y-80630138D01*
X106051303Y-80630135D01*
X106052115Y-80629168D01*
X106062573Y-80612751D01*
X106063106Y-80611606D01*
X106063111Y-80611601D01*
X106094833Y-80543570D01*
X106096362Y-80540412D01*
X106130040Y-80473357D01*
X106130040Y-80473356D01*
X106130612Y-80472218D01*
X106137000Y-80453838D01*
X106137255Y-80452599D01*
X106137257Y-80452597D01*
X106152433Y-80379092D01*
X106153194Y-80375658D01*
X106170500Y-80302645D01*
X106170500Y-80302642D01*
X106170790Y-80301418D01*
X106172769Y-80282047D01*
X106172732Y-80280783D01*
X106172733Y-80280780D01*
X106170552Y-80205813D01*
X106170500Y-80202208D01*
X106170500Y-74012230D01*
X106179939Y-73964777D01*
X106206819Y-73924549D01*
X106852369Y-73278999D01*
X113298722Y-73278999D01*
X113317792Y-73496974D01*
X113374425Y-73708331D01*
X113466898Y-73906640D01*
X113557075Y-74035426D01*
X113573761Y-74069262D01*
X113579500Y-74106549D01*
X113579500Y-74448804D01*
X113561039Y-74513900D01*
X113495186Y-74620665D01*
X113440000Y-74787202D01*
X113429500Y-74889990D01*
X113429500Y-76240008D01*
X113440000Y-76342796D01*
X113495186Y-76509334D01*
X113587288Y-76658657D01*
X113711342Y-76782711D01*
X113745089Y-76803526D01*
X113860666Y-76874814D01*
X113972016Y-76911712D01*
X114027202Y-76929999D01*
X114037703Y-76931071D01*
X114129991Y-76940500D01*
X115030008Y-76940499D01*
X115132797Y-76929999D01*
X115299334Y-76874814D01*
X115448656Y-76782712D01*
X115572712Y-76658656D01*
X115664814Y-76509334D01*
X115719999Y-76342797D01*
X115730500Y-76240009D01*
X115730499Y-74889992D01*
X115719999Y-74787203D01*
X115664814Y-74620666D01*
X115598961Y-74513900D01*
X115580500Y-74448804D01*
X115580500Y-74032285D01*
X115586239Y-73994998D01*
X115602925Y-73961162D01*
X115641101Y-73906640D01*
X115641102Y-73906639D01*
X115733575Y-73708330D01*
X115790207Y-73496977D01*
X115809277Y-73279000D01*
X115790207Y-73061023D01*
X115733575Y-72849670D01*
X115641102Y-72651362D01*
X115515598Y-72472123D01*
X115360877Y-72317402D01*
X115181639Y-72191898D01*
X115090205Y-72149261D01*
X114983331Y-72099425D01*
X114771974Y-72042792D01*
X114553999Y-72023722D01*
X114336025Y-72042792D01*
X114124668Y-72099425D01*
X113926361Y-72191898D01*
X113747122Y-72317402D01*
X113592402Y-72472122D01*
X113466898Y-72651361D01*
X113374425Y-72849668D01*
X113317792Y-73061025D01*
X113298722Y-73278999D01*
X106852369Y-73278999D01*
X111399548Y-68731819D01*
X111439776Y-68704939D01*
X111487229Y-68695500D01*
X122827770Y-68695500D01*
X122875223Y-68704939D01*
X122915451Y-68731819D01*
X130124781Y-75941148D01*
X130151661Y-75981376D01*
X130161100Y-76028829D01*
X130161100Y-85489770D01*
X130151661Y-85537223D01*
X130124781Y-85577451D01*
X127944051Y-87758181D01*
X127903823Y-87785061D01*
X127856370Y-87794500D01*
X127724798Y-87794500D01*
X127664366Y-87778777D01*
X127619259Y-87735596D01*
X127582711Y-87676342D01*
X127458657Y-87552288D01*
X127309334Y-87460186D01*
X127142797Y-87405000D01*
X127040009Y-87394500D01*
X125689991Y-87394500D01*
X125587203Y-87405000D01*
X125420665Y-87460186D01*
X125271342Y-87552288D01*
X125147288Y-87676342D01*
X125055186Y-87825665D01*
X125000000Y-87992202D01*
X124989500Y-88094990D01*
X124989500Y-88995008D01*
X125000000Y-89097796D01*
X125055186Y-89264334D01*
X125147288Y-89413657D01*
X125271342Y-89537711D01*
X125271344Y-89537712D01*
X125420666Y-89629814D01*
X125511577Y-89659939D01*
X125587202Y-89684999D01*
X125597702Y-89686071D01*
X125689991Y-89695500D01*
X127040008Y-89695499D01*
X127142797Y-89684999D01*
X127309334Y-89629814D01*
X127458656Y-89537712D01*
X127582712Y-89413656D01*
X127619258Y-89354404D01*
X127664366Y-89311223D01*
X127724798Y-89295500D01*
X128154894Y-89295500D01*
X128172864Y-89296809D01*
X128176920Y-89297402D01*
X128196623Y-89300289D01*
X128245968Y-89295972D01*
X128256776Y-89295500D01*
X128262306Y-89295500D01*
X128262309Y-89295500D01*
X128293150Y-89291894D01*
X128296631Y-89291539D01*
X128371397Y-89284999D01*
X128371397Y-89284998D01*
X128372652Y-89284889D01*
X128391662Y-89280674D01*
X128392850Y-89280241D01*
X128392855Y-89280241D01*
X128463420Y-89254557D01*
X128466695Y-89253419D01*
X128537934Y-89229814D01*
X128537936Y-89229812D01*
X128539136Y-89229415D01*
X128556663Y-89220929D01*
X128557712Y-89220238D01*
X128557717Y-89220237D01*
X128620406Y-89179005D01*
X128623398Y-89177099D01*
X128687256Y-89137712D01*
X128687256Y-89137711D01*
X128688329Y-89137050D01*
X128703424Y-89124753D01*
X128704292Y-89123832D01*
X128704296Y-89123830D01*
X128755785Y-89069253D01*
X128758231Y-89066735D01*
X131397238Y-86427727D01*
X131410856Y-86415957D01*
X131430130Y-86401610D01*
X131461982Y-86363649D01*
X131469268Y-86355697D01*
X131473190Y-86351777D01*
X131492463Y-86327399D01*
X131494630Y-86324739D01*
X131542902Y-86267214D01*
X131542903Y-86267210D01*
X131543718Y-86266240D01*
X131554173Y-86249827D01*
X131554706Y-86248682D01*
X131554711Y-86248677D01*
X131586433Y-86180646D01*
X131587962Y-86177488D01*
X131621640Y-86110433D01*
X131621640Y-86110432D01*
X131622212Y-86109294D01*
X131628600Y-86090914D01*
X131628855Y-86089675D01*
X131628857Y-86089673D01*
X131644033Y-86016168D01*
X131644794Y-86012734D01*
X131662100Y-85939721D01*
X131662100Y-85939718D01*
X131662390Y-85938494D01*
X131664369Y-85919123D01*
X131664332Y-85917859D01*
X131664333Y-85917856D01*
X131662152Y-85842889D01*
X131662100Y-85839284D01*
X131662100Y-77951475D01*
X132366214Y-77951475D01*
X132366214Y-92688186D01*
X143335786Y-92688186D01*
X143335786Y-77951475D01*
X132366214Y-77951475D01*
X131662100Y-77951475D01*
X131662100Y-75730306D01*
X131663409Y-75712336D01*
X131663938Y-75708718D01*
X131666889Y-75688577D01*
X131662571Y-75639233D01*
X131662100Y-75628427D01*
X131662100Y-75622891D01*
X131658497Y-75592071D01*
X131658134Y-75588515D01*
X131651488Y-75512542D01*
X131647274Y-75493535D01*
X131646841Y-75492345D01*
X131621171Y-75421817D01*
X131620024Y-75418517D01*
X131596414Y-75347265D01*
X131596412Y-75347262D01*
X131596015Y-75346063D01*
X131587529Y-75328536D01*
X131586837Y-75327484D01*
X131586837Y-75327483D01*
X131545594Y-75264776D01*
X131543699Y-75261801D01*
X131514120Y-75213847D01*
X131503647Y-75196867D01*
X131491348Y-75181770D01*
X131435872Y-75129431D01*
X131433285Y-75126918D01*
X123765728Y-67459360D01*
X123753946Y-67445727D01*
X123739609Y-67426469D01*
X123701666Y-67394631D01*
X123693691Y-67387323D01*
X123689782Y-67383414D01*
X123689781Y-67383413D01*
X123689777Y-67383409D01*
X123665423Y-67364152D01*
X123662647Y-67361890D01*
X123604251Y-67312890D01*
X123587821Y-67302422D01*
X123518691Y-67270186D01*
X123515447Y-67268615D01*
X123447306Y-67234394D01*
X123428903Y-67227997D01*
X123354211Y-67212574D01*
X123350692Y-67211794D01*
X123276490Y-67194208D01*
X123257121Y-67192229D01*
X123180869Y-67194448D01*
X123177263Y-67194500D01*
X111188706Y-67194500D01*
X111170736Y-67193191D01*
X111156853Y-67191157D01*
X111146977Y-67189711D01*
X111146976Y-67189711D01*
X111097634Y-67194028D01*
X111086827Y-67194500D01*
X111081291Y-67194500D01*
X111050483Y-67198100D01*
X111046900Y-67198466D01*
X110970950Y-67205111D01*
X110951922Y-67209329D01*
X110880270Y-67235407D01*
X110876869Y-67236589D01*
X110804480Y-67260578D01*
X110786927Y-67269076D01*
X110723236Y-67310965D01*
X110720198Y-67312901D01*
X110655277Y-67352947D01*
X110640163Y-67365258D01*
X110587831Y-67420726D01*
X110585319Y-67423312D01*
X104934358Y-73074272D01*
X104920727Y-73086053D01*
X104901467Y-73100392D01*
X104869633Y-73138329D01*
X104862341Y-73146289D01*
X104858408Y-73150222D01*
X104839176Y-73174545D01*
X104836902Y-73177337D01*
X104787894Y-73235744D01*
X104777418Y-73252187D01*
X104745192Y-73321294D01*
X104743622Y-73324536D01*
X104709393Y-73392692D01*
X104702996Y-73411098D01*
X104687573Y-73485788D01*
X104686793Y-73489305D01*
X104669208Y-73563505D01*
X104667229Y-73582878D01*
X104669448Y-73659131D01*
X104669500Y-73662737D01*
X104669500Y-76221284D01*
X104650688Y-76286946D01*
X104599960Y-76332684D01*
X104532709Y-76344622D01*
X104469338Y-76319138D01*
X104435112Y-76292499D01*
X104328509Y-76209526D01*
X104109810Y-76091172D01*
X104109806Y-76091170D01*
X104109805Y-76091170D01*
X103874615Y-76010429D01*
X103629335Y-75969500D01*
X103380665Y-75969500D01*
X103135384Y-76010429D01*
X102900194Y-76091170D01*
X102681485Y-76209529D01*
X102485259Y-76362259D01*
X102316837Y-76545214D01*
X102180825Y-76753395D01*
X102125965Y-76878465D01*
X102080937Y-76981119D01*
X102059442Y-77066002D01*
X102019891Y-77222183D01*
X101999356Y-77470000D01*
X102019891Y-77717815D01*
X102019891Y-77717817D01*
X102019892Y-77717821D01*
X102080937Y-77958881D01*
X102080938Y-77958884D01*
X102080939Y-77958886D01*
X102118678Y-78044924D01*
X102129069Y-78091122D01*
X102129447Y-78104096D01*
X102129500Y-78107707D01*
X102129500Y-80907771D01*
X102120061Y-80955224D01*
X102093183Y-80995449D01*
X101684482Y-81404149D01*
X101622359Y-81466272D01*
X101608728Y-81478051D01*
X101589469Y-81492389D01*
X101557633Y-81530329D01*
X101550341Y-81538289D01*
X101546408Y-81542222D01*
X101527176Y-81566545D01*
X101524902Y-81569337D01*
X101475894Y-81627744D01*
X101465418Y-81644187D01*
X101433192Y-81713294D01*
X101431622Y-81716536D01*
X101397393Y-81784692D01*
X101390996Y-81803098D01*
X101375573Y-81877788D01*
X101374793Y-81881305D01*
X101357208Y-81955505D01*
X101355229Y-81974878D01*
X101357448Y-82051131D01*
X101357500Y-82054737D01*
X101357500Y-82514741D01*
X101348854Y-82560231D01*
X101317969Y-82638547D01*
X101307500Y-82725728D01*
X101307500Y-84696672D01*
X101317969Y-84783852D01*
X101377973Y-84936010D01*
X101385856Y-84995233D01*
X101365129Y-85051268D01*
X101320605Y-85091107D01*
X101262619Y-85105500D01*
X98729941Y-85105500D01*
X87985741Y-85105500D01*
X87926758Y-85105500D01*
X87917344Y-85105142D01*
X87908198Y-85104445D01*
X87858524Y-85100663D01*
X87858523Y-85100663D01*
X87828349Y-85104506D01*
X87812683Y-85105500D01*
X84041782Y-85105500D01*
X83994329Y-85096061D01*
X83954101Y-85069181D01*
X83384342Y-84499422D01*
X83355598Y-84454418D01*
X83348447Y-84401499D01*
X83350643Y-84374998D01*
X83340835Y-84256630D01*
X83330108Y-84127179D01*
X83269063Y-83886119D01*
X83169173Y-83658393D01*
X83033164Y-83450215D01*
X82864744Y-83267262D01*
X82848437Y-83254570D01*
X82781992Y-83202853D01*
X82767493Y-83184999D01*
X84219356Y-83184999D01*
X84239891Y-83432816D01*
X84239891Y-83432819D01*
X84239892Y-83432821D01*
X84300937Y-83673881D01*
X84302916Y-83678392D01*
X84400825Y-83901604D01*
X84400827Y-83901607D01*
X84536836Y-84109785D01*
X84705256Y-84292738D01*
X84745577Y-84324121D01*
X84901485Y-84445470D01*
X84901487Y-84445471D01*
X84901491Y-84445474D01*
X85120190Y-84563828D01*
X85355386Y-84644571D01*
X85600665Y-84685500D01*
X85849335Y-84685500D01*
X86094614Y-84644571D01*
X86329810Y-84563828D01*
X86548509Y-84445474D01*
X86744744Y-84292738D01*
X86913164Y-84109785D01*
X87049173Y-83901607D01*
X87149063Y-83673881D01*
X87210108Y-83432821D01*
X87230643Y-83185000D01*
X87210108Y-82937179D01*
X87191856Y-82865105D01*
X87192510Y-82801750D01*
X87224378Y-82746988D01*
X91672048Y-78299319D01*
X91712276Y-78272439D01*
X91759729Y-78263000D01*
X92203337Y-78263000D01*
X92260594Y-78277011D01*
X92304912Y-78315877D01*
X92329953Y-78351640D01*
X92490859Y-78512546D01*
X92677264Y-78643067D01*
X92677265Y-78643067D01*
X92677266Y-78643068D01*
X92883504Y-78739239D01*
X93103308Y-78798135D01*
X93230273Y-78809243D01*
X93329999Y-78817968D01*
X93329999Y-78817967D01*
X93330000Y-78817968D01*
X93556692Y-78798135D01*
X93776496Y-78739239D01*
X93982734Y-78643068D01*
X94169139Y-78512547D01*
X94330047Y-78351639D01*
X94460568Y-78165234D01*
X94487618Y-78107224D01*
X94533375Y-78055049D01*
X94600000Y-78035629D01*
X94666625Y-78055049D01*
X94712382Y-78107225D01*
X94739431Y-78165233D01*
X94869953Y-78351640D01*
X95030859Y-78512546D01*
X95066623Y-78537588D01*
X95105489Y-78581906D01*
X95119500Y-78639163D01*
X95119500Y-79662770D01*
X95110061Y-79710223D01*
X95083181Y-79750451D01*
X93784247Y-81049383D01*
X93734397Y-81079790D01*
X93676157Y-81084011D01*
X93469335Y-81049500D01*
X93220665Y-81049500D01*
X92975384Y-81090429D01*
X92740194Y-81171170D01*
X92521485Y-81289529D01*
X92325259Y-81442259D01*
X92325256Y-81442261D01*
X92325256Y-81442262D01*
X92221934Y-81554500D01*
X92156837Y-81625214D01*
X92020825Y-81833395D01*
X91954035Y-81985663D01*
X91920937Y-82061119D01*
X91870519Y-82260214D01*
X91859891Y-82302183D01*
X91839356Y-82550000D01*
X91859891Y-82797816D01*
X91859891Y-82797819D01*
X91859892Y-82797821D01*
X91920937Y-83038881D01*
X91945761Y-83095474D01*
X92020825Y-83266604D01*
X92020827Y-83266607D01*
X92156836Y-83474785D01*
X92325256Y-83657738D01*
X92345997Y-83673881D01*
X92521485Y-83810470D01*
X92521487Y-83810471D01*
X92521491Y-83810474D01*
X92740190Y-83928828D01*
X92975386Y-84009571D01*
X93220665Y-84050500D01*
X93469335Y-84050500D01*
X93714614Y-84009571D01*
X93949810Y-83928828D01*
X94168509Y-83810474D01*
X94364744Y-83657738D01*
X94533164Y-83474785D01*
X94669173Y-83266607D01*
X94769063Y-83038881D01*
X94830108Y-82797821D01*
X94850643Y-82550000D01*
X94830108Y-82302179D01*
X94811856Y-82230105D01*
X94812510Y-82166749D01*
X94844378Y-82111987D01*
X96355638Y-80600727D01*
X96369256Y-80588957D01*
X96388530Y-80574610D01*
X96420382Y-80536649D01*
X96427668Y-80528697D01*
X96431590Y-80524777D01*
X96450863Y-80500399D01*
X96453030Y-80497739D01*
X96501302Y-80440214D01*
X96501303Y-80440210D01*
X96502119Y-80439239D01*
X96512575Y-80422825D01*
X96513109Y-80421679D01*
X96513111Y-80421677D01*
X96544816Y-80353682D01*
X96546369Y-80350475D01*
X96580040Y-80283433D01*
X96580040Y-80283429D01*
X96580610Y-80282296D01*
X96586999Y-80263917D01*
X96587256Y-80262673D01*
X96602431Y-80189171D01*
X96603186Y-80185767D01*
X96620500Y-80112721D01*
X96620500Y-80112719D01*
X96620790Y-80111495D01*
X96622769Y-80092123D01*
X96622732Y-80090859D01*
X96622733Y-80090856D01*
X96620552Y-80015889D01*
X96620500Y-80012284D01*
X96620500Y-78639163D01*
X96634511Y-78581906D01*
X96673377Y-78537588D01*
X96709140Y-78512546D01*
X96870046Y-78351640D01*
X96891609Y-78320845D01*
X97000568Y-78165234D01*
X97027618Y-78107224D01*
X97073375Y-78055049D01*
X97140000Y-78035629D01*
X97206625Y-78055049D01*
X97252382Y-78107225D01*
X97279431Y-78165233D01*
X97409953Y-78351640D01*
X97570859Y-78512546D01*
X97757264Y-78643067D01*
X97757265Y-78643067D01*
X97757266Y-78643068D01*
X97963504Y-78739239D01*
X98183308Y-78798135D01*
X98310273Y-78809243D01*
X98409999Y-78817968D01*
X98409999Y-78817967D01*
X98410000Y-78817968D01*
X98636692Y-78798135D01*
X98856496Y-78739239D01*
X99062734Y-78643068D01*
X99249139Y-78512547D01*
X99410047Y-78351639D01*
X99540568Y-78165234D01*
X99636739Y-77958996D01*
X99695635Y-77739192D01*
X99715468Y-77512500D01*
X99695635Y-77285808D01*
X99636739Y-77066004D01*
X99540568Y-76859766D01*
X99524811Y-76837263D01*
X99410046Y-76673359D01*
X99249140Y-76512453D01*
X99062735Y-76381932D01*
X98856497Y-76285761D01*
X98636689Y-76226864D01*
X98409999Y-76207031D01*
X98183310Y-76226864D01*
X97963502Y-76285761D01*
X97757264Y-76381932D01*
X97570859Y-76512453D01*
X97409953Y-76673359D01*
X97279433Y-76859763D01*
X97252382Y-76917775D01*
X97206625Y-76969950D01*
X97140000Y-76989369D01*
X97073375Y-76969950D01*
X97027618Y-76917775D01*
X97009756Y-76879470D01*
X97000568Y-76859766D01*
X96997645Y-76855591D01*
X96870046Y-76673359D01*
X96709140Y-76512453D01*
X96522735Y-76381932D01*
X96316497Y-76285761D01*
X96096689Y-76226864D01*
X95869999Y-76207031D01*
X95643310Y-76226864D01*
X95423502Y-76285761D01*
X95217264Y-76381932D01*
X95030859Y-76512453D01*
X94869953Y-76673359D01*
X94739433Y-76859763D01*
X94712382Y-76917775D01*
X94666625Y-76969950D01*
X94600000Y-76989369D01*
X94533375Y-76969950D01*
X94487618Y-76917775D01*
X94469756Y-76879470D01*
X94460568Y-76859766D01*
X94457645Y-76855591D01*
X94330046Y-76673359D01*
X94169140Y-76512453D01*
X93982735Y-76381932D01*
X93776497Y-76285761D01*
X93556689Y-76226864D01*
X93329999Y-76207031D01*
X93103310Y-76226864D01*
X92883502Y-76285761D01*
X92677264Y-76381932D01*
X92490859Y-76512453D01*
X92329953Y-76673359D01*
X92304912Y-76709123D01*
X92260594Y-76747989D01*
X92203337Y-76762000D01*
X91461206Y-76762000D01*
X91443236Y-76760691D01*
X91429353Y-76758657D01*
X91419477Y-76757211D01*
X91419476Y-76757211D01*
X91370134Y-76761528D01*
X91359327Y-76762000D01*
X91353791Y-76762000D01*
X91322983Y-76765600D01*
X91319400Y-76765966D01*
X91243450Y-76772611D01*
X91224422Y-76776829D01*
X91152770Y-76802907D01*
X91149369Y-76804089D01*
X91076980Y-76828078D01*
X91059427Y-76836576D01*
X90995736Y-76878465D01*
X90992698Y-76880401D01*
X90927777Y-76920447D01*
X90912663Y-76932758D01*
X90860331Y-76988226D01*
X90857819Y-76990812D01*
X86164247Y-81684383D01*
X86114397Y-81714790D01*
X86056157Y-81719011D01*
X85849335Y-81684500D01*
X85600665Y-81684500D01*
X85355384Y-81725429D01*
X85120194Y-81806170D01*
X85120190Y-81806171D01*
X85120190Y-81806172D01*
X85069890Y-81833393D01*
X84901485Y-81924529D01*
X84705259Y-82077259D01*
X84705256Y-82077261D01*
X84705256Y-82077262D01*
X84558972Y-82236169D01*
X84536837Y-82260214D01*
X84400825Y-82468395D01*
X84326190Y-82638547D01*
X84300937Y-82696119D01*
X84255765Y-82874500D01*
X84239891Y-82937183D01*
X84219356Y-83184999D01*
X82767493Y-83184999D01*
X82746754Y-83159460D01*
X82734154Y-83105000D01*
X82746754Y-83050540D01*
X82781992Y-83007147D01*
X82816739Y-82980102D01*
X82864744Y-82942738D01*
X83033164Y-82759785D01*
X83169173Y-82551607D01*
X83269063Y-82323881D01*
X83330108Y-82082821D01*
X83350643Y-81835000D01*
X83348446Y-81808500D01*
X83355598Y-81755581D01*
X83384340Y-81710579D01*
X89597409Y-75497510D01*
X89599579Y-75495394D01*
X89663053Y-75435059D01*
X89696765Y-75386622D01*
X89702408Y-75379138D01*
X89739698Y-75333407D01*
X89753786Y-75306435D01*
X89761911Y-75293024D01*
X89779295Y-75268049D01*
X89802568Y-75213815D01*
X89806598Y-75205331D01*
X89811020Y-75196867D01*
X89833909Y-75153049D01*
X89842278Y-75123797D01*
X89847534Y-75109032D01*
X89859540Y-75081058D01*
X89871418Y-75023256D01*
X89873651Y-75014156D01*
X89889887Y-74957418D01*
X89892197Y-74927077D01*
X89894376Y-74911535D01*
X89900500Y-74881741D01*
X89900500Y-74822757D01*
X89900858Y-74813343D01*
X89902848Y-74787203D01*
X89905337Y-74754523D01*
X89901493Y-74724347D01*
X89900500Y-74708682D01*
X89900500Y-69892500D01*
X92024531Y-69892500D01*
X92044364Y-70119189D01*
X92103261Y-70338997D01*
X92199432Y-70545235D01*
X92329953Y-70731640D01*
X92490859Y-70892546D01*
X92677264Y-71023067D01*
X92677265Y-71023067D01*
X92677266Y-71023068D01*
X92883504Y-71119239D01*
X93103308Y-71178135D01*
X93254436Y-71191357D01*
X93329999Y-71197968D01*
X93329999Y-71197967D01*
X93330000Y-71197968D01*
X93556692Y-71178135D01*
X93776496Y-71119239D01*
X93982734Y-71023068D01*
X94136466Y-70915424D01*
X94170301Y-70898739D01*
X94207588Y-70893000D01*
X94992412Y-70893000D01*
X95029699Y-70898739D01*
X95063533Y-70915424D01*
X95217266Y-71023068D01*
X95423504Y-71119239D01*
X95643308Y-71178135D01*
X95794436Y-71191357D01*
X95869999Y-71197968D01*
X95869999Y-71197967D01*
X95870000Y-71197968D01*
X96096692Y-71178135D01*
X96316496Y-71119239D01*
X96522734Y-71023068D01*
X96676466Y-70915424D01*
X96710301Y-70898739D01*
X96747588Y-70893000D01*
X97072820Y-70893000D01*
X97128324Y-70906116D01*
X97172085Y-70942687D01*
X97191548Y-70968686D01*
X97251168Y-71048329D01*
X97252454Y-71050046D01*
X97367669Y-71136296D01*
X97502517Y-71186591D01*
X97562127Y-71193000D01*
X99257872Y-71192999D01*
X99317483Y-71186591D01*
X99452331Y-71136296D01*
X99567546Y-71050046D01*
X99653796Y-70934831D01*
X99704091Y-70799983D01*
X99710500Y-70740373D01*
X99710499Y-69044628D01*
X99704091Y-68985017D01*
X99653796Y-68850169D01*
X99567546Y-68734954D01*
X99452331Y-68648704D01*
X99317483Y-68598409D01*
X99257873Y-68592000D01*
X99257869Y-68592000D01*
X97562130Y-68592000D01*
X97502515Y-68598409D01*
X97367669Y-68648704D01*
X97252453Y-68734954D01*
X97172087Y-68842311D01*
X97128324Y-68878884D01*
X97072820Y-68892000D01*
X96747588Y-68892000D01*
X96710301Y-68886261D01*
X96676465Y-68869575D01*
X96648750Y-68850169D01*
X96522734Y-68761932D01*
X96458157Y-68731819D01*
X96316497Y-68665761D01*
X96096689Y-68606864D01*
X95870000Y-68587031D01*
X95643310Y-68606864D01*
X95423502Y-68665761D01*
X95217265Y-68761932D01*
X95114595Y-68833822D01*
X95091250Y-68850169D01*
X95063535Y-68869575D01*
X95029699Y-68886261D01*
X94992412Y-68892000D01*
X94207588Y-68892000D01*
X94170301Y-68886261D01*
X94136465Y-68869575D01*
X94108750Y-68850169D01*
X93982734Y-68761932D01*
X93918157Y-68731819D01*
X93776497Y-68665761D01*
X93556689Y-68606864D01*
X93330000Y-68587031D01*
X93103310Y-68606864D01*
X92883502Y-68665761D01*
X92677264Y-68761932D01*
X92490859Y-68892453D01*
X92329953Y-69053359D01*
X92199432Y-69239764D01*
X92103261Y-69446002D01*
X92044364Y-69665810D01*
X92024531Y-69892500D01*
X89900500Y-69892500D01*
X89900500Y-61240198D01*
X89909939Y-61192745D01*
X89936819Y-61152517D01*
X95442517Y-55646819D01*
X95482745Y-55619939D01*
X95530198Y-55610500D01*
X134095501Y-55610500D01*
X134157501Y-55627113D01*
X134202888Y-55672500D01*
X134219501Y-55734500D01*
X134219501Y-57832872D01*
X134225909Y-57892483D01*
X134276204Y-58027331D01*
X134362454Y-58142546D01*
X134477669Y-58228796D01*
X134612517Y-58279091D01*
X134672127Y-58285500D01*
X142107872Y-58285499D01*
X142167483Y-58279091D01*
X142302331Y-58228796D01*
X142417546Y-58142546D01*
X142503796Y-58027331D01*
X142554091Y-57892483D01*
X142560500Y-57832873D01*
X142560499Y-51387128D01*
X142554091Y-51327517D01*
X142503796Y-51192669D01*
X142417546Y-51077454D01*
X142302331Y-50991204D01*
X142167483Y-50940909D01*
X142107873Y-50934500D01*
X142107869Y-50934500D01*
X134672130Y-50934500D01*
X134612515Y-50940909D01*
X134477669Y-50991204D01*
X134362454Y-51077454D01*
X134276204Y-51192668D01*
X134225909Y-51327516D01*
X134219500Y-51387131D01*
X134219500Y-53485500D01*
X134202887Y-53547500D01*
X134157500Y-53592887D01*
X134095500Y-53609500D01*
X95078654Y-53609500D01*
X95075512Y-53609460D01*
X94988050Y-53607243D01*
X94930004Y-53617646D01*
X94920679Y-53618954D01*
X94861977Y-53624925D01*
X94832943Y-53634034D01*
X94817703Y-53637775D01*
X94787760Y-53643142D01*
X94732983Y-53665021D01*
X94724113Y-53668179D01*
X94667825Y-53685841D01*
X94641224Y-53700605D01*
X94627054Y-53707335D01*
X94598800Y-53718622D01*
X94549536Y-53751087D01*
X94541485Y-53755964D01*
X94489913Y-53784590D01*
X94466829Y-53804407D01*
X94454302Y-53813853D01*
X94428896Y-53830598D01*
X94387190Y-53872303D01*
X94380283Y-53878704D01*
X94335518Y-53917135D01*
X94316895Y-53941193D01*
X94306523Y-53952969D01*
X88202646Y-60056847D01*
X88200399Y-60059038D01*
X88136948Y-60119354D01*
X88103244Y-60167777D01*
X88097573Y-60175297D01*
X88060301Y-60221008D01*
X88046210Y-60247981D01*
X88038082Y-60261398D01*
X88020705Y-60286365D01*
X87997439Y-60340580D01*
X87993399Y-60349086D01*
X87966090Y-60401367D01*
X87957720Y-60430616D01*
X87952459Y-60445393D01*
X87940460Y-60473357D01*
X87928587Y-60531128D01*
X87926342Y-60540275D01*
X87910113Y-60596995D01*
X87907802Y-60627340D01*
X87905622Y-60642881D01*
X87899500Y-60672674D01*
X87899500Y-60731657D01*
X87899142Y-60741071D01*
X87894663Y-60799892D01*
X87898506Y-60830066D01*
X87899500Y-60845732D01*
X87899500Y-74314218D01*
X87890061Y-74361671D01*
X87863181Y-74401899D01*
X81966899Y-80298181D01*
X81926671Y-80325061D01*
X81879218Y-80334500D01*
X81720665Y-80334500D01*
X81475384Y-80375429D01*
X81240194Y-80456170D01*
X81021485Y-80574529D01*
X80825259Y-80727259D01*
X80825256Y-80727261D01*
X80825256Y-80727262D01*
X80777748Y-80778870D01*
X80656837Y-80910214D01*
X80520825Y-81118395D01*
X80472222Y-81229200D01*
X80420937Y-81346119D01*
X80365509Y-81565000D01*
X80359891Y-81587183D01*
X80339356Y-81835000D01*
X80359891Y-82082816D01*
X80359891Y-82082819D01*
X80359892Y-82082821D01*
X80420937Y-82323881D01*
X80458175Y-82408774D01*
X80520825Y-82551604D01*
X80520827Y-82551607D01*
X80656836Y-82759785D01*
X80762439Y-82874500D01*
X80825256Y-82942738D01*
X80908008Y-83007147D01*
X80943246Y-83050540D01*
X80955845Y-83105000D01*
X80943246Y-83159460D01*
X80908008Y-83202853D01*
X80825256Y-83267261D01*
X80656837Y-83450214D01*
X80520825Y-83658395D01*
X80454118Y-83810474D01*
X80420937Y-83886119D01*
X80397984Y-83976758D01*
X80359891Y-84127183D01*
X80339356Y-84374999D01*
X80359891Y-84622816D01*
X80359891Y-84622819D01*
X80359892Y-84622821D01*
X80420937Y-84863881D01*
X80446687Y-84922584D01*
X80520825Y-85091604D01*
X80520827Y-85091607D01*
X80656836Y-85299785D01*
X80737624Y-85387544D01*
X80775678Y-85428882D01*
X80806403Y-85490436D01*
X80799589Y-85558894D01*
X80757333Y-85613183D01*
X80692643Y-85636594D01*
X80625430Y-85621919D01*
X80614810Y-85616172D01*
X80379615Y-85535429D01*
X80134335Y-85494500D01*
X79885665Y-85494500D01*
X79640384Y-85535429D01*
X79405194Y-85616170D01*
X79405190Y-85616171D01*
X79405190Y-85616172D01*
X79336973Y-85653089D01*
X79186485Y-85734529D01*
X78990259Y-85887259D01*
X78990256Y-85887261D01*
X78990256Y-85887262D01*
X78970143Y-85909111D01*
X78821833Y-86070218D01*
X78744672Y-86188322D01*
X78699881Y-86229555D01*
X78640864Y-86244500D01*
X74612706Y-86244500D01*
X74594736Y-86243191D01*
X74580853Y-86241157D01*
X74570977Y-86239711D01*
X74570976Y-86239711D01*
X74521634Y-86244028D01*
X74510827Y-86244500D01*
X74505291Y-86244500D01*
X74474483Y-86248100D01*
X74470900Y-86248466D01*
X74394950Y-86255111D01*
X74375926Y-86259328D01*
X74304251Y-86285415D01*
X74300849Y-86286597D01*
X74228470Y-86310582D01*
X74210929Y-86319074D01*
X74147197Y-86360991D01*
X74144156Y-86362928D01*
X74079280Y-86402943D01*
X74064164Y-86415257D01*
X74011831Y-86470726D01*
X74009319Y-86473312D01*
X66316358Y-94166272D01*
X66302727Y-94178053D01*
X66283467Y-94192392D01*
X66251633Y-94230329D01*
X66244341Y-94238289D01*
X66240408Y-94242222D01*
X66221176Y-94266545D01*
X66218902Y-94269337D01*
X66169894Y-94327744D01*
X66159418Y-94344187D01*
X66127192Y-94413294D01*
X66125622Y-94416536D01*
X66091393Y-94484692D01*
X66084996Y-94503098D01*
X66069573Y-94577788D01*
X66068793Y-94581305D01*
X66051208Y-94655505D01*
X66049229Y-94674878D01*
X66051448Y-94751131D01*
X66051500Y-94754737D01*
X66051500Y-102171294D01*
X66050191Y-102189264D01*
X66046711Y-102213023D01*
X62235724Y-102213023D01*
X62240790Y-102203954D01*
X62320211Y-101979171D01*
X62323421Y-101960451D01*
X62360500Y-101744203D01*
X62360500Y-101490783D01*
X62369939Y-101443330D01*
X62396819Y-101403102D01*
X62827718Y-100972203D01*
X64197409Y-99602510D01*
X64199579Y-99600394D01*
X64263053Y-99540059D01*
X64296763Y-99491624D01*
X64302405Y-99484141D01*
X64339697Y-99438408D01*
X64353786Y-99411433D01*
X64361908Y-99398027D01*
X64379295Y-99373049D01*
X64402568Y-99318815D01*
X64406590Y-99310346D01*
X64433909Y-99258049D01*
X64433982Y-99257796D01*
X64442275Y-99228808D01*
X64447539Y-99214019D01*
X64459540Y-99186058D01*
X64471417Y-99128256D01*
X64473652Y-99119148D01*
X64489886Y-99062418D01*
X64492196Y-99032078D01*
X64494376Y-99016540D01*
X64500500Y-98986742D01*
X64500500Y-98927756D01*
X64500858Y-98918341D01*
X64501445Y-98910634D01*
X64505337Y-98859524D01*
X64501494Y-98829348D01*
X64500500Y-98813683D01*
X64500500Y-88908583D01*
X64509939Y-88861130D01*
X64536819Y-88820902D01*
X66146619Y-87211102D01*
X74357389Y-79000329D01*
X74359559Y-78998213D01*
X74423053Y-78937859D01*
X74456759Y-78889430D01*
X74462428Y-78881913D01*
X74499698Y-78836207D01*
X74513783Y-78809239D01*
X74521918Y-78795815D01*
X74528373Y-78786540D01*
X74539295Y-78770849D01*
X74562568Y-78716615D01*
X74566598Y-78708131D01*
X74593908Y-78655851D01*
X74593909Y-78655849D01*
X74602278Y-78626597D01*
X74607534Y-78611832D01*
X74619540Y-78583858D01*
X74631418Y-78526056D01*
X74633651Y-78516956D01*
X74649887Y-78460218D01*
X74652197Y-78429877D01*
X74654376Y-78414335D01*
X74660500Y-78384541D01*
X74660500Y-78325558D01*
X74660858Y-78316144D01*
X74662230Y-78298121D01*
X74665337Y-78257324D01*
X74661493Y-78227148D01*
X74660500Y-78211483D01*
X74660500Y-76742027D01*
X74668983Y-76696952D01*
X74693268Y-76658046D01*
X74848164Y-76489785D01*
X74984173Y-76281607D01*
X75084063Y-76053881D01*
X75145108Y-75812821D01*
X75165643Y-75565000D01*
X75145108Y-75317179D01*
X75084063Y-75076119D01*
X74984173Y-74848393D01*
X74848164Y-74640215D01*
X74679744Y-74457262D01*
X74573503Y-74374571D01*
X74483514Y-74304529D01*
X74483510Y-74304526D01*
X74483509Y-74304526D01*
X74264810Y-74186172D01*
X74264806Y-74186170D01*
X74264805Y-74186170D01*
X74029615Y-74105429D01*
X73784335Y-74064500D01*
X73535665Y-74064500D01*
X73535664Y-74064500D01*
X73452702Y-74078343D01*
X73391062Y-74072978D01*
X73339688Y-74038496D01*
X73311370Y-73983483D01*
X73313161Y-73921636D01*
X73344611Y-73868355D01*
X76051148Y-71161819D01*
X76091377Y-71134939D01*
X76138830Y-71125500D01*
X80475864Y-71125500D01*
X80534881Y-71140445D01*
X80579672Y-71181678D01*
X80656833Y-71299781D01*
X80656836Y-71299785D01*
X80825255Y-71482737D01*
X80825256Y-71482738D01*
X80908008Y-71547147D01*
X80943246Y-71590540D01*
X80955845Y-71645000D01*
X80943246Y-71699460D01*
X80908008Y-71742853D01*
X80825256Y-71807261D01*
X80656837Y-71990214D01*
X80520825Y-72198395D01*
X80468623Y-72317405D01*
X80420937Y-72426119D01*
X80363898Y-72651361D01*
X80359891Y-72667183D01*
X80339356Y-72915000D01*
X80359891Y-73162816D01*
X80359891Y-73162819D01*
X80359892Y-73162821D01*
X80420937Y-73403881D01*
X80461771Y-73496974D01*
X80520825Y-73631604D01*
X80520827Y-73631607D01*
X80656836Y-73839785D01*
X80825256Y-74022738D01*
X80825259Y-74022740D01*
X81021485Y-74175470D01*
X81021487Y-74175471D01*
X81021491Y-74175474D01*
X81240190Y-74293828D01*
X81475386Y-74374571D01*
X81720665Y-74415500D01*
X81969335Y-74415500D01*
X82214614Y-74374571D01*
X82449810Y-74293828D01*
X82668509Y-74175474D01*
X82864744Y-74022738D01*
X82926624Y-73955517D01*
X82968045Y-73925944D01*
X83017855Y-73915500D01*
X83244934Y-73915500D01*
X83248075Y-73915539D01*
X83335576Y-73917757D01*
X83393645Y-73907348D01*
X83402949Y-73906043D01*
X83461651Y-73900074D01*
X83490680Y-73890965D01*
X83505913Y-73887226D01*
X83535866Y-73881858D01*
X83590639Y-73859978D01*
X83599514Y-73856819D01*
X83616888Y-73851367D01*
X83655801Y-73839159D01*
X83682407Y-73824390D01*
X83696575Y-73817662D01*
X83724830Y-73806377D01*
X83774092Y-73773909D01*
X83782123Y-73769043D01*
X83833715Y-73740409D01*
X83856800Y-73720589D01*
X83869327Y-73711144D01*
X83894732Y-73694402D01*
X83936464Y-73652668D01*
X83943336Y-73646300D01*
X83988108Y-73607866D01*
X84006732Y-73583803D01*
X84017093Y-73572039D01*
X86422409Y-71166723D01*
X86424579Y-71164607D01*
X86488053Y-71104272D01*
X86521763Y-71055837D01*
X86527405Y-71048354D01*
X86564697Y-71002621D01*
X86578786Y-70975646D01*
X86586908Y-70962240D01*
X86604295Y-70937262D01*
X86627568Y-70883028D01*
X86631590Y-70874559D01*
X86658909Y-70822262D01*
X86667275Y-70793021D01*
X86672539Y-70778232D01*
X86684540Y-70750271D01*
X86696417Y-70692469D01*
X86698652Y-70683361D01*
X86714886Y-70626631D01*
X86717196Y-70596291D01*
X86719376Y-70580753D01*
X86725500Y-70550955D01*
X86725500Y-70491969D01*
X86725858Y-70482554D01*
X86726154Y-70478662D01*
X86730337Y-70423737D01*
X86726494Y-70393561D01*
X86725500Y-70377896D01*
X86725500Y-67324239D01*
X86725540Y-67321097D01*
X86727756Y-67233638D01*
X86727756Y-67233637D01*
X86717349Y-67175576D01*
X86716042Y-67166253D01*
X86710074Y-67107562D01*
X86700967Y-67078537D01*
X86697223Y-67063286D01*
X86691857Y-67033343D01*
X86669976Y-66978565D01*
X86666816Y-66969689D01*
X86664056Y-66960892D01*
X86649159Y-66913412D01*
X86634395Y-66886812D01*
X86627660Y-66872631D01*
X86616377Y-66844383D01*
X86583917Y-66795131D01*
X86579036Y-66787074D01*
X86550409Y-66735498D01*
X86530582Y-66712403D01*
X86521146Y-66699888D01*
X86504402Y-66674481D01*
X86504400Y-66674479D01*
X86504399Y-66674477D01*
X86462693Y-66632772D01*
X86456287Y-66625860D01*
X86417864Y-66581102D01*
X86393804Y-66562478D01*
X86382026Y-66552105D01*
X73742567Y-53912647D01*
X73740412Y-53910438D01*
X73680059Y-53846947D01*
X73631640Y-53813246D01*
X73624118Y-53807575D01*
X73578405Y-53770300D01*
X73551440Y-53756215D01*
X73538019Y-53748084D01*
X73513049Y-53730705D01*
X73513048Y-53730704D01*
X73513046Y-53730703D01*
X73458845Y-53707443D01*
X73450336Y-53703402D01*
X73398053Y-53676092D01*
X73392126Y-53674396D01*
X73368798Y-53667721D01*
X73354020Y-53662459D01*
X73326058Y-53650460D01*
X73268272Y-53638583D01*
X73259128Y-53636338D01*
X73202421Y-53620113D01*
X73172075Y-53617802D01*
X73156534Y-53615622D01*
X73126742Y-53609500D01*
X73126741Y-53609500D01*
X73067758Y-53609500D01*
X73058344Y-53609142D01*
X73049198Y-53608445D01*
X72999524Y-53604663D01*
X72999523Y-53604663D01*
X72969349Y-53608506D01*
X72953683Y-53609500D01*
X64024499Y-53609500D01*
X63962499Y-53592887D01*
X63917112Y-53547500D01*
X63900499Y-53485500D01*
X63900499Y-51387130D01*
X63900499Y-51387127D01*
X63894091Y-51327517D01*
X63843796Y-51192669D01*
X63757546Y-51077454D01*
X63642331Y-50991204D01*
X63507483Y-50940909D01*
X63447873Y-50934500D01*
X63447869Y-50934500D01*
X56012130Y-50934500D01*
X55952515Y-50940909D01*
X55817669Y-50991204D01*
X55702454Y-51077454D01*
X55616204Y-51192668D01*
X55565909Y-51327516D01*
X55559500Y-51387130D01*
X55559500Y-57832869D01*
X53340000Y-57832869D01*
X53340000Y-46671622D01*
X61600777Y-46671622D01*
X61630467Y-46916134D01*
X61686182Y-47108484D01*
X61698992Y-47152710D01*
X61804580Y-47375231D01*
X61809174Y-47381886D01*
X61944495Y-47577933D01*
X62115114Y-47755567D01*
X62312019Y-47903532D01*
X62384716Y-47941685D01*
X62530110Y-48017994D01*
X62763736Y-48095991D01*
X62959672Y-48127833D01*
X63006848Y-48135500D01*
X63006849Y-48135500D01*
X63191477Y-48135500D01*
X63191478Y-48135500D01*
X63375504Y-48120644D01*
X63614649Y-48061700D01*
X63841242Y-47965158D01*
X64049414Y-47833518D01*
X64233774Y-47670189D01*
X64389546Y-47479402D01*
X64512697Y-47266098D01*
X64600037Y-47035802D01*
X64649304Y-46794477D01*
X64659222Y-46548374D01*
X64657974Y-46538094D01*
X124600735Y-46538094D01*
X124610768Y-46825381D01*
X124660687Y-47108484D01*
X124749520Y-47381886D01*
X124845140Y-47577934D01*
X124875538Y-47640259D01*
X125036289Y-47878582D01*
X125228643Y-48092213D01*
X125448857Y-48276995D01*
X125692645Y-48429330D01*
X125955261Y-48546254D01*
X126231594Y-48625492D01*
X126469713Y-48658957D01*
X126516264Y-48665500D01*
X126516265Y-48665500D01*
X126731773Y-48665500D01*
X126731774Y-48665500D01*
X126946769Y-48650466D01*
X127087362Y-48620581D01*
X127227953Y-48590699D01*
X127227956Y-48590698D01*
X127498089Y-48492378D01*
X127751909Y-48357419D01*
X127984476Y-48188449D01*
X128191264Y-47988756D01*
X128368248Y-47762228D01*
X128511982Y-47513272D01*
X128619670Y-47246735D01*
X128689215Y-46967805D01*
X128719264Y-46681911D01*
X128709231Y-46394617D01*
X128659313Y-46111515D01*
X128570480Y-45838116D01*
X128444462Y-45579741D01*
X128283711Y-45341418D01*
X128091357Y-45127787D01*
X128057474Y-45099356D01*
X127871143Y-44943005D01*
X127627355Y-44790670D01*
X127364739Y-44673746D01*
X127364737Y-44673745D01*
X127364734Y-44673744D01*
X127088407Y-44594508D01*
X126803736Y-44554500D01*
X126803735Y-44554500D01*
X126588226Y-44554500D01*
X126545226Y-44557506D01*
X126373227Y-44569534D01*
X126092046Y-44629300D01*
X125821912Y-44727621D01*
X125568091Y-44862580D01*
X125457397Y-44943005D01*
X125335524Y-45031551D01*
X125335522Y-45031552D01*
X125335519Y-45031555D01*
X125128736Y-45231242D01*
X124951752Y-45457771D01*
X124808018Y-45706726D01*
X124700330Y-45973263D01*
X124630785Y-46252194D01*
X124600735Y-46538094D01*
X64657974Y-46538094D01*
X64629533Y-46303868D01*
X64561008Y-46067290D01*
X64455420Y-45844769D01*
X64315504Y-45642066D01*
X64144885Y-45464432D01*
X64136021Y-45457771D01*
X63947980Y-45316467D01*
X63809465Y-45243770D01*
X63729890Y-45202006D01*
X63598974Y-45158299D01*
X63496265Y-45124009D01*
X63253152Y-45084500D01*
X63253151Y-45084500D01*
X63068522Y-45084500D01*
X62884495Y-45099356D01*
X62884496Y-45099356D01*
X62645352Y-45158299D01*
X62418753Y-45254844D01*
X62210586Y-45386482D01*
X62026226Y-45549809D01*
X61870454Y-45740597D01*
X61747303Y-45953901D01*
X61659962Y-46184198D01*
X61610695Y-46425525D01*
X61600777Y-46671622D01*
X53340000Y-46671622D01*
X53340000Y-42032290D01*
X53356327Y-41970788D01*
X53401008Y-41925481D01*
X53462278Y-41908302D01*
X112688736Y-41085712D01*
X112690458Y-41085700D01*
X144656000Y-41085700D01*
X144718000Y-41102313D01*
G37*
%TD.AperFunction*%
%TD*%
M02*
