%TF.GenerationSoftware,KiCad,Pcbnew,7.0.1*%
%TF.CreationDate,2023-05-16T20:26:06-05:00*%
%TF.ProjectId,SeneCurrent,53656e65-4375-4727-9265-6e742e6b6963,rev?*%
%TF.SameCoordinates,Original*%
%TF.FileFunction,Copper,L2,Bot*%
%TF.FilePolarity,Positive*%
%FSLAX46Y46*%
G04 Gerber Fmt 4.6, Leading zero omitted, Abs format (unit mm)*
G04 Created by KiCad (PCBNEW 7.0.1) date 2023-05-16 20:26:06*
%MOMM*%
%LPD*%
G01*
G04 APERTURE LIST*
%TA.AperFunction,NonConductor*%
%ADD10C,0.500000*%
%TD*%
%TA.AperFunction,ComponentPad*%
%ADD11C,2.200000*%
%TD*%
%TA.AperFunction,ComponentPad*%
%ADD12C,10.160000*%
%TD*%
%TA.AperFunction,ComponentPad*%
%ADD13O,1.800000X2.200000*%
%TD*%
%TA.AperFunction,ComponentPad*%
%ADD14R,1.600000X1.600000*%
%TD*%
%TA.AperFunction,ComponentPad*%
%ADD15O,1.600000X1.600000*%
%TD*%
%TA.AperFunction,ComponentPad*%
%ADD16C,2.000000*%
%TD*%
%TA.AperFunction,ViaPad*%
%ADD17C,1.500000*%
%TD*%
%TA.AperFunction,ViaPad*%
%ADD18C,2.000000*%
%TD*%
%TA.AperFunction,ViaPad*%
%ADD19C,1.800000*%
%TD*%
%TA.AperFunction,Conductor*%
%ADD20C,1.000000*%
%TD*%
%TA.AperFunction,Conductor*%
%ADD21C,0.500000*%
%TD*%
G04 APERTURE END LIST*
D10*
X51917600Y-40335200D02*
X145745200Y-40335200D01*
X145745200Y-129641600D01*
X51917600Y-129641600D01*
X51917600Y-40335200D01*
D11*
%TO.P,Rm1,1*%
%TO.N,Net-(Rm1-Pad1)*%
X71120000Y-95250000D03*
%TO.P,Rm1,2*%
%TO.N,GND*%
X81280000Y-95250000D03*
%TD*%
D12*
%TO.P,J3,1,Pin_1*%
%TO.N,Net-(J3-Pin_1)*%
X106920000Y-120650000D03*
%TO.P,J3,2,Pin_2*%
%TO.N,GND*%
X136890000Y-120650000D03*
%TD*%
%TO.P,J2,1,Pin_1*%
%TO.N,GND*%
X91200000Y-120650000D03*
%TO.P,J2,2,Pin_2*%
%TO.N,Net-(J2-Pin_2)*%
X61230000Y-120650000D03*
%TD*%
D13*
%TO.P,SW1,1,A*%
%TO.N,VCC*%
X60960000Y-101425000D03*
%TO.P,SW1,2,B*%
%TO.N,Net-(SW1-B)*%
X60960000Y-98425000D03*
%TO.P,SW1,3,C*%
%TO.N,unconnected-(SW1-C-Pad3)*%
X60960000Y-95425000D03*
%TD*%
D14*
%TO.P,SW2,1*%
%TO.N,Net-(J2-Pin_2)*%
X98410000Y-69892500D03*
D15*
%TO.P,SW2,2*%
X95870000Y-69892500D03*
%TO.P,SW2,3*%
X93330000Y-69892500D03*
%TO.P,SW2,4*%
%TO.N,Net-(Rn1-Pad1)*%
X93330000Y-77512500D03*
%TO.P,SW2,5*%
%TO.N,Net-(Ru1-Pad1)*%
X95870000Y-77512500D03*
%TO.P,SW2,6*%
%TO.N,Net-(Rm1-Pad1)*%
X98410000Y-77512500D03*
%TD*%
D16*
%TO.P,TP1,1,B+*%
%TO.N,+BATT*%
X81845000Y-72915000D03*
%TO.P,TP1,2,B-*%
%TO.N,-BATT*%
X81845000Y-81835000D03*
%TO.P,TP1,3,OUT+*%
%TO.N,Net-(SW1-B)*%
X81845000Y-70375000D03*
%TO.P,TP1,4,OUT-*%
%TO.N,VEE*%
X81845000Y-84375000D03*
%TO.P,TP1,5*%
%TO.N,N/C*%
X58845000Y-70375000D03*
%TO.P,TP1,6*%
X58845000Y-84375000D03*
%TD*%
D14*
%TO.P,U2,1,+*%
%TO.N,Net-(U2B-+)*%
X113030000Y-101600000D03*
D15*
%TO.P,U2,2,-*%
%TO.N,Net-(U2A--)*%
X113030000Y-104140000D03*
%TO.P,U2,3,+*%
%TO.N,Net-(U2A-+)*%
X113030000Y-106680000D03*
%TO.P,U2,4,V-*%
%TO.N,VEE*%
X113030000Y-109220000D03*
%TO.P,U2,5*%
%TO.N,unconnected-(U2-Pad5)*%
X120650000Y-109220000D03*
%TO.P,U2,6*%
%TO.N,Net-(R2B1-Pad1)*%
X120650000Y-106680000D03*
%TO.P,U2,7,V+*%
%TO.N,VCC*%
X120650000Y-104140000D03*
%TO.P,U2,8,-*%
%TO.N,Net-(U2B--)*%
X120650000Y-101600000D03*
%TD*%
D17*
%TO.N,VCC*%
X114554000Y-73279000D03*
D18*
X73660000Y-75565000D03*
D17*
X118541800Y-81229200D03*
X121920000Y-88265000D03*
D18*
X103505000Y-77470000D03*
D19*
%TO.N,VEE*%
X93980000Y-108585000D03*
X91440000Y-95885000D03*
D17*
X113792000Y-89636600D03*
X109220000Y-89636600D03*
D18*
%TO.N,Net-(Rn1-Pad1)*%
X80010000Y-86995000D03*
X85725000Y-83185000D03*
%TO.N,Net-(Ru1-Pad1)*%
X93345000Y-82550000D03*
X86995000Y-88900000D03*
%TD*%
D20*
%TO.N,VCC*%
X118541800Y-77266800D02*
X114554000Y-73279000D01*
X114300000Y-73025000D02*
X114554000Y-73279000D01*
X109347000Y-73025000D02*
X114300000Y-73025000D01*
X105664000Y-73025000D02*
X108585000Y-73025000D01*
X99314000Y-66675000D02*
X105664000Y-73025000D01*
X73660000Y-75565000D02*
X82550000Y-66675000D01*
X103505000Y-77470000D02*
X107950000Y-73025000D01*
X118541800Y-81229200D02*
X118541800Y-77266800D01*
X107950000Y-73025000D02*
X108585000Y-73025000D01*
X82550000Y-66675000D02*
X99314000Y-66675000D01*
X118541800Y-81229200D02*
X121920000Y-84607400D01*
X108585000Y-73025000D02*
X109347000Y-73025000D01*
X107950000Y-73025000D02*
X109347000Y-73025000D01*
X121920000Y-84607400D02*
X121920000Y-88265000D01*
D21*
%TO.N,VEE*%
X109220000Y-89636600D02*
X113792000Y-89636600D01*
D20*
X91440000Y-106045000D02*
X91440000Y-95885000D01*
X93980000Y-108585000D02*
X91440000Y-106045000D01*
%TO.N,Net-(J2-Pin_2)*%
X98410000Y-72883000D02*
X100965000Y-75438000D01*
X100965000Y-80010000D02*
X61230000Y-119745000D01*
X100965000Y-75438000D02*
X100965000Y-80010000D01*
X98410000Y-69892500D02*
X98410000Y-72883000D01*
D21*
%TO.N,Net-(Rm1-Pad1)*%
X98410000Y-77512500D02*
X95277500Y-80645000D01*
X77470000Y-95250000D02*
X71120000Y-95250000D01*
X95277500Y-80645000D02*
X92075000Y-80645000D01*
X92075000Y-80645000D02*
X77470000Y-95250000D01*
%TO.N,Net-(Rn1-Pad1)*%
X81915000Y-86995000D02*
X85725000Y-83185000D01*
X80010000Y-86995000D02*
X81915000Y-86995000D01*
%TO.N,Net-(Ru1-Pad1)*%
X86995000Y-88900000D02*
X93345000Y-82550000D01*
%TD*%
M02*
