M48
; DRILL file {KiCad 7.0.1} date Tue May 16 20:26:09 2023
; FORMAT={2:4/ absolute / inch / keep zeros}
; #@! TF.CreationDate,2023-05-16T20:26:09-05:00
; #@! TF.GenerationSoftware,Kicad,Pcbnew,7.0.1
; #@! TF.FileFunction,Plated,1,2,PTH
FMAT,2
INCH
; #@! TA.AperFunction,Plated,PTH,ComponentDrill
T1C0.0236
; #@! TA.AperFunction,Plated,PTH,ViaDrill
T2C0.0315
; #@! TA.AperFunction,Plated,PTH,ComponentDrill
T3C0.0315
; #@! TA.AperFunction,Plated,PTH,ViaDrill
T4C0.0354
; #@! TA.AperFunction,Plated,PTH,ViaDrill
T5C0.0394
; #@! TA.AperFunction,Plated,PTH,ComponentDrill
T6C0.0394
; #@! TA.AperFunction,Plated,PTH,ComponentDrill
T7C0.0512
; #@! TA.AperFunction,Plated,PTH,ComponentDrill
T8C0.2402
%
G90
G05
T2
X048000Y-034750
T3
X036744Y-027517
X036744Y-030517
X037744Y-027517
X037744Y-030517
X038744Y-027517
X038744Y-030517
X044500Y-040000
X044500Y-041000
X044500Y-042000
X044500Y-043000
X047500Y-040000
X047500Y-041000
X047500Y-042000
X047500Y-043000
T4
X043000Y-035290
X044800Y-035290
X045100Y-028850
X046670Y-031980
T5
X029000Y-029750
X031500Y-034250
X033750Y-032750
X034250Y-035000
X036000Y-037750
X036750Y-032500
X037000Y-042750
X040750Y-030500
T6
X023167Y-027707
X023167Y-033219
X032222Y-027707
X032222Y-028707
X032222Y-032219
X032222Y-033219
T7
X028000Y-037500
X032000Y-037500
T8
X024106Y-047500
X035906Y-047500
X042094Y-047500
X053894Y-047500
T1
X024000Y-037628G85X024000Y-037510
G05
X024000Y-038809G85X024000Y-038691
G05
X024000Y-039990G85X024000Y-039872
G05
T0
M30
